<?xml version="1.0" encoding="UTF-8" standalone="no"?> <svg width="24" height="24" viewBox="0 0 24 24" fill="none" xmlns="http://www.w3.org/2000/svg">
<path d="M12.0001 16.0011C11.7661 16.0016 11.5394 15.9194 11.3601 15.7691L5.3601 10.7691C5.15628 10.5993 5.02824 10.3556 5.00414 10.0915C4.98004 9.82731 5.06186 9.56441 5.2316 9.36059C5.40134 9.15677 5.64509 9.02873 5.90924 9.00463C6.17338 8.98053 6.43628 9.06235 6.6401 9.23209L12.0111 13.7081L17.3731 9.39309C17.5799 9.22852 17.8434 9.15249 18.106 9.18161C18.3687 9.21074 18.6091 9.34264 18.7748 9.54851C18.9405 9.75438 19.018 10.0175 18.9903 10.2803C18.9626 10.5431 18.8321 10.7843 18.6271 10.9511L12.6271 15.7791C12.4496 15.9225 12.2283 16.0008 12.0001 16.0011Z" fill="black"/>
</svg>
