<svg xmlns="http://www.w3.org/2000/svg" viewBox="0 0 221.58 193.56"><defs><style>.cls-1{fill:#fff;}.cls-2{fill:#acd4f7;}.cls-3{opacity:0.13;}</style></defs><g id="Layer_2" data-name="Layer 2"><g id="Layer_1-2" data-name="Layer 1"><path class="cls-1" d="M191.88,70c4-1.66,8.78-.59,12.39,1.83s6.26,6,8.58,9.7c4.08,6.5,7.44,13.82,7.41,21.5s-4.16,15.74-11.34,18.49a12.3,12.3,0,0,1-8.28,21.58c3.49,15.16,6.72,31,2.59,45.83-.34,1.22-.83,2.55-2,3.09a3.18,3.18,0,0,1-3.44-.87,9.37,9.37,0,0,1-1.83-3.28c-5.53-13.93-12.29-27.82-23.25-38.05a12.44,12.44,0,0,1-23.38,5.66c-7.78,9.29-18.68,16.64-30.77,17.43s-25-6.34-28.44-18a20.72,20.72,0,0,1-37.4-10.76c-6.5,9-20.77,7.94-26.55-.38S23.09,123,30.8,116.45c-11.92-2.11-19.63-16.9-14.53-27.87S37.65,74,46.94,81.7c-3.44-8.32-.64-18.05,4.29-25.57,4.64-7.07,11.46-13.08,19.7-15a26.27,26.27,0,0,1,23.63,6.93c.06-4.08,11.76,1.69,14.72-1.11s-2.88-14.24,1.06-15.26a18.19,18.19,0,0,1,9.54-.25c6,1.75,9.79,7.78,12.47,13.23,2.07-6.35,7.68-11.11,13.93-13.43s13.11-2.5,19.76-1.94c5.26.45,10.91,1.55,14.47,5.45,4.9,5.38,3.93,13.7,2.66,20.87a8.53,8.53,0,0,1,10.9,2.78C196.3,61.88,195.35,67,191.88,70Z"/><path d="M200.24,193.56a4.88,4.88,0,0,1-3.36-1.49,10.48,10.48,0,0,1-2.12-3.71c-4.75-12-10.95-25.46-21-35.74a14.32,14.32,0,0,1-10,10.27,14.17,14.17,0,0,1-14.48-5.21c-8.74,9.84-19.78,15.84-30.53,16.55-12.69.82-24.69-6.21-29-16.66a22.81,22.81,0,0,1-22.36,6.33,22.83,22.83,0,0,1-15.46-16.7,17.14,17.14,0,0,1-12,4.63h-.14a18,18,0,0,1-14.61-7.28c-5.47-7.88-4-19.9,3.05-27.41A21.61,21.61,0,0,1,16,106.45c-3.13-6-3.48-12.91-.91-18.43s8.05-9.7,14.67-11.19a21.9,21.9,0,0,1,14.87,1.75c-1.48-7.09.47-15.48,5.52-23.18,5.39-8.21,12.67-13.73,20.5-15.55S88,40.51,94.24,46c1.49-1.16,4.2-.68,7.33-.12,2.49.44,5.89,1,6.81.17s.29-4.21-.16-6.67c-.71-4-1.45-8.07,1.79-8.91a19.28,19.28,0,0,1,10.24-.24c5.65,1.65,9.34,6.59,12,11.38A24.86,24.86,0,0,1,145.82,30c5.58-2.08,12-2.72,20.34-2,5,.42,11.31,1.48,15.32,5.87,4.6,5.05,4.5,12.35,3.36,19.73a9.87,9.87,0,0,1,10.34,4.1,10.1,10.1,0,0,1,.06,10.22A16.06,16.06,0,0,1,205,70.73c4,2.67,6.76,6.6,9,10.1,5.22,8.31,7.64,15.36,7.62,22.21,0,8.12-4.23,15.59-10.41,18.9a13.59,13.59,0,0,1-8.89,22.4c3.53,15.53,6.19,30.66,2.22,44.95-.25.91-.85,3.06-2.69,3.92A3.69,3.69,0,0,1,200.24,193.56Zm-27.5-45.06a1.3,1.3,0,0,1,.9.35c11.6,10.84,18.42,25.56,23.57,38.53a8.46,8.46,0,0,0,1.55,2.84,1.9,1.9,0,0,0,1.93.6c.66-.31,1-1.36,1.27-2.24,3.94-14.16,1-29.45-2.6-45.18a1.32,1.32,0,0,1,.26-1.13,1.28,1.28,0,0,1,1-.48h.17a11,11,0,0,0,7.22-19.27,1.33,1.33,0,0,1-.43-1.23,1.29,1.29,0,0,1,.83-1c6.15-2.35,10.46-9.45,10.49-17.26,0-6.32-2.27-12.93-7.21-20.8-2-3.26-4.62-6.92-8.19-9.3s-7.87-3.07-11.15-1.71a1.33,1.33,0,0,1-1.63-.53A1.31,1.31,0,0,1,191,69c2.93-2.53,3.8-7,1.93-9.88a7.19,7.19,0,0,0-9.15-2.33,1.33,1.33,0,0,1-1.41-.09,1.31,1.31,0,0,1-.53-1.3c1.24-7,2.18-14.79-2.34-19.75-3.39-3.72-9.05-4.64-13.6-5-7.89-.67-14-.08-19.19,1.86-6.43,2.4-11.34,7.11-13.14,12.61a1.32,1.32,0,0,1-2.44.17c-2.44-5-6-10.9-11.65-12.54a16.57,16.57,0,0,0-8.84.26c-.87.22-.21,3.91.15,5.89.64,3.55,1.3,7.22-.63,9.05s-5.54,1.13-9.08.5c-1.73-.31-4.62-.82-5.23-.4v.06a1.33,1.33,0,0,1-.83,1.21,1.31,1.31,0,0,1-1.43-.3,25,25,0,0,0-22.39-6.57c-7.17,1.66-13.88,6.79-18.89,14.43-5.47,8.34-7,17.44-4.19,24.35a1.31,1.31,0,0,1-.43,1.57,1.34,1.34,0,0,1-1.63,0c-4.05-3.38-10-4.62-15.77-3.31s-10.64,4.94-12.86,9.72-1.9,10.8.86,16.1,7.51,9,12.71,9.92a1.32,1.32,0,0,1,.62,2.3c-7.54,6.43-9.54,18.16-4.37,25.59a15.37,15.37,0,0,0,12.46,6.16h.12a14.28,14.28,0,0,0,11.82-5.79,1.31,1.31,0,0,1,2.38.67,20,20,0,0,0,14,17.28,20,20,0,0,0,21-7.2,1.33,1.33,0,0,1,1.29-.52,1.35,1.35,0,0,1,1,.93c3,10.35,14.94,17.84,27.08,17,10.52-.69,21.4-6.87,29.85-17a1.35,1.35,0,0,1,1.14-.46,1.31,1.31,0,0,1,1,.68A11.57,11.57,0,0,0,163,160.34a11.39,11.39,0,0,0,8.39-10.52,1.31,1.31,0,0,1,.79-1.21A1.22,1.22,0,0,1,172.74,148.5Z"/><path d="M118.76,145.29a17.23,17.23,0,0,1-6-1c-4.14-1.54-7.45-4.62-10.36-7.34a1.32,1.32,0,0,1,1.8-1.93c2.73,2.55,5.83,5.44,9.47,6.8a15.71,15.71,0,0,0,12.72-1.05,19.13,19.13,0,0,0,8.52-9.91,1.32,1.32,0,1,1,2.46.95A21.81,21.81,0,0,1,127.67,143,18.92,18.92,0,0,1,118.76,145.29Z"/><path d="M68.66,137.11a11.4,11.4,0,0,1-3.12-.43,1.32,1.32,0,0,1,.72-2.54,9.32,9.32,0,0,0,10.63-13.59c-3-5.17-9.88-6.12-12.72-6.3a68,68,0,0,0-11.66.66l-22.18,2.53a1.32,1.32,0,0,1-.3-2.62l22.18-2.53a70.68,70.68,0,0,1,12.12-.67c6.91.42,12.32,3.19,14.85,7.62a11.93,11.93,0,0,1-10.52,17.87Z"/><path d="M41.56,102a10.17,10.17,0,0,1-6.88-2.59,1.32,1.32,0,0,1,1.79-1.94,7.84,7.84,0,0,0,8.4,1.17,9,9,0,0,0,4.84-7.3,10.3,10.3,0,0,0-3.55-8.29,1.32,1.32,0,0,1,1.74-2,13,13,0,0,1,4.44,10.47A11.51,11.51,0,0,1,46,101.06,10.41,10.41,0,0,1,41.56,102Z"/><path class="cls-1" d="M141.31,34.67A30.05,30.05,0,0,0,124,49.24a24.65,24.65,0,0,0,0,22.36c5.36,9.91,18.66,14.34,29.19,10.33,11.48-4.38,18.46-18.16,15.1-30S151.37,31.31,141.31,34.67Zm13.94,31a12.44,12.44,0,0,1-5.73,5.82c-5.35,2.63-11.44.37-14.62-4.5s-2.78-11.74.58-16.59a10.65,10.65,0,0,1,6.75-4.86,9.17,9.17,0,0,1,7.61,1.72A8.1,8.1,0,0,1,153.65,49c2.12,1.75,3,5.26,3.2,7.9A20,20,0,0,1,155.25,65.65Z"/><path class="cls-2" d="M196.61,56.88a16.25,16.25,0,0,1-8-5,14.44,14.44,0,0,1-2.34-12.66,22.13,22.13,0,0,1,7.35-10.92,165.42,165.42,0,0,0-9.68-13.63c-4.15,3.07-8.13,6-12.73,6.21-4.44.22-8.75-2.21-11.51-5.69A24.58,24.58,0,0,1,155,2.88c-.16-.42-.38-.51-.55-.52l-14-1a20,20,0,0,1-5.87,11,16.13,16.13,0,0,1-11.31,4.36,27.9,27.9,0,0,1-5-.76c-2.72-.6-5.59-1.33-7.51-3.35a107.49,107.49,0,0,0-10.24,8,8,8,0,0,1,2.92,4.17c1.24,3.22,2.19,6.74,1.4,10.1a12.9,12.9,0,0,1-6.55,8.06A24.42,24.42,0,0,1,88,45.55a98.89,98.89,0,0,0-1.62,16,50.77,50.77,0,0,1,8.5,3.51,13.94,13.94,0,0,1,6.06,6.44,12.7,12.7,0,0,1-.36,9.84,21.4,21.4,0,0,1-6.31,7.8c3.17,5.15,6.22,9.93,9.36,14.65a19.29,19.29,0,0,1,16.26-2.46,11.63,11.63,0,0,1,3.69,1.89,12.24,12.24,0,0,1,3.15,4.11,20.5,20.5,0,0,1,2,12.13,139.91,139.91,0,0,0,16.63,2.28c-.33-5.71,2.14-11.45,6.66-14.58a14.06,14.06,0,0,1,15.51-.25,25.33,25.33,0,0,1,5.42,5.61c5-3.5,9.85-7.08,14.44-11-2.57-4-5.17-8-5.27-12.48-.11-4.68,2.7-9.15,6.64-11.69a20.94,20.94,0,0,1,13.48-2.82c1.6-5.44,2.95-10.76,4.08-16.12A46,46,0,0,1,196.61,56.88Zm-29.23,12a26.74,26.74,0,0,1-8.64,10.48A24.64,24.64,0,0,1,151.68,83c-10.4,3.34-22.6-2.52-27.43-12.32a25.14,25.14,0,0,1,19.37-36c7.08-.91,16,2.91,21.15,9.81A24.74,24.74,0,0,1,167.38,68.84Z"/><g class="cls-3"><path d="M173.73,57.48a19.36,19.36,0,0,0-.47-2.41l-.27-.56a50.37,50.37,0,0,0-5.23-8.22,1.76,1.76,0,0,0-.69,1c-.21,1.38.86,2.64,1.2,4,1.22,3.61,2,5.35,1.63,8.66A38.88,38.88,0,0,1,167.19,69a29.39,29.39,0,0,1-2.74,4.4c-.32.38-.43.55-.38.56-.53.41-1,.93-1.49,1.36-1.08.92-2.16,1.85-3.26,2.76a10.47,10.47,0,0,0-1.09.94c.17-.26-.3.19-.75.57-.24.16-1.32.9-1.88,1.18A40.94,40.94,0,0,1,145.73,83,24.44,24.44,0,0,1,138,82c-1.52-.44-2.86-2-4.52-1.65a1.9,1.9,0,0,0-1.36,1.35l.48.51c.56.46,1.12.92,1.69,1.37,2,1.33,4.08,2.67,6.13,4a23.81,23.81,0,0,0,11.36.36l-.26,0a29.26,29.26,0,0,0,9.31-3.3,21.55,21.55,0,0,0,7-7.1l.16-.25v0A30,30,0,0,0,173,68.44,27.19,27.19,0,0,0,173.73,57.48Z"/></g><g class="cls-3"><path d="M184.83,94.73a2.92,2.92,0,0,0-1.3.37,4,4,0,0,0-1.32,1.39c-.34.43-.69.86-1,1.32a29.55,29.55,0,0,1-3.17,3.71c-1.12,1.19-2.86,1.94-3.59,3.42,0,0,0,.06,0,.09-.43.24-.85.49-1.29.72-.81.51-1.87.75-2.43,1.55-1.75,2.09,1,5.15,3.28,3.74a33.56,33.56,0,0,0,6.7-4.62l.31-.31a48.32,48.32,0,0,0,4.53-4,19.85,19.85,0,0,0,1.63-1.9,34.83,34.83,0,0,1-1.41-3.26C185.41,96.18,185.1,95.46,184.83,94.73Z"/></g><g class="cls-3"><path d="M200.51,58.13c-.91,3.53-1.95,7-3.08,10.48-.52,1.61-1,3.23-1.55,4.85a2.53,2.53,0,0,0,2.64.89l.14-.06a2,2,0,0,0,3.45-.61c.2-.76.52-1.52.79-2.29a2,2,0,0,0,.48-.3c1-.74,1.28-2.1,1.65-3.22A35.81,35.81,0,0,0,206,61c0-.13,0-.27,0-.41Q203.24,59.4,200.51,58.13Z"/></g><path d="M145.33,123.05h-.1a141,141,0,0,1-16.78-2.31,1.32,1.32,0,0,1-1-1.48,19.2,19.2,0,0,0-1.86-11.35,10.65,10.65,0,0,0-2.79-3.67,10.38,10.38,0,0,0-3.28-1.66,17.9,17.9,0,0,0-15.13,2.3,1.32,1.32,0,0,1-1.82-.37c-3.09-4.66-6.16-9.46-9.39-14.69a1.32,1.32,0,0,1,.3-1.72,19.91,19.91,0,0,0,5.93-7.3,11.28,11.28,0,0,0,.35-8.8,12.82,12.82,0,0,0-5.5-5.81,41.72,41.72,0,0,0-7.15-3l-1.13-.4a1.31,1.31,0,0,1-.88-1.28A101.14,101.14,0,0,1,86.7,45.3a1.32,1.32,0,0,1,1.21-1.07,22.9,22.9,0,0,0,9.74-2.44,11.65,11.65,0,0,0,5.91-7.21c.75-3.22-.33-6.68-1.35-9.33a6.88,6.88,0,0,0-2.43-3.56,1.32,1.32,0,0,1-.12-2.08A109.44,109.44,0,0,1,110,11.52a1.32,1.32,0,0,1,1.7.18c1.63,1.72,4.16,2.39,6.84,3a26.69,26.69,0,0,0,4.8.74,14.71,14.71,0,0,0,10.37-4,18.66,18.66,0,0,0,5.46-10.32A1.32,1.32,0,0,1,140.59,0l14,1a2,2,0,0,1,1.69,1.37,1.63,1.63,0,0,1,.07.3,23.1,23.1,0,0,0,4.41,11.65c2.69,3.39,6.68,5.39,10.4,5.19,4.27-.21,8.21-3.13,12-6a1.32,1.32,0,0,1,1.83.25,167.49,167.49,0,0,1,9.76,13.74,1.32,1.32,0,0,1-.27,1.71,20.9,20.9,0,0,0-6.93,10.25A13.14,13.14,0,0,0,189.62,51,14.92,14.92,0,0,0,197,55.61a44.56,44.56,0,0,0,9.41,1.47,1.32,1.32,0,0,1,.95.52,1.29,1.29,0,0,1,.23,1.06c-1.11,5.29-2.45,10.59-4.1,16.22a1.34,1.34,0,0,1-1.4.94,19.68,19.68,0,0,0-12.64,2.62,12.74,12.74,0,0,0-6,10.55c.1,4.07,2.47,7.76,5,11.66l.09.13a1.32,1.32,0,0,1-.25,1.72c-4.77,4.08-9.81,7.74-14.54,11.09a1.33,1.33,0,0,1-1.8-.27,24.59,24.59,0,0,0-5.12-5.33,12.8,12.8,0,0,0-14,.24c-4,2.78-6.4,8-6.09,13.43a1.3,1.3,0,0,1-1.32,1.39Zm-15.18-4.66A139.31,139.31,0,0,0,144,120.3a17.65,17.65,0,0,1,7.25-14.24,15.31,15.31,0,0,1,17-.24,23.58,23.58,0,0,1,4.93,4.89c4.09-2.9,8.36-6,12.45-9.47-2.42-3.78-4.76-7.71-4.86-12.19A15.43,15.43,0,0,1,188,76.22a21.93,21.93,0,0,1,13.24-3.11c1.34-4.67,2.48-9.12,3.44-13.53a41.88,41.88,0,0,1-8.46-1.44,17.57,17.57,0,0,1-8.66-5.44A15.79,15.79,0,0,1,185,38.87a22.78,22.78,0,0,1,6.9-10.82c-2.36-3.68-5.06-7.48-8.21-11.56-3.8,2.79-7.77,5.46-12.42,5.7s-9.39-2.14-12.6-6.19a25.29,25.29,0,0,1-4.88-12.37l-12.25-.91a21,21,0,0,1-6,10.61A17.44,17.44,0,0,1,123.27,18a29,29,0,0,1-5.28-.79c-2.6-.57-5.28-1.27-7.35-3-2.63,1.84-5.25,3.88-8.1,6.32a10.92,10.92,0,0,1,2.13,3.69c1.16,3,2.37,7,1.46,10.88a14.11,14.11,0,0,1-7.21,8.92,24.49,24.49,0,0,1-9.82,2.69,98.72,98.72,0,0,0-1.38,13.83l.21.08a42.62,42.62,0,0,1,7.61,3.22A15.33,15.33,0,0,1,102.15,71a14,14,0,0,1-.38,10.88A21.62,21.62,0,0,1,96,89.41c2.75,4.43,5.39,8.57,8,12.58a20.42,20.42,0,0,1,16.27-1.92,12.77,12.77,0,0,1,4.1,2.11,13.34,13.34,0,0,1,3.51,4.54A22,22,0,0,1,130.15,118.39ZM154.36,3.67Z"/><path d="M144.71,73.84a13,13,0,0,1-10.75-6,15.64,15.64,0,0,1-1.05-13.88,15.3,15.3,0,0,1,6-7.41A12.2,12.2,0,0,1,148.46,45h0c3.54,1,6.18,2.53,7.85,4.67a15.67,15.67,0,0,1,3.1,9.73,12.56,12.56,0,0,1-1.58,6.44,14.6,14.6,0,0,1-3.29,3.67,16.85,16.85,0,0,1-7.95,4.19A10.76,10.76,0,0,1,144.71,73.84Zm.84-26.6a10.07,10.07,0,0,0-5.24,1.52,12.63,12.63,0,0,0-4.95,6.14,13,13,0,0,0,.83,11.5,10.1,10.1,0,0,0,9.94,4.68,14.35,14.35,0,0,0,6.71-3.6,12.14,12.14,0,0,0,2.72-3,10,10,0,0,0,1.21-5.11,13,13,0,0,0-2.54-8.09c-1.31-1.69-3.48-3-6.46-3.75A8.61,8.61,0,0,0,145.55,47.24Z"/><path d="M145.6,85.25a25.7,25.7,0,0,1-22.53-14,26.46,26.46,0,0,1,20.38-37.93c7.79-1,17.21,3.35,22.38,10.33a26,26,0,0,1,2.76,25.73,28.22,28.22,0,0,1-9.07,11,26.23,26.23,0,0,1-7.44,3.87A21.32,21.32,0,0,1,145.6,85.25Zm.18-49.43a14.71,14.71,0,0,0-2,.13h0A23.81,23.81,0,0,0,125.44,70.1c4.67,9.49,16.27,14.72,25.84,11.65A23.67,23.67,0,0,0,158,78.26a25.39,25.39,0,0,0,8.22-10,23.56,23.56,0,0,0-2.47-23.07C159.51,39.56,152.24,35.82,145.78,35.82Zm-2.16-1.18h0Z"/><path class="cls-2" d="M196.61,56.88a16.25,16.25,0,0,1-8-5,14.44,14.44,0,0,1-2.34-12.66,22.13,22.13,0,0,1,7.35-10.92,165.42,165.42,0,0,0-9.68-13.63c-4.15,3.07-8.13,6-12.73,6.21-4.44.22-8.75-2.21-11.51-5.69A24.58,24.58,0,0,1,155,2.88c-.16-.42-.38-.51-.55-.52l-14-1a20,20,0,0,1-5.87,11,16.13,16.13,0,0,1-11.31,4.36,27.9,27.9,0,0,1-5-.76c-2.72-.6-5.59-1.33-7.51-3.35a107.49,107.49,0,0,0-10.24,8,8,8,0,0,1,2.92,4.17c1.24,3.22,2.19,6.74,1.4,10.1a12.9,12.9,0,0,1-6.55,8.06A24.42,24.42,0,0,1,88,45.55a98.89,98.89,0,0,0-1.62,16,50.77,50.77,0,0,1,8.5,3.51,13.94,13.94,0,0,1,6.06,6.44,12.7,12.7,0,0,1-.36,9.84,21.4,21.4,0,0,1-6.31,7.8c3.17,5.15,6.22,9.93,9.36,14.65a19.29,19.29,0,0,1,16.26-2.46,11.63,11.63,0,0,1,3.69,1.89,12.24,12.24,0,0,1,3.15,4.11,20.5,20.5,0,0,1,2,12.13,139.91,139.91,0,0,0,16.63,2.28c-.33-5.71,2.14-11.45,6.66-14.58a14.06,14.06,0,0,1,15.51-.25,25.33,25.33,0,0,1,5.42,5.61c5-3.5,9.85-7.08,14.44-11-2.57-4-5.17-8-5.27-12.48-.11-4.68,2.7-9.15,6.64-11.69a20.94,20.94,0,0,1,13.48-2.82c1.6-5.44,2.95-10.76,4.08-16.12A46,46,0,0,1,196.61,56.88Zm-29.23,12a26.74,26.74,0,0,1-8.64,10.48A24.64,24.64,0,0,1,151.68,83c-10.4,3.34-22.6-2.52-27.43-12.32a25.14,25.14,0,0,1,19.37-36c7.08-.91,16,2.91,21.15,9.81A24.74,24.74,0,0,1,167.38,68.84Z"/><g class="cls-3"><path d="M173.73,57.48a19.36,19.36,0,0,0-.47-2.41l-.27-.56a50.37,50.37,0,0,0-5.23-8.22,1.76,1.76,0,0,0-.69,1c-.21,1.38.86,2.64,1.2,4,1.22,3.61,2,5.35,1.63,8.66A38.88,38.88,0,0,1,167.19,69a29.39,29.39,0,0,1-2.74,4.4c-.32.38-.43.55-.38.56-.53.41-1,.93-1.49,1.36-1.08.92-2.16,1.85-3.26,2.76a10.47,10.47,0,0,0-1.09.94c.17-.26-.3.19-.75.57-.24.16-1.32.9-1.88,1.18A40.94,40.94,0,0,1,145.73,83,24.44,24.44,0,0,1,138,82c-1.52-.44-2.86-2-4.52-1.65a1.9,1.9,0,0,0-1.36,1.35l.48.51c.56.46,1.12.92,1.69,1.37,2,1.33,4.08,2.67,6.13,4a23.81,23.81,0,0,0,11.36.36l-.26,0a29.26,29.26,0,0,0,9.31-3.3,21.55,21.55,0,0,0,7-7.1l.16-.25v0A30,30,0,0,0,173,68.44,27.19,27.19,0,0,0,173.73,57.48Z"/></g><g class="cls-3"><path d="M184.83,94.73a2.92,2.92,0,0,0-1.3.37,4,4,0,0,0-1.32,1.39c-.34.43-.69.86-1,1.32a29.55,29.55,0,0,1-3.17,3.71c-1.12,1.19-2.86,1.94-3.59,3.42,0,0,0,.06,0,.09-.43.24-.85.49-1.29.72-.81.51-1.87.75-2.43,1.55-1.75,2.09,1,5.15,3.28,3.74a33.56,33.56,0,0,0,6.7-4.62l.31-.31a48.32,48.32,0,0,0,4.53-4,19.85,19.85,0,0,0,1.63-1.9,34.83,34.83,0,0,1-1.41-3.26C185.41,96.18,185.1,95.46,184.83,94.73Z"/></g><g class="cls-3"><path d="M200.51,58.13c-.91,3.53-1.95,7-3.08,10.48-.52,1.61-1,3.23-1.55,4.85a2.53,2.53,0,0,0,2.64.89l.14-.06a2,2,0,0,0,3.45-.61c.2-.76.52-1.52.79-2.29a2,2,0,0,0,.48-.3c1-.74,1.28-2.1,1.65-3.22A35.81,35.81,0,0,0,206,61c0-.13,0-.27,0-.41Q203.24,59.4,200.51,58.13Z"/></g><path d="M145.33,123.05h-.1a141,141,0,0,1-16.78-2.31,1.32,1.32,0,0,1-1-1.48,19.2,19.2,0,0,0-1.86-11.35,10.65,10.65,0,0,0-2.79-3.67,10.38,10.38,0,0,0-3.28-1.66,17.9,17.9,0,0,0-15.13,2.3,1.32,1.32,0,0,1-1.82-.37c-3.09-4.66-6.16-9.46-9.39-14.69a1.32,1.32,0,0,1,.3-1.72,19.91,19.91,0,0,0,5.93-7.3,11.28,11.28,0,0,0,.35-8.8,12.82,12.82,0,0,0-5.5-5.81,41.72,41.72,0,0,0-7.15-3l-1.13-.4a1.31,1.31,0,0,1-.88-1.28A101.14,101.14,0,0,1,86.7,45.3a1.32,1.32,0,0,1,1.21-1.07,22.9,22.9,0,0,0,9.74-2.44,11.65,11.65,0,0,0,5.91-7.21c.75-3.22-.33-6.68-1.35-9.33a6.88,6.88,0,0,0-2.43-3.56,1.32,1.32,0,0,1-.12-2.08A109.44,109.44,0,0,1,110,11.52a1.32,1.32,0,0,1,1.7.18c1.63,1.72,4.16,2.39,6.84,3a26.69,26.69,0,0,0,4.8.74,14.71,14.71,0,0,0,10.37-4,18.66,18.66,0,0,0,5.46-10.32A1.32,1.32,0,0,1,140.59,0l14,1a2,2,0,0,1,1.69,1.37,1.63,1.63,0,0,1,.07.3,23.1,23.1,0,0,0,4.41,11.65c2.69,3.39,6.68,5.39,10.4,5.19,4.27-.21,8.21-3.13,12-6a1.32,1.32,0,0,1,1.83.25,167.49,167.49,0,0,1,9.76,13.74,1.32,1.32,0,0,1-.27,1.71,20.9,20.9,0,0,0-6.93,10.25A13.14,13.14,0,0,0,189.62,51,14.92,14.92,0,0,0,197,55.61a44.56,44.56,0,0,0,9.41,1.47,1.32,1.32,0,0,1,.95.52,1.29,1.29,0,0,1,.23,1.06c-1.11,5.29-2.45,10.59-4.1,16.22a1.34,1.34,0,0,1-1.4.94,19.68,19.68,0,0,0-12.64,2.62,12.74,12.74,0,0,0-6,10.55c.1,4.07,2.47,7.76,5,11.66l.09.13a1.32,1.32,0,0,1-.25,1.72c-4.77,4.08-9.81,7.74-14.54,11.09a1.33,1.33,0,0,1-1.8-.27,24.59,24.59,0,0,0-5.12-5.33,12.8,12.8,0,0,0-14,.24c-4,2.78-6.4,8-6.09,13.43a1.3,1.3,0,0,1-1.32,1.39Zm-15.18-4.66A139.31,139.31,0,0,0,144,120.3a17.65,17.65,0,0,1,7.25-14.24,15.31,15.31,0,0,1,17-.24,23.58,23.58,0,0,1,4.93,4.89c4.09-2.9,8.36-6,12.45-9.47-2.42-3.78-4.76-7.71-4.86-12.19A15.43,15.43,0,0,1,188,76.22a21.93,21.93,0,0,1,13.24-3.11c1.34-4.67,2.48-9.12,3.44-13.53a41.88,41.88,0,0,1-8.46-1.44,17.57,17.57,0,0,1-8.66-5.44A15.79,15.79,0,0,1,185,38.87a22.78,22.78,0,0,1,6.9-10.82c-2.36-3.68-5.06-7.48-8.21-11.56-3.8,2.79-7.77,5.46-12.42,5.7s-9.39-2.14-12.6-6.19a25.29,25.29,0,0,1-4.88-12.37l-12.25-.91a21,21,0,0,1-6,10.61A17.44,17.44,0,0,1,123.27,18a29,29,0,0,1-5.28-.79c-2.6-.57-5.28-1.27-7.35-3-2.63,1.84-5.25,3.88-8.1,6.32a10.92,10.92,0,0,1,2.13,3.69c1.16,3,2.37,7,1.46,10.88a14.11,14.11,0,0,1-7.21,8.92,24.49,24.49,0,0,1-9.82,2.69,98.72,98.72,0,0,0-1.38,13.83l.21.08a42.62,42.62,0,0,1,7.61,3.22A15.33,15.33,0,0,1,102.15,71a14,14,0,0,1-.38,10.88A21.62,21.62,0,0,1,96,89.41c2.75,4.43,5.39,8.57,8,12.58a20.42,20.42,0,0,1,16.27-1.92,12.77,12.77,0,0,1,4.1,2.11,13.34,13.34,0,0,1,3.51,4.54A22,22,0,0,1,130.15,118.39ZM154.36,3.67Z"/><path d="M144.71,73.84a13,13,0,0,1-10.75-6,15.64,15.64,0,0,1-1.05-13.88,15.3,15.3,0,0,1,6-7.41A12.2,12.2,0,0,1,148.46,45h0c3.54,1,6.18,2.53,7.85,4.67a15.67,15.67,0,0,1,3.1,9.73,12.56,12.56,0,0,1-1.58,6.44,14.6,14.6,0,0,1-3.29,3.67,16.85,16.85,0,0,1-7.95,4.19A10.76,10.76,0,0,1,144.71,73.84Zm.84-26.6a10.07,10.07,0,0,0-5.24,1.52,12.63,12.63,0,0,0-4.95,6.14,13,13,0,0,0,.83,11.5,10.1,10.1,0,0,0,9.94,4.68,14.35,14.35,0,0,0,6.71-3.6,12.14,12.14,0,0,0,2.72-3,10,10,0,0,0,1.21-5.11,13,13,0,0,0-2.54-8.09c-1.31-1.69-3.48-3-6.46-3.75A8.61,8.61,0,0,0,145.55,47.24Z"/><path d="M145.6,85.25a25.7,25.7,0,0,1-22.53-14,26.46,26.46,0,0,1,20.38-37.93c7.79-1,17.21,3.35,22.38,10.33a26,26,0,0,1,2.76,25.73,28.22,28.22,0,0,1-9.07,11,26.23,26.23,0,0,1-7.44,3.87A21.32,21.32,0,0,1,145.6,85.25Zm.18-49.43a14.71,14.71,0,0,0-2,.13h0A23.81,23.81,0,0,0,125.44,70.1c4.67,9.49,16.27,14.72,25.84,11.65A23.67,23.67,0,0,0,158,78.26a25.39,25.39,0,0,0,8.22-10,23.56,23.56,0,0,0-2.47-23.07C159.51,39.56,152.24,35.82,145.78,35.82Zm-2.16-1.18h0Z"/><path d="M41.35,145.16a.3.3,0,0,1-.13,0A13,13,0,0,1,32.89,136a13.52,13.52,0,0,1,3.17-12,.44.44,0,0,1,.65.59,12.6,12.6,0,0,0-3,11.22,12,12,0,0,0,7.74,8.55.44.44,0,0,1-.14.85Z"/><path d="M48,141.12a.41.41,0,0,1-.18-.05A7.84,7.84,0,0,1,45.13,129a.44.44,0,0,1,.62-.06.43.43,0,0,1,.06.62,7,7,0,0,0,2.4,10.76.44.44,0,0,1-.19.84Z"/><path d="M28.45,107.35a.48.48,0,0,1-.3-.11,14.9,14.9,0,0,1-4.69-7.92,10.91,10.91,0,0,1,2-8.94,18.37,18.37,0,0,1,5.3-4,.44.44,0,0,1,.6.16.43.43,0,0,1-.16.6,18,18,0,0,0-5.06,3.84,10.06,10.06,0,0,0-1.83,8.22,13.94,13.94,0,0,0,4.43,7.44.45.45,0,0,1,0,.62A.47.47,0,0,1,28.45,107.35Z"/><path d="M58.65,80.28a.45.45,0,0,1-.43-.36A24.29,24.29,0,0,1,71.7,53.27a.45.45,0,0,1,.59.21.44.44,0,0,1-.21.58,23.45,23.45,0,0,0-13,25.69.44.44,0,0,1-.34.52Z"/><path d="M72.13,152.81a7,7,0,0,1-4.25-1.36C66,150,64.94,147.81,64,145.86a.44.44,0,0,1,.21-.58.45.45,0,0,1,.59.21c.87,1.86,1.85,4,3.59,5.26a6.55,6.55,0,0,0,8.45-.79.44.44,0,1,1,.65.59A7.34,7.34,0,0,1,72.13,152.81Z"/><path d="M117.07,163.08a15.57,15.57,0,0,1-7.53-2,22.86,22.86,0,0,1-8.18-8.28.45.45,0,0,1,.15-.61.44.44,0,0,1,.6.15,22,22,0,0,0,7.86,8,13.71,13.71,0,0,0,10.78,1.36.44.44,0,1,1,.27.83A12.74,12.74,0,0,1,117.07,163.08Z"/><path d="M132.47,158.77c-3.53,0-6.81-2.12-9.9-4.34a.44.44,0,1,1,.51-.71c3.34,2.4,6.92,4.68,10.64,4.07a.44.44,0,0,1,.51.36.43.43,0,0,1-.36.5A8.45,8.45,0,0,1,132.47,158.77Z"/><path d="M162.92,153.68a8.17,8.17,0,0,1-4.76-1.61,7.83,7.83,0,0,1-3.32-5.55.43.43,0,0,1,.39-.48.44.44,0,0,1,.48.4,7.36,7.36,0,0,0,8.56,6.21.43.43,0,0,1,.52.33.44.44,0,0,1-.33.53A7.2,7.2,0,0,1,162.92,153.68Z"/><path d="M199.47,136.55a.44.44,0,0,1-.1-.87c1.52-.33,2.48-1.89,3.27-3.33a3.66,3.66,0,0,0,.66-2.64,3.58,3.58,0,0,0-1.13-1.42,5.36,5.36,0,0,1-1.24-1.47.44.44,0,0,1,.79-.39,4.35,4.35,0,0,0,1.05,1.21,4.32,4.32,0,0,1,1.37,1.8,4.41,4.41,0,0,1-.73,3.33c-.94,1.73-2.06,3.38-3.85,3.77Z"/><path d="M203.47,117.32a.45.45,0,0,1-.34-.17.43.43,0,0,1,.07-.61,19.56,19.56,0,0,0,1.93-28.77.44.44,0,0,1,0-.62.45.45,0,0,1,.63,0,20.45,20.45,0,0,1-2,30.05A.42.42,0,0,1,203.47,117.32Z"/><path d="M196.15,115.64a.42.42,0,0,1-.28-.1.43.43,0,0,1-.05-.62,28,28,0,0,0,4.18-6,9,9,0,0,0,.5-6.92.44.44,0,0,1,.24-.57.44.44,0,0,1,.57.25,9.7,9.7,0,0,1-.51,7.61,28.24,28.24,0,0,1-4.31,6.23A.43.43,0,0,1,196.15,115.64Z"/><g class="cls-3"><path d="M2.59,108.15a2.64,2.64,0,0,0,0,5.28A2.64,2.64,0,0,0,2.59,108.15Z"/></g><g class="cls-3"><path d="M203.92,72.59a3.51,3.51,0,0,0-1.62,1.09l-.08,0c-6.3,1.9-14.64,2.45-17.85,9.07a16.2,16.2,0,0,0-.28,11.69c.86,2.52,2.43,4.66,3.78,6.93a46.13,46.13,0,0,1-6.82,4.84,68.49,68.49,0,0,1-6.71,4.33,6.24,6.24,0,0,0-3.47-2.38,31.6,31.6,0,0,0-11.54-2.58c-6.81.44-11.34,5-13.21,11.38a33,33,0,0,0-.78,4.42c-2.63-.31-5.28-.51-7.91-.82-3.67-.5-2.89-.34-6.17-.85-.25-.06-.51-.11-.77-.15-.35-1.41-.57-2.85-.93-4.26a19.1,19.1,0,0,0-8.2-12.23,16.18,16.18,0,0,0-7.55-2.57c-.93-.09-.33,0,.24,0a15.77,15.77,0,0,0-4.55,0c-1.22.16-2.55,0-3.68.42-3,1.14-2,5.71,1.14,5.68a38.76,38.76,0,0,1,4.82,0l.55.1a18.38,18.38,0,0,1,2.2.66c4.86,2.57,6.2,4.47,7.3,7.45s1,6.66,2.63,9.32a3.44,3.44,0,0,0,3.87,1.27,2.87,2.87,0,0,0,.74.3,120.34,120.34,0,0,0,15.22,2.35c3.19.43,6.78.34,7.59-3.46a36.12,36.12,0,0,1,1.71-7.11,16.11,16.11,0,0,1,1-1.82c.12-.19.26-.36.39-.54l.13-.16a9.19,9.19,0,0,1,1-.92l.31-.2a6.26,6.26,0,0,1,2.33-.87l.58-.12a8.64,8.64,0,0,1,1.61.06c.43.06,1.08.17,1.44.25a19,19,0,0,1,2.68.66c1.56.92,3.81,2.49,3.57,2.31,1,.87,2.4,2.33,3.77,1.71a3.86,3.86,0,0,0,2.23-.35,58.27,58.27,0,0,0,9.34-5.48,50.66,50.66,0,0,0,8.76-6.44,2.82,2.82,0,0,0,1.51-4.07c-2-4.94-4.45-7.16-4.94-11.11-.43-5.64.59-7.48,10-10.15,2.41-.81,5.29-.88,7.14-2.82A2.83,2.83,0,0,0,203.92,72.59Z"/></g><g class="cls-3"><path d="M82.41,154.05c-1.69-.45-3.21.82-4.86,1-2.61.43-2.82.58-6.68-.46-2.49-.89-1.93-.44-4.56-2.12l-.14-.11c-.33-.27-1.08-.89-1.34-1.15a18.2,18.2,0,0,1-1.85-2c-.88-1.19-1.73-2.41-2.56-3.64a2.47,2.47,0,0,0-4.26,2.49c3.09,4.89,6.63,10.06,12.32,12.07A18.09,18.09,0,0,0,82.56,160a3.1,3.1,0,0,0,1.71-1.37A3.14,3.14,0,0,0,82.41,154.05Z"/></g><g class="cls-3"><path d="M144,153.27a2.38,2.38,0,0,0-.76.39c.13-.11-.61.47-.93.74-1.92,1.5-1.16,1-4.39,3.35-5.72,3.48-9,5.37-14.44,6.79a35.37,35.37,0,0,1-11,.56c-2.26-.38-9.34-2.61-11-4.63A15.78,15.78,0,0,1,98,156.2a10.3,10.3,0,0,0-1.74-2.41c-2.24-1.86-5.46,1-4,3.47,2.13,3.64,4.52,7.28,8.06,9.71a30.49,30.49,0,0,0,10,4.16,35.46,35.46,0,0,0,16.08-1.07,55.49,55.49,0,0,0,16.44-9.25c1.36-1.32,3.07-2.6,4-4.23A2.46,2.46,0,0,0,144,153.27Z"/></g><g class="cls-3"><path d="M161.49,153.25l-.37.05a13.4,13.4,0,0,1-3.58,0l-.41-.07a9.75,9.75,0,0,1-1.52-.43,12,12,0,0,1-1.31-.75,4,4,0,0,0-1.94-.9c-3.06-.52-4.53,3.81-1.84,5.34a15,15,0,0,0,9.62,2.56c1.85-.17,4.54-.39,4.72-2.74A2.79,2.79,0,0,0,161.49,153.25Z"/></g><g class="cls-3"><path d="M135,134.59c-1.11.89-3.57,4-6,6.06l-.7.58a21.06,21.06,0,0,1-3.62,2.1,14.87,14.87,0,0,1-3.09.77l-.38,0c-1.72.42-7.19-.69-10.57-2.83a14,14,0,0,1-2.37-1.75,2.34,2.34,0,0,0-1.68-.69,2.38,2.38,0,0,0-1.67,4,27.71,27.71,0,0,0,10.94,6.38c9.58,3.16,18-3.21,22.41-11.36A2.41,2.41,0,0,0,135,134.59Z"/></g><g class="cls-3"><path d="M208.2,128.62c-.41-2.18-.57-4.59-1.68-6.53-1.54-2.19-5.13-.38-4.37,2.18a25.31,25.31,0,0,1,1.1,6.33c0,2.59.23,1.57-.57,4a2.81,2.81,0,0,0,4.1,3.16C209.42,135.75,208.59,131.51,208.2,128.62Z"/></g><g class="cls-3"><path d="M204.26,164a65.3,65.3,0,0,0-2.83-12.66q-.72-2.51-1.59-5a2.55,2.55,0,0,0-1.18-1.54,2.6,2.6,0,0,0-3.79,2.91c3.6,10.67,4.76,18.44,3.82,29.88-.34,3.81-.62,5-.9,7.46l-.12,1.1a2.58,2.58,0,0,0,0,.4.13.13,0,0,0,0,.06v-.06a1.71,1.71,0,0,0,0,.45,2.09,2.09,0,0,0,.33,1.05,2.85,2.85,0,0,0,4.42.57,3.48,3.48,0,0,0,.89-2.2c.27-1.42.49-2.85.7-4.29A63.22,63.22,0,0,0,204.26,164Z"/></g><g class="cls-3"><path d="M217.81,99.25a35.81,35.81,0,0,0-1.67-7.72c-.33-1-.54-2.1-1.52-2.62A2.49,2.49,0,0,0,211,91.7a28.58,28.58,0,0,1,1.17,14c-1,4.91-1.95,5.31-2.34,7.2a2.72,2.72,0,0,0,3.41,3c1.54-.42,2-2,2.66-3.33A26.16,26.16,0,0,0,217.81,99.25Z"/></g></g></g></svg>