<svg xmlns="http://www.w3.org/2000/svg" xmlns:xlink="http://www.w3.org/1999/xlink" viewBox="0 0 974.26 927.04"><defs><style>.cls-1,.cls-5{fill:none;}.cls-2{isolation:isolate;}.cls-3{fill:#fff;}.cls-4{clip-path:url(#clip-path);}.cls-5{stroke:#000;stroke-miterlimit:10;}.cls-6{clip-path:url(#clip-path-2);}.cls-17,.cls-7{mix-blend-mode:overlay;}.cls-7{fill:url(#Degradado_sin_nombre_35);}.cls-8{fill:url(#Degradado_sin_nombre_2);}.cls-19,.cls-9{mix-blend-mode:multiply;}.cls-9{fill:url(#Degradado_sin_nombre_2-2);}.cls-10{opacity:0.4;}.cls-10,.cls-14,.cls-15,.cls-16,.cls-23,.cls-24,.cls-25{mix-blend-mode:screen;}.cls-11{fill:url(#Degradado_sin_nombre_3);}.cls-12{fill:url(#Degradado_sin_nombre_3-2);}.cls-13{fill:url(#Degradado_sin_nombre_3-3);}.cls-14,.cls-15,.cls-16,.cls-23,.cls-24,.cls-25{opacity:0.5;}.cls-14{fill:url(#Degradado_sin_nombre_3-4);}.cls-15{fill:url(#Degradado_sin_nombre_3-5);}.cls-16{fill:url(#Degradado_sin_nombre_3-6);}.cls-17{fill:url(#Degradado_sin_nombre_35-3);}.cls-18{fill:url(#Degradado_sin_nombre_2-3);}.cls-19{fill:url(#Degradado_sin_nombre_2-4);}.cls-20{fill:url(#Degradado_sin_nombre_3-7);}.cls-21{fill:url(#Degradado_sin_nombre_3-8);}.cls-22{fill:url(#Degradado_sin_nombre_3-9);}.cls-23{fill:url(#Degradado_sin_nombre_3-10);}.cls-24{fill:url(#Degradado_sin_nombre_3-11);}.cls-25{fill:url(#Degradado_sin_nombre_3-12);}</style><clipPath id="clip-path" transform="translate(-70.73 198.84)"><rect class="cls-1" y="122.66" width="1133" height="663"/></clipPath><clipPath id="clip-path-2" transform="translate(-70.73 198.84)"><rect class="cls-1" x="741.5" y="122.16" width="91" height="65"/></clipPath><radialGradient id="Degradado_sin_nombre_35" cx="708.39" cy="454.49" r="66.11" gradientUnits="userSpaceOnUse"><stop offset="0.51" stop-color="#fff"/><stop offset="1" stop-color="#fff" stop-opacity="0"/></radialGradient><linearGradient id="Degradado_sin_nombre_2" x1="655.89" y1="454.49" x2="760.89" y2="454.49" gradientUnits="userSpaceOnUse"><stop offset="0.06" stop-color="#fed78c"/><stop offset="0.98" stop-color="#febe42"/></linearGradient><linearGradient id="Degradado_sin_nombre_2-2" x1="688.29" y1="434.39" x2="745.51" y2="491.61" xlink:href="#Degradado_sin_nombre_2"/><linearGradient id="Degradado_sin_nombre_3" x1="655.89" y1="436.12" x2="738.44" y2="436.12" gradientUnits="userSpaceOnUse"><stop offset="0.14" stop-color="#cef4ff"/><stop offset="0.6" stop-color="#27d0ff"/></linearGradient><linearGradient id="Degradado_sin_nombre_3-2" x1="662.42" y1="456.68" x2="757.2" y2="456.68" xlink:href="#Degradado_sin_nombre_3"/><linearGradient id="Degradado_sin_nombre_3-3" x1="684.5" y1="483.69" x2="760.55" y2="483.69" xlink:href="#Degradado_sin_nombre_3"/><linearGradient id="Degradado_sin_nombre_3-4" x1="674.02" y1="420.11" x2="710.83" y2="456.93" xlink:href="#Degradado_sin_nombre_3"/><linearGradient id="Degradado_sin_nombre_3-5" x1="678.87" y1="429.53" x2="713.11" y2="429.53" xlink:href="#Degradado_sin_nombre_3"/><linearGradient id="Degradado_sin_nombre_3-6" x1="671.88" y1="452.34" x2="690.28" y2="452.34" xlink:href="#Degradado_sin_nombre_3"/><radialGradient id="Degradado_sin_nombre_35-3" cx="346.34" cy="659.79" r="33.96" gradientTransform="matrix(0.8, 0.6, -0.6, 0.8, 453.14, -81.12)" xlink:href="#Degradado_sin_nombre_35"/><linearGradient id="Degradado_sin_nombre_2-3" x1="319.37" y1="659.79" x2="373.32" y2="659.79" gradientTransform="matrix(0.8, 0.6, -0.6, 0.8, 453.14, -81.12)" xlink:href="#Degradado_sin_nombre_2"/><linearGradient id="Degradado_sin_nombre_2-4" x1="336.02" y1="649.47" x2="365.41" y2="678.87" gradientTransform="matrix(0.8, 0.6, -0.6, 0.8, 453.14, -81.12)" xlink:href="#Degradado_sin_nombre_2"/><linearGradient id="Degradado_sin_nombre_3-7" x1="319.37" y1="650.36" x2="361.78" y2="650.36" gradientTransform="matrix(0.8, 0.6, -0.6, 0.8, 453.14, -81.12)" xlink:href="#Degradado_sin_nombre_3"/><linearGradient id="Degradado_sin_nombre_3-8" x1="322.73" y1="660.92" x2="371.42" y2="660.92" gradientTransform="matrix(0.8, 0.6, -0.6, 0.8, 453.14, -81.12)" xlink:href="#Degradado_sin_nombre_3"/><linearGradient id="Degradado_sin_nombre_3-9" x1="334.07" y1="674.8" x2="373.14" y2="674.8" gradientTransform="matrix(0.8, 0.6, -0.6, 0.8, 453.14, -81.12)" xlink:href="#Degradado_sin_nombre_3"/><linearGradient id="Degradado_sin_nombre_3-10" x1="328.68" y1="642.13" x2="347.6" y2="661.05" gradientTransform="matrix(0.8, 0.6, -0.6, 0.8, 453.14, -81.12)" xlink:href="#Degradado_sin_nombre_3"/><linearGradient id="Degradado_sin_nombre_3-11" x1="331.18" y1="646.97" x2="348.77" y2="646.97" gradientTransform="matrix(0.8, 0.6, -0.6, 0.8, 453.14, -81.12)" xlink:href="#Degradado_sin_nombre_3"/><linearGradient id="Degradado_sin_nombre_3-12" x1="327.59" y1="658.69" x2="337.04" y2="658.69" gradientTransform="matrix(0.8, 0.6, -0.6, 0.8, 453.14, -81.12)" xlink:href="#Degradado_sin_nombre_3"/></defs><g class="cls-2"><g id="Layer_2" data-name="Layer 2"><g id="Layer_1-2" data-name="Layer 1"><circle class="cls-3" cx="695.21" cy="569.12" r="1.95"/><circle class="cls-3" cx="673.09" cy="571.08" r="2.6"/><circle class="cls-3" cx="565.06" cy="589.3" r="1.3"/><circle class="cls-3" cx="648.36" cy="798.19" r="1.95"/><circle class="cls-3" cx="796.73" cy="769.56" r="1.95"/><circle class="cls-3" cx="663.65" cy="863.59" r="2.93"/><circle class="cls-3" cx="744.99" cy="836.91" r="2.28"/><circle class="cls-3" cx="722.22" cy="693.09" r="2.28"/><circle class="cls-3" cx="887.83" cy="539.84" r="1.3"/><circle class="cls-3" cx="825.69" cy="430.19" r="2.28"/><circle class="cls-3" cx="738.16" cy="366.09" r="2.6"/><circle class="cls-3" cx="568.31" cy="441.58" r="2.6"/><circle class="cls-3" cx="600.53" cy="331.27" r="2.93"/><circle class="cls-3" cx="550.42" cy="307.85" r="0.98"/><circle class="cls-3" cx="628.51" cy="329.32" r="0.98"/><circle class="cls-3" cx="407.9" cy="223.25" r="0.98"/><circle class="cls-3" cx="371.46" cy="233.66" r="0.98"/><circle class="cls-3" cx="348.36" cy="308.17" r="2.6"/><circle class="cls-3" cx="340.55" cy="373.9" r="0.65"/><circle class="cls-3" cx="209.1" cy="258.71" r="0.65"/><circle class="cls-3" cx="247.49" cy="199.49" r="0.65"/><path class="cls-3" d="M283.08,236.87h0Z" transform="translate(-70.73 198.84)"/><circle class="cls-3" cx="327.86" cy="434.74" r="1.63"/><circle class="cls-3" cx="177.21" cy="479.97" r="1.3"/><circle class="cls-3" cx="258.56" cy="532.03" r="1.95"/><circle class="cls-3" cx="46.73" cy="542.77" r="0.98"/><circle class="cls-3" cx="10.94" cy="607.19" r="1.63"/><circle class="cls-3" cx="284.59" cy="627.04" r="1.3"/><circle class="cls-3" cx="167.12" cy="596.78" r="0.98"/><circle class="cls-3" cx="28.51" cy="741.9" r="0.98"/><circle class="cls-3" cx="346.08" cy="829.1" r="1.63"/><circle class="cls-3" cx="338.27" cy="698.95" r="2.28"/><circle class="cls-3" cx="239.68" cy="885.39" r="1.95"/><circle class="cls-3" cx="371.79" cy="925.09" r="1.95"/><circle class="cls-3" cx="295.32" cy="843.42" r="1.63"/><path class="cls-3" d="M235.36,156.18a2.17,2.17,0,1,1-2.17-2.17A2.17,2.17,0,0,1,235.36,156.18Z" transform="translate(-70.73 198.84)"/><path class="cls-3" d="M309.11,465.51a1.74,1.74,0,1,1-1.73-1.74A1.73,1.73,0,0,1,309.11,465.51Z" transform="translate(-70.73 198.84)"/><circle class="cls-3" cx="860.5" cy="542.88" r="2.6"/><circle class="cls-3" cx="44.02" cy="681.7" r="2.6"/><path class="cls-3" d="M359.44,138.83a3,3,0,1,1-3-3A3,3,0,0,1,359.44,138.83Z" transform="translate(-70.73 198.84)"/><circle class="cls-3" cx="200.2" cy="451.77" r="1.74"/><g class="cls-4"><circle class="cls-5" cx="479.52" cy="451.75" r="451.25"/><circle class="cls-5" cx="479.52" cy="451.75" r="345.81"/><circle class="cls-5" cx="479.52" cy="451.75" r="261.71"/></g><path d="M338.38,416.2a44.1,44.1,0,1,1,44.12-43.91A44.13,44.13,0,0,1,338.38,416.2Zm-28.69-15.94.18-.1a27.84,27.84,0,0,1,6-3.11c2.66-1,5.35-2,8-3a11,11,0,0,0,3.91-2.35,2.57,2.57,0,0,0,.88-1.9c0-1.66.05-3.31.06-5a.87.87,0,0,0-.23-.54,18.37,18.37,0,0,1-3.94-6.69,3.47,3.47,0,0,0-1.27-2,4.21,4.21,0,0,1-1.08-1.28,9.1,9.1,0,0,1-1.18-3.37,6.56,6.56,0,0,1,.86-5.17.73.73,0,0,0,.05-.49c-.21-1.11-.46-2.21-.64-3.32a27.51,27.51,0,0,1,0-10.81,13.53,13.53,0,0,1,7.93-9.93,21.68,21.68,0,0,1,12.37-1.48,9.17,9.17,0,0,1,5.61,2.81,1,1,0,0,0,.51.22,10,10,0,0,1,6.53,4.65,14.3,14.3,0,0,1,1.85,6A31.78,31.78,0,0,1,355,364.68a1.91,1.91,0,0,0,.18,1.82,4.24,4.24,0,0,1,.52,1.42,7.57,7.57,0,0,1-.11,3.51,7,7,0,0,1-2.88,4.8.81.81,0,0,0-.27.42,18.63,18.63,0,0,1-4.21,7.6,1,1,0,0,0-.26.59c0,1.55.05,3.1,0,4.65a3.06,3.06,0,0,0,1.27,2.54,5.83,5.83,0,0,0,1.21.84c1.63.75,3.26,1.49,4.92,2.16,2.71,1.09,5.47,2.07,8.16,3.2a35.53,35.53,0,0,1,3.56,2,40.26,40.26,0,1,0-57.47.06Z" transform="translate(-70.73 198.84)"/><path d="M864.38,436.1a27.6,27.6,0,1,1,9.07-37.89A27.62,27.62,0,0,1,864.38,436.1Zm-20.53.93.07-.11a17.69,17.69,0,0,1,2.19-3.64c1.09-1.42,2.21-2.81,3.28-4.23a6.93,6.93,0,0,0,1.32-2.54,1.65,1.65,0,0,0-.16-1.3c-.55-.88-1.06-1.78-1.6-2.66a.55.55,0,0,0-.3-.22,11.49,11.49,0,0,1-4.3-2.27,2.11,2.11,0,0,0-1.31-.61,2.64,2.64,0,0,1-1-.34,5.87,5.87,0,0,1-1.74-1.4,4.12,4.12,0,0,1-1.24-3,.43.43,0,0,0-.13-.28c-.48-.52-1-1-1.43-1.55a17.22,17.22,0,0,1-3.53-5.78,8.44,8.44,0,0,1,1-7.89,13.51,13.51,0,0,1,6.1-4.85,5.67,5.67,0,0,1,3.91-.35.63.63,0,0,0,.35-.05,6.27,6.27,0,0,1,5,.33,8.71,8.71,0,0,1,3,2.6,19.7,19.7,0,0,1,3.08,6.33,1.19,1.19,0,0,0,.69.91,2.44,2.44,0,0,1,.74.59,4.84,4.84,0,0,1,1.1,1.9,4.42,4.42,0,0,1,0,3.51.47.47,0,0,0,0,.31,11.87,11.87,0,0,1,.25,5.43.61.61,0,0,0,.05.4c.51.83,1,1.63,1.54,2.47a1.91,1.91,0,0,0,1.52.93,3.56,3.56,0,0,0,.92.05c1.11-.13,2.22-.28,3.33-.47,1.8-.31,3.59-.69,5.4-1a23.62,23.62,0,0,1,2.54-.12A25.2,25.2,0,1,0,843.85,437Z" transform="translate(-70.73 198.84)"/><path d="M583.92,651.25a62.95,62.95,0,1,1,84-29.12A63,63,0,0,1,583.92,651.25Zm-27-38.3a1.31,1.31,0,0,0,.28,0,40,40,0,0,1,9.71-.25c4.05.34,8.1.79,12.15,1.1a15.51,15.51,0,0,0,6.49-.6,3.63,3.63,0,0,0,2.31-1.89c1-2.13,2.12-4.22,3.16-6.35a1.27,1.27,0,0,0,0-.84,26.45,26.45,0,0,1-.91-11,4.93,4.93,0,0,0-.43-3.29,6.21,6.21,0,0,1-.59-2.32,13.17,13.17,0,0,1,.57-5.06,9.39,9.39,0,0,1,4.31-6.12,1,1,0,0,0,.37-.6c.42-1.56.78-3.13,1.23-4.67a39.51,39.51,0,0,1,6.76-13.88c4.19-5.22,9.58-8.07,16.36-7.84a30.87,30.87,0,0,1,16.81,5.77,12.93,12.93,0,0,1,5.47,7.08,1.48,1.48,0,0,0,.52.6,14.23,14.23,0,0,1,5.51,10,20.24,20.24,0,0,1-1.34,8.88,45.16,45.16,0,0,1-8.4,13.68,2.76,2.76,0,0,0-.91,2.45,5.66,5.66,0,0,1-.2,2.15,11,11,0,0,1-2.32,4.45c-1.73,2.21-3.72,4-6.68,4.38a1.09,1.09,0,0,0-.6.38,26.71,26.71,0,0,1-10.13,7.15,1.53,1.53,0,0,0-.7.6c-1,2-1.86,4-2.85,6a4.36,4.36,0,0,0,.06,4.05,8.66,8.66,0,0,0,1,1.83c1.63,2,3.27,3.94,5,5.83,2.81,3.08,5.74,6,8.5,9.17a52.4,52.4,0,0,1,3.36,4.74c17.68-6,34.45-23.06,37.49-46.92a57.5,57.5,0,0,0-98.06-47.35C553.44,571.52,550.51,595.26,556.91,613Z" transform="translate(-70.73 198.84)"/><path d="M103.2,258.41a27.86,27.86,0,1,1,22.9-32A27.9,27.9,0,0,1,103.2,258.41Zm-19.55-6.94.1-.08a18.35,18.35,0,0,1,3.44-2.57c1.56-.91,3.13-1.78,4.68-2.7a6.94,6.94,0,0,0,2.19-1.88,1.57,1.57,0,0,0,.35-1.27c-.18-1-.31-2.07-.48-3.1a.57.57,0,0,0-.2-.32,11.65,11.65,0,0,1-3.15-3.76,2.17,2.17,0,0,0-1-1.07,2.77,2.77,0,0,1-.8-.69,5.73,5.73,0,0,1-1.09-2,4.14,4.14,0,0,1,0-3.31.42.42,0,0,0,0-.31c-.24-.67-.51-1.33-.74-2a17.47,17.47,0,0,1-1.1-6.75,8.53,8.53,0,0,1,3.9-7,13.67,13.67,0,0,1,7.55-2.21,5.75,5.75,0,0,1,3.79,1.16.56.56,0,0,0,.34.08,6.31,6.31,0,0,1,4.56,2.22,9,9,0,0,1,1.78,3.55,20.21,20.21,0,0,1,.46,7.1,1.2,1.2,0,0,0,.3,1.11,2.73,2.73,0,0,1,.48.83,4.84,4.84,0,0,1,.29,2.2A4.44,4.44,0,0,1,108,232a.48.48,0,0,0-.12.29,11.91,11.91,0,0,1-1.84,5.18.61.61,0,0,0-.09.39c.15,1,.35,1.93.5,2.9a2,2,0,0,0,1,1.45,3.84,3.84,0,0,0,.85.39c1.09.3,2.18.59,3.29.83,1.8.4,3.62.72,5.41,1.15a21.89,21.89,0,0,1,2.43.85,25.44,25.44,0,1,0-35.81,6Z" transform="translate(-70.73 198.84)"/><path d="M185.68,562.26a33.26,33.26,0,1,1,40.35-24A33.3,33.3,0,0,1,185.68,562.26Zm-18.06-17,.15,0a21.42,21.42,0,0,1,5-1.16c2.14-.26,4.28-.45,6.41-.72a8.38,8.38,0,0,0,3.3-1,1.92,1.92,0,0,0,1-1.23c.3-1.21.65-2.41,1-3.62a.68.68,0,0,0-.07-.44,13.94,13.94,0,0,1-1.65-5.62,2.65,2.65,0,0,0-.57-1.66,3.13,3.13,0,0,1-.55-1.13,6.94,6.94,0,0,1-.25-2.68,5,5,0,0,1,1.58-3.63A.57.57,0,0,0,183,522c.05-.85.07-1.7.14-2.55a20.88,20.88,0,0,1,2-7.9,10.21,10.21,0,0,1,7.63-5.8,16.3,16.3,0,0,1,9.32,1.2,6.8,6.8,0,0,1,3.58,3.08.83.83,0,0,0,.34.26,7.56,7.56,0,0,1,3.92,4.6,10.69,10.69,0,0,1,.24,4.74,23.83,23.83,0,0,1-2.88,8,1.43,1.43,0,0,0-.21,1.37,3.28,3.28,0,0,1,.12,1.14,5.82,5.82,0,0,1-.73,2.54,5.28,5.28,0,0,1-3,3,.57.57,0,0,0-.27.26,14.14,14.14,0,0,1-4.48,4.78.77.77,0,0,0-.3.39c-.29,1.13-.53,2.27-.84,3.4a2.31,2.31,0,0,0,.47,2.09,4.2,4.2,0,0,0,.73.84c1.05.85,2.11,1.69,3.2,2.49,1.78,1.29,3.62,2.51,5.38,3.84a27.59,27.59,0,0,1,2.24,2.1,30.37,30.37,0,1,0-42-10.54Z" transform="translate(-70.73 198.84)"/><path d="M1016.3,262.37a40.35,40.35,0,1,1,27-50.15A40.4,40.4,0,0,1,1016.3,262.37ZM986.94,256l.13-.13a25.75,25.75,0,0,1,4.47-4.32c2.06-1.6,4.17-3.14,6.22-4.75a10,10,0,0,0,2.81-3.1,2.36,2.36,0,0,0,.27-1.89c-.45-1.45-.83-2.92-1.26-4.37a.84.84,0,0,0-.35-.42A16.91,16.91,0,0,1,994,232.2a3.14,3.14,0,0,0-1.63-1.37,4,4,0,0,1-1.28-.84,8.26,8.26,0,0,1-1.93-2.64,6,6,0,0,1-.62-4.75.61.61,0,0,0-.08-.45c-.48-.92-1-1.81-1.44-2.74a25.27,25.27,0,0,1-2.83-9.48,12.41,12.41,0,0,1,4.33-10.8A19.79,19.79,0,0,1,999,194.57a8.28,8.28,0,0,1,5.65,1,1,1,0,0,0,.51.06,9.14,9.14,0,0,1,7,2.35,12.82,12.82,0,0,1,3.21,4.77,28.94,28.94,0,0,1,2,10.11,1.74,1.74,0,0,0,.63,1.54,3.58,3.58,0,0,1,.84,1.11,7,7,0,0,1,.83,3.1,6.42,6.42,0,0,1-1.26,5,.65.65,0,0,0-.11.44,17.1,17.1,0,0,1-1.69,7.77.86.86,0,0,0-.06.59c.4,1.36.86,2.7,1.25,4.06a2.81,2.81,0,0,0,1.78,1.89,6.08,6.08,0,0,0,1.29.42c1.62.22,3.25.44,4.88.58,2.66.24,5.33.37,8,.65a31.57,31.57,0,0,1,3.64.79A36.84,36.84,0,1,0,986.94,256Z" transform="translate(-70.73 198.84)"/><g class="cls-6"><path d="M780.57,177a39.09,39.09,0,1,1,49.71-24A39.13,39.13,0,0,1,780.57,177Zm-19.4-21.69.17,0a25.08,25.08,0,0,1,6-.85c2.53-.08,5.05-.09,7.58-.19a9.67,9.67,0,0,0,4-.83,2.29,2.29,0,0,0,1.29-1.33c.47-1.39,1-2.76,1.49-4.15a.78.78,0,0,0,0-.52,16.33,16.33,0,0,1-1.36-6.75,3,3,0,0,0-.5-2,3.94,3.94,0,0,1-.53-1.39,8.39,8.39,0,0,1,0-3.16,5.84,5.84,0,0,1,2.22-4.08.63.63,0,0,0,.19-.4c.15-1,.26-2,.43-3a24.48,24.48,0,0,1,3.18-9,12,12,0,0,1,9.53-6A19.25,19.25,0,0,1,805.54,114a8.08,8.08,0,0,1,3.88,4,.83.83,0,0,0,.36.33,8.91,8.91,0,0,1,4.12,5.8,12.48,12.48,0,0,1-.2,5.57,28.05,28.05,0,0,1-4.2,9,1.71,1.71,0,0,0-.39,1.58,3.54,3.54,0,0,1,0,1.34,6.81,6.81,0,0,1-1.11,2.91,6.19,6.19,0,0,1-3.81,3.18.72.72,0,0,0-.35.28,16.73,16.73,0,0,1-5.73,5.14.84.84,0,0,0-.39.42c-.46,1.29-.86,2.61-1.33,3.9a2.66,2.66,0,0,0,.33,2.49,5.42,5.42,0,0,0,.77,1.06c1.14,1.1,2.3,2.19,3.49,3.24,2,1.7,4,3.32,5.9,5.05a31,31,0,0,1,2.41,2.69,35.7,35.7,0,1,0-48.15-16.66Z" transform="translate(-70.73 198.84)"/></g><path class="cls-7" d="M774.5,454.49a66.44,66.44,0,0,1-3.28,20.5,66,66,0,0,1-58.92,45.47c-1.29.09-2.6.14-3.91.14a66.21,66.21,0,0,1-49.5-22.31A66.27,66.27,0,0,1,644,469.22a65.09,65.09,0,0,1-1.67-14.73,66.12,66.12,0,0,1,91.65-61,66.08,66.08,0,0,1,28.32,22.69,62.74,62.74,0,0,1,7.59,13.94A65.5,65.5,0,0,1,774.5,454.49Z" transform="translate(-70.73 198.84)"/><path class="cls-7" d="M774.5,454.49a66.44,66.44,0,0,1-3.28,20.5,66,66,0,0,1-58.92,45.47c-1.29.09-2.6.14-3.91.14a66.21,66.21,0,0,1-49.5-22.31A66.27,66.27,0,0,1,644,469.22a65.09,65.09,0,0,1-1.67-14.73,66.12,66.12,0,0,1,91.65-61,66.08,66.08,0,0,1,28.32,22.69,62.74,62.74,0,0,1,7.59,13.94A65.5,65.5,0,0,1,774.5,454.49Z" transform="translate(-70.73 198.84)"/><path class="cls-8" d="M760.89,454.49a48.06,48.06,0,0,1-.34,5.9,49.85,49.85,0,0,1-2.26,10.38,52.43,52.43,0,0,1-46.79,36.11c-1,.07-2.07.11-3.11.11a52.51,52.51,0,0,1-39.31-17.72,52.4,52.4,0,0,1-11.86-23.08,51.37,51.37,0,0,1-1.33-11.7,52.49,52.49,0,0,1,72.78-48.43,51.48,51.48,0,0,1,9.77,5.38,52.17,52.17,0,0,1,12.73,12.64,50.94,50.94,0,0,1,6,11.07A52.24,52.24,0,0,1,760.89,454.49Z" transform="translate(-70.73 198.84)"/><path class="cls-9" d="M760.89,454.49a48.06,48.06,0,0,1-.34,5.9,49.85,49.85,0,0,1-2.26,10.38,52.43,52.43,0,0,1-46.79,36.11c-1,.07-2.07.11-3.11.11a52.51,52.51,0,0,1-39.31-17.72,52.4,52.4,0,0,1-11.86-23.08c-.06-.2-.09-.4-.13-.59a52.59,52.59,0,0,0,30.35,9.67c1,0,2.09,0,3.11-.11a52.41,52.41,0,0,0,46.79-36.11A52.48,52.48,0,0,0,740,422.77a52.55,52.55,0,0,0-1.19-11.09,52,52,0,0,1,12.41,12.4,50.94,50.94,0,0,1,6,11.07A52.24,52.24,0,0,1,760.89,454.49Z" transform="translate(-70.73 198.84)"/><g class="cls-10"><path class="cls-11" d="M738.44,411.44c-13.46,9.09-19.6,27.05-33.6,35.58-7.15,4.36-15.66,5.8-23.82,7.65s-16.64,4.41-22.57,10.33c-.39.4-.8.83-1.23,1.19a51.37,51.37,0,0,1-1.33-11.7,52.37,52.37,0,0,1,3-17.52,29.28,29.28,0,0,1,4.5-.38,51.19,51.19,0,0,1,11,1c3.16.65,6.26,1.6,9.48,1.76,8.13.41,15.69-4.33,21.47-10.05s10.39-12.57,16.35-18.11a38.3,38.3,0,0,1,6.94-5.17A51.48,51.48,0,0,1,738.44,411.44Z" transform="translate(-70.73 198.84)"/><path class="cls-12" d="M757.2,435.15a8.77,8.77,0,0,1-.88,1.85c-6.73,10.5-14.67,20.41-24.65,27.92s-22.11,12.51-34.59,12.47a36.93,36.93,0,0,0-6.73.23c-3.25.6-6.16,2.36-9,4.1q-6.15,3.79-12.3,7.55a50.26,50.26,0,0,1-6.66-9.44,19.93,19.93,0,0,1,6.93-3.8c11.42-4,24-4.46,34.73-10,13.73-7.12,22.08-21.25,32.89-32.31,4-4.09,8.86-7.95,14.2-9.6A50.94,50.94,0,0,1,757.2,435.15Z" transform="translate(-70.73 198.84)"/><path class="cls-13" d="M760.55,460.39a49.85,49.85,0,0,1-2.26,10.38c-12.37,13-27.41,23.35-42.25,33.55a30.73,30.73,0,0,1-4.54,2.56c-1,.07-2.07.11-3.11.11a51.89,51.89,0,0,1-23.89-5.76c3.43-5.23,9.15-9,15.08-11.31,7.59-3,15.74-4.13,23.55-6.48C737.31,479.15,750,470.87,760.55,460.39Z" transform="translate(-70.73 198.84)"/></g><path class="cls-14" d="M745.08,422.61a44.72,44.72,0,0,0-4.07-3.2,48.74,48.74,0,0,0-9-5,48.6,48.6,0,0,0-67.4,44.84,48.51,48.51,0,0,0,12,31.93,47.45,47.45,0,0,1-4.56-4.52,48.85,48.85,0,0,1-11-21.36,48.62,48.62,0,0,1,66.17-55.68,46.47,46.47,0,0,1,9,5A47,47,0,0,1,745.08,422.61Z" transform="translate(-70.73 198.84)"/><path class="cls-15" d="M692.73,420.38c4.87-2.93,10.74-5.46,16.09-3.54a6.09,6.09,0,0,1,2.5,1.53,6,6,0,0,1,1.24,2.22c1.27,3.77.21,8.06-2.08,11.32a24.44,24.44,0,0,1-9.25,7.36c-4.68,2.35-19.9,7.23-22.12-.85C677.14,431.26,687.79,423.36,692.73,420.38Z" transform="translate(-70.73 198.84)"/><path class="cls-16" d="M687.93,448.11a7.85,7.85,0,0,1,2.31,4.57,5.82,5.82,0,0,1-1.6,4.79c-1.8,1.75-4.58,1.9-7.1,1.91-5.28,0-12.46-3.59-8.53-9.76A9.74,9.74,0,0,1,687.93,448.11Z" transform="translate(-70.73 198.84)"/><path class="cls-17" d="M365.7,675.39a30.29,30.29,0,0,1-2.45,2.94,32.47,32.47,0,0,1-5.17,4.52,33.93,33.93,0,0,1-38.23.74q-.84-.54-1.65-1.14a34,34,0,0,1-13.61-24.35,34.06,34.06,0,0,1,2.73-16.57,33.39,33.39,0,0,1,3.82-6.59,34,34,0,0,1,56.48,2.87,33.92,33.92,0,0,1,4.74,18,32.08,32.08,0,0,1-1.13,8.08A33.52,33.52,0,0,1,365.7,675.39Z" transform="translate(-70.73 198.84)"/><path class="cls-17" d="M365.7,675.39a30.29,30.29,0,0,1-2.45,2.94,32.47,32.47,0,0,1-5.17,4.52,33.93,33.93,0,0,1-38.23.74q-.84-.54-1.65-1.14a34,34,0,0,1-13.61-24.35,34.06,34.06,0,0,1,2.73-16.57,33.39,33.39,0,0,1,3.82-6.59,34,34,0,0,1,56.48,2.87,33.92,33.92,0,0,1,4.74,18,32.08,32.08,0,0,1-1.13,8.08A33.52,33.52,0,0,1,365.7,675.39Z" transform="translate(-70.73 198.84)"/><path class="cls-18" d="M360.09,671.23a25.86,25.86,0,0,1-1.95,2.33,24.9,24.9,0,0,1-4.11,3.59,26.93,26.93,0,0,1-30.36.59c-.44-.28-.88-.59-1.31-.91a26.76,26.76,0,0,1-8.1-9.68,26.49,26.49,0,0,1-2.7-9.66,25,25,0,0,1,.14-5.93,25.86,25.86,0,0,1,2-7.22,26.29,26.29,0,0,1,3-5.24,27,27,0,0,1,37.74-5.6,27,27,0,0,1,10.89,22.2,25.9,25.9,0,0,1-.9,6.42A26.64,26.64,0,0,1,360.09,671.23Z" transform="translate(-70.73 198.84)"/><path class="cls-19" d="M360.09,671.23a25.86,25.86,0,0,1-1.95,2.33,24.9,24.9,0,0,1-4.11,3.59,26.93,26.93,0,0,1-30.36.59c-.44-.28-.88-.59-1.31-.91a26.76,26.76,0,0,1-8.1-9.68,26.49,26.49,0,0,1-2.7-9.66,25,25,0,0,1,.14-5.93,25.86,25.86,0,0,1,2-7.22c0-.1.09-.19.13-.28a27.07,27.07,0,0,0,1.47,3.59,26.66,26.66,0,0,0,8.1,9.68c.43.32.87.63,1.31.91a26.93,26.93,0,0,0,30.36-.59,24.9,24.9,0,0,0,4.11-3.59,25.86,25.86,0,0,0,1.95-2.33,26.93,26.93,0,0,0,2.9-4.94,26.47,26.47,0,0,1,1.33,8.91,25.9,25.9,0,0,1-.9,6.42A26.64,26.64,0,0,1,360.09,671.23Z" transform="translate(-70.73 198.84)"/><g class="cls-10"><path class="cls-20" d="M364,646.59c-8.33-.37-16.36,5.17-24.75,4.41-4.28-.39-8.23-2.4-12.17-4.14s-8.22-3.26-12.47-2.63c-.29,0-.59.09-.88.11a26.29,26.29,0,0,1,3-5.24,27.19,27.19,0,0,1,6.6-6.31,15.48,15.48,0,0,1,2,1.22,25.94,25.94,0,0,1,4.23,3.81,33.14,33.14,0,0,0,3.38,3.62c3.23,2.66,7.79,3,11.93,2.42s8.14-2,12.29-2.47a20.68,20.68,0,0,1,4.45,0A27.16,27.16,0,0,1,364,646.59Z" transform="translate(-70.73 198.84)"/><path class="cls-21" d="M364.48,662.12a4.61,4.61,0,0,1-.93.49,54,54,0,0,1-18.71,4c-6.41,0-13-1.6-18.09-5.43a19.81,19.81,0,0,0-2.85-2,13.84,13.84,0,0,0-5-1.05c-2.46-.21-4.92-.42-7.38-.65a25,25,0,0,1,.14-5.93,10.31,10.31,0,0,1,4,.55c5.92,1.86,11.27,5.51,17.4,6.49,7.85,1.26,15.62-2,23.46-3.28a18.39,18.39,0,0,1,8.8.38A25.9,25.9,0,0,1,364.48,662.12Z" transform="translate(-70.73 198.84)"/><path class="cls-22" d="M358.14,673.56a24.9,24.9,0,0,1-4.11,3.59c-9.07,1.57-18.45,1.25-27.7.92a14.88,14.88,0,0,1-2.66-.33c-.44-.28-.88-.59-1.31-.91a26.76,26.76,0,0,1-8.1-9.68,16.3,16.3,0,0,1,9.68-.06c4.05,1.1,7.76,3.11,11.71,4.53A46.81,46.81,0,0,0,358.14,673.56Z" transform="translate(-70.73 198.84)"/></g><path class="cls-23" d="M363.32,653.23a20.65,20.65,0,0,0-.71-2.56,24.38,24.38,0,0,0-2.21-4.82,24.72,24.72,0,0,0-6.59-7.31,25,25,0,0,0-34.94,5.19,23.91,23.91,0,0,0-2.8,4.85,24.18,24.18,0,0,0-1.89,6.68,24.92,24.92,0,0,0-.14,5.32,25.38,25.38,0,0,1-.49-3.26,23.45,23.45,0,0,1,.13-5.49,23.86,23.86,0,0,1,1.87-6.69,25,25,0,0,1,44.34-2.73,24.12,24.12,0,0,1,2.21,4.82A24.7,24.7,0,0,1,363.32,653.23Z" transform="translate(-70.73 198.84)"/><path class="cls-24" d="M342.39,636.3c2.91.28,6.11,1,7.73,3.46a3.11,3.11,0,0,1,.56,1.4,3,3,0,0,1-.17,1.29,6.61,6.61,0,0,1-4.32,4,12.58,12.58,0,0,1-6.07.22c-2.65-.47-10.42-3.11-8.87-7.12C332.63,636,339.44,636,342.39,636.3Z" transform="translate(-70.73 198.84)"/><path class="cls-25" d="M331.93,646.27a4,4,0,0,1-.45,2.6,2.94,2.94,0,0,1-2.12,1.48,5.1,5.1,0,0,1-3.51-1.38c-2.19-1.61-4.05-5.29-.54-6.64A5,5,0,0,1,331.93,646.27Z" transform="translate(-70.73 198.84)"/></g></g></g></svg>