<?xml version="1.0" standalone="yes"?>
<svg xmlns="http://www.w3.org/2000/svg" width="412" height="137">
<path style="fill:#252525; stroke:none;" d="M0 0L0 137L412 137L412 0L0 0z"/>
<path style="fill:#7c796e; stroke:none;" d="M202.667 24.3333L203.333 24.6667L202.667 24.3333M193 25L193 26L196 26L193 25z"/>
<path style="fill:#e3ce83; stroke:none;" d="M196.667 25.3333L197.333 25.6667L196.667 25.3333z"/>
<path style="fill:#f4d243; stroke:none;" d="M198 25.4282C187.033 26.9987 177.011 30.9421 169.174 39.0903C140.099 69.3186 165.805 123.194 208 117.711C215.947 116.678 223.419 114.182 230 109.56C267.505 83.223 244.737 18.7356 198 25.4282z"/>
<path style="fill:#e3ce83; stroke:none;" d="M208.667 25.3333L209.333 25.6667L208.667 25.3333z"/>
<path style="fill:#7c796e; stroke:none;" d="M210 25L210 26L213 26L210 25M189.667 26.3333L190.333 26.6667L189.667 26.3333z"/>
<path style="fill:#e3ce83; stroke:none;" d="M191 26L192 27L191 26M214 26L215 27L214 26z"/>
<path style="fill:#7c796e; stroke:none;" d="M215.667 26.3333L216.333 26.6667L215.667 26.3333M186.667 27.3333L187.333 27.6667L186.667 27.3333M218 27L219 28L218 27M184 28L185 29L184 28z"/>
<path style="fill:#e3ce83; stroke:none;" d="M220 28L221 29L220 28z"/>
<path style="fill:#7c796e; stroke:none;" d="M221 28L222 29L221 28M182 29L183 30L182 29M223 29L224 30L223 29M53 30L53 31L56 31L53 30z"/>
<path style="fill:#e3ce83; stroke:none;" d="M56 30L56 31L64 31L56 30z"/>
<path style="fill:#7c796e; stroke:none;" d="M64 30L64 31L68 31L64 30M124 30L124 31L127 31L124 30z"/>
<path style="fill:#e3ce83; stroke:none;" d="M127 30L127 31L136 31L127 30z"/>
<path style="fill:#7c796e; stroke:none;" d="M136 30L136 31L139 31L136 30M180 30L181 31L180 30M225 30L226 31L225 30M48 31L49 32L48 31z"/>
<path style="fill:#e3ce83; stroke:none;" d="M49.6667 31.3333L50.3333 31.6667L49.6667 31.3333z"/>
<path style="fill:#faf9f6; stroke:none;" d="M31 96C31.0003 98.7413 30.2698 102.965 32.0278 105.297C34.5762 108.678 41.2174 108.701 45 109.155C56.5094 110.537 73.352 109.575 78.517 96.9992C89.1434 71.1254 52.6654 70.4525 42.8935 55.9066C38.7827 49.7875 43.1169 43.3877 49 40.5725C58.2444 36.149 68.069 40.4518 77 43L77 33C65.6034 30.649 52.914 29.1145 42 34.3279C31.5851 39.3029 27.2724 52.3982 34.5579 61.9846C42.976 73.0612 64.2318 73.3781 69.2539 87C71.5112 93.1229 66.3474 98.5511 61 100.597C50.6482 104.558 40.6463 99.2357 31 96z"/>
<path style="fill:#e3ce83; stroke:none;" d="M70.6667 31.3333L71.3333 31.6667L70.6667 31.3333z"/>
<path style="fill:#7c796e; stroke:none;" d="M72 31L73 32L72 31M119 31L120 32L119 31z"/>
<path style="fill:#e3ce83; stroke:none;" d="M120.667 31.3333L121.333 31.6667L120.667 31.3333z"/>
<path style="fill:#faf9f6; stroke:none;" d="M150 97C142.873 99.7491 135.766 102.275 128 101.96C100.569 100.847 90.0307 65.3344 109.093 47.1852C120.575 36.2534 136.376 37.752 150 43L150 33C135.768 31.1622 121.109 28.5665 108 36.4792C87.0228 49.1407 82.0592 85.4341 102.015 101.481C113.009 110.323 149.984 117.679 150 97z"/>
<path style="fill:#e3ce83; stroke:none;" d="M141.667 31.3333L142.333 31.6667L141.667 31.3333z"/>
<path style="fill:#7c796e; stroke:none;" d="M143.667 31.3333L144.333 31.6667L143.667 31.3333M178 31L179 32L178 31M227 31L228 32L227 31M257 31L257 32L267 32L267 80L268 44L266.972 32.6034L257 31M308 83L309 83L309 32L319 32C316.166 30.8108 310.319 29.8312 308.603 33.3179C306.732 37.122 308 43.8453 308 48L308 83M328 31L328 32L386 32L367 31L328 31M45 32L46 33L45 32z"/>
<path style="fill:#e3ce83; stroke:none;" d="M46 32L47 33L46 32M74 32L75 33L74 32z"/>
<path style="fill:#7c796e; stroke:none;" d="M75 32L76 33L75 32M116 32L117 33L116 32z"/>
<path style="fill:#e3ce83; stroke:none;" d="M117 32L118 33L117 32M146 32L147 33L146 32z"/>
<path style="fill:#7c796e; stroke:none;" d="M147.667 32.3333L148.333 32.6667L147.667 32.3333z"/>
<path style="fill:#e3ce83; stroke:none;" d="M177 32L178 33L177 32z"/>
<path style="fill:#7c796e; stroke:none;" d="M228 32L229 33L228 32z"/>
<path style="fill:#e3ce83; stroke:none;" d="M257 32L257 82L258 82C258 67.9506 262.409 44.8897 257 32z"/>
<path style="fill:#faf9f6; stroke:none;" d="M258 32C258 50.7263 252.478 80.068 261.403 96.9961C270.505 114.261 303.66 114.63 313.647 97.9961C323.723 81.215 318 50.986 318 32L309 32L309 70C309 76.9162 309.891 84.6487 306.558 91C298.986 105.43 277.287 105.533 269.836 91C261.967 75.6534 267 48.9431 267 32L258 32z"/>
<path style="fill:#e3ce83; stroke:none;" d="M318 32L318 83L319 83C319 68.6892 323.508 45.1273 318 32M328 32L328 40L329 40L328 32z"/>
<path style="fill:#faf9f6; stroke:none;" d="M329 32L329 40C334.31 40 347.417 37.6241 351.397 41.6034C354.786 44.9925 353 54.5835 353 59L353 108L362 108L362 40L385 40L385 32L329 32z"/>
<path style="fill:#e3ce83; stroke:none;" d="M385 32L385 40L386 40L385 32z"/>
<path style="fill:#7c796e; stroke:none;" d="M42 33L43 34L42 33z"/>
<path style="fill:#e3ce83; stroke:none;" d="M43 33L44 34L43 33z"/>
<path style="fill:#7c796e; stroke:none;" d="M113 33L114 34L113 33z"/>
<path style="fill:#e3ce83; stroke:none;" d="M114 33L115 34L114 33z"/>
<path style="fill:#7c796e; stroke:none;" d="M150 33L151 34L150 33M175 33L176 34L175 33M230 33L231 34L230 33M40 34L41 35L40 34z"/>
<path style="fill:#e3ce83; stroke:none;" d="M41 34L42 35L41 34z"/>
<path style="fill:#7c796e; stroke:none;" d="M111 34L112 35L111 34z"/>
<path style="fill:#e3ce83; stroke:none;" d="M150 34L150 43L151 43L150 34z"/>
<path style="fill:#7c796e; stroke:none;" d="M174 34L175 35L174 34M231 34L232 35L231 34z"/>
<path style="fill:#e3ce83; stroke:none;" d="M39 35L40 36L39 35z"/>
<path style="fill:#7c796e; stroke:none;" d="M109 35L110 36L109 35z"/>
<path style="fill:#e3ce83; stroke:none;" d="M173 35L174 36L173 35M232 35L233 36L232 35z"/>
<path style="fill:#7c796e; stroke:none;" d="M37 36L38 37L37 36M107 36L108 37L107 36z"/>
<path style="fill:#e3ce83; stroke:none;" d="M203 36L204 37L203 36z"/>
<path style="fill:#7c796e; stroke:none;" d="M36 37L37 38L36 37z"/>
<path style="fill:#e3ce83; stroke:none;" d="M106 37L107 38L106 37z"/>
<path style="fill:#7c796e; stroke:none;" d="M170 37L171 38L170 37z"/>
<path style="fill:#e3ce83; stroke:none;" d="M196 37L197 38L196 37z"/>
<path style="fill:#faf9f6; stroke:none;" d="M247 78L248 77L243 72L243 71L248 66C236.746 69.026 227.994 70.0239 216 70C212.494 69.993 205.25 67.3282 202.337 69.081C200.039 70.4636 200.749 73.5273 203.153 74.2677C206.698 75.36 213.037 73.0031 217 73C216.126 75.9413 215.066 78.4826 212.786 80.6597C191.161 101.311 182.706 48.8404 207.996 59.2323C212.099 60.9183 214.331 64.7949 218 67C216.96 63.9504 215.634 61.6194 212.956 59.652C189.381 42.3322 179.022 91.2899 206 86.2801C215.703 84.4783 216.624 73.307 226 73C222.393 97.0671 187.923 101.434 182.255 76C179.122 61.9448 192.434 46.893 207 49.4715C217.053 51.251 221.918 58.426 226 67L227 67C224.238 40.0354 181.338 42.332 180.04 69C178.487 100.913 223.725 104.589 228 73L236 73C234.585 105.447 189.848 115.013 174.996 86C163.69 63.9139 183.007 35.7067 208 39.3002C224.833 41.7203 227.746 53.8669 237 65C237.974 49.8112 220.829 37.6671 207 37.0394C183.366 35.9664 163.3 57.0382 170.44 81C172.251 87.08 175.397 92.5377 180.015 96.9066C185.403 102.004 192.512 105.595 200 105.96C213.313 106.608 226.323 101.92 233.521 90C235.531 86.6705 236.532 76.7746 239.6 74.9205C241.879 73.5427 245.253 76.8456 247 78z"/>
<path style="fill:#e3ce83; stroke:none;" d="M211 37L212 38L211 37z"/>
<path style="fill:#7c796e; stroke:none;" d="M35 38L36 39L35 38z"/>
<path style="fill:#e3ce83; stroke:none;" d="M58 38L59 39L58 38z"/>
<path style="fill:#7c796e; stroke:none;" d="M104 38L105 39L104 38z"/>
<path style="fill:#e3ce83; stroke:none;" d="M130.667 38.3333L131.333 38.6667L130.667 38.3333z"/>
<path style="fill:#7c796e; stroke:none;" d="M169 38L170 39L169 38z"/>
<path style="fill:#e3ce83; stroke:none;" d="M192 38L193 39L192 38M215 38L216 39L215 38z"/>
<path style="fill:#7c796e; stroke:none;" d="M236 38L237 39L236 38M34 39L35 40L34 39z"/>
<path style="fill:#e3ce83; stroke:none;" d="M51 39L52 40L51 39z"/>
<path style="fill:#7c796e; stroke:none;" d="M52.6667 39.3333L53.3333 39.6667L52.6667 39.3333M63 39L63 40L66 40L63 39z"/>
<path style="fill:#e3ce83; stroke:none;" d="M66 39L67 40L66 39z"/>
<path style="fill:#7c796e; stroke:none;" d="M103 39L104 40L103 39z"/>
<path style="fill:#e3ce83; stroke:none;" d="M123 39L124 40L123 39z"/>
<path style="fill:#7c796e; stroke:none;" d="M124.667 39.3333L125.333 39.6667L124.667 39.3333M136.667 39.3333L137.333 39.6667L136.667 39.3333z"/>
<path style="fill:#e3ce83; stroke:none;" d="M138.667 39.3333L139.333 39.6667L138.667 39.3333M198 39L199 40L198 39M208.667 39.3333L209.333 39.6667L208.667 39.3333M217 39L218 40L217 39M48 40L49 41L48 40z"/>
<path style="fill:#7c796e; stroke:none;" d="M49 40L50 41L49 40M69 40L70 41L69 40z"/>
<path style="fill:#e3ce83; stroke:none;" d="M70 40L71 41L70 40M102 40L103 41L102 40M119 40L120 41L119 40z"/>
<path style="fill:#7c796e; stroke:none;" d="M120 40L121 41L120 40M141.667 40.3333L142.333 40.6667L141.667 40.3333z"/>
<path style="fill:#e3ce83; stroke:none;" d="M143 40L144 41L143 40M194 40L195 41L194 40M213 40L214 41L213 40z"/>
<path style="fill:#7c796e; stroke:none;" d="M328 40L328 41L352 41L328 40M362 40L362 41L386 41L362 40z"/>
<path style="fill:#e3ce83; stroke:none;" d="M33 41L34 42L33 41z"/>
<path style="fill:#7c796e; stroke:none;" d="M46 41L47 42L46 41M72 41L73 42L72 41z"/>
<path style="fill:#e3ce83; stroke:none;" d="M101 41L102 42L101 41z"/>
<path style="fill:#7c796e; stroke:none;" d="M117 41L118 42L117 41M145 41L146 42L145 41z"/>
<path style="fill:#e3ce83; stroke:none;" d="M146 41L147 42L146 41M191 41L192 42L191 41M216 41L217 42L216 41M238 41L239 42L238 41M352 41L352 109L362 109L362 108L353 108L353 62L352 41z"/>
<path style="fill:#7c796e; stroke:none;" d="M32 42L33 43L32 42M45 42L46 43L45 42M74 42L75 43L74 42z"/>
<path style="fill:#e3ce83; stroke:none;" d="M100 42L101 43L100 42z"/>
<path style="fill:#7c796e; stroke:none;" d="M115 42L116 43L115 42M147 42L148 43L147 42z"/>
<path style="fill:#e3ce83; stroke:none;" d="M148 42L149 43L148 42M166 42L167 43L166 42M184 42L185 43L184 42M189 42L190 43L189 42M218 42L219 43L218 42M223 42L224 43L223 42z"/>
<path style="fill:#7c796e; stroke:none;" d="M239 42L240 43L239 42M76 43L77 44L76 43z"/>
<path style="fill:#e3ce83; stroke:none;" d="M99 43L100 44L99 43M113 43L114 44L113 43z"/>
<path style="fill:#7c796e; stroke:none;" d="M149.667 43.3333L150.333 43.6667L149.667 43.3333M165 43L166 44L165 43z"/>
<path style="fill:#e3ce83; stroke:none;" d="M187 43L188 44L187 43M220 43L221 44L220 43z"/>
<path style="fill:#7c796e; stroke:none;" d="M240 43L241 44L240 43M31 44L32 45L31 44z"/>
<path style="fill:#e3ce83; stroke:none;" d="M98 44L99 45L98 44z"/>
<path style="fill:#7c796e; stroke:none;" d="M112 44L113 45L112 44M164 44L165 45L164 44z"/>
<path style="fill:#e3ce83; stroke:none;" d="M31 45L32 46L31 45z"/>
<path style="fill:#7c796e; stroke:none;" d="M42 45L43 46L42 45M97 45L98 46L97 45z"/>
<path style="fill:#e3ce83; stroke:none;" d="M110 45L111 46L110 45M180 45L181 46L180 45M184 45L185 46L184 45M223 45L224 46L223 45M241 45L242 46L241 45M41 46L42 47L41 46z"/>
<path style="fill:#7c796e; stroke:none;" d="M96 46L97 47L96 46z"/>
<path style="fill:#e3ce83; stroke:none;" d="M109 46L110 47L109 46z"/>
<path style="fill:#7c796e; stroke:none;" d="M163 46L164 47L163 46z"/>
<path style="fill:#e3ce83; stroke:none;" d="M179 46L180 47L179 46M224 46L225 47L224 46z"/>
<path style="fill:#7c796e; stroke:none;" d="M242 46L243 47L242 46M41 47L42 48L41 47M108 47L109 48L108 47z"/>
<path style="fill:#e3ce83; stroke:none;" d="M178 47L179 48L178 47M200.667 47.3333L201.333 47.6667L200.667 47.3333M206.667 47.3333L207.333 47.6667L206.667 47.3333z"/>
<path style="fill:#7c796e; stroke:none;" d="M30 48L30 55L31 55L30 48z"/>
<path style="fill:#e3ce83; stroke:none;" d="M95 48L96 49L95 48M107 48L108 49L107 48M162 48L163 49L162 48M177 48L178 49L177 48M196 48L197 49L196 48M211 48L212 49L211 48M243 48L244 49L243 48z"/>
<path style="fill:#7c796e; stroke:none;" d="M94 49L95 50L94 49z"/>
<path style="fill:#e3ce83; stroke:none;" d="M106 49L107 50L106 49z"/>
<path style="fill:#7c796e; stroke:none;" d="M161 49L162 50L161 49z"/>
<path style="fill:#e3ce83; stroke:none;" d="M193 49L194 50L193 49M200 49L201 50L200 49M206.667 49.3333L207.333 49.6667L206.667 49.3333M94 50L95 51L94 50M161 50L162 51L161 50M196 50L197 51L196 50M211 50L212 51L211 50M228 50L229 51L228 50M244 50L245 51L244 50z"/>
<path style="fill:#7c796e; stroke:none;" d="M93 51L94 52L93 51M105 51L106 52L105 51M160 51L161 52L160 51z"/>
<path style="fill:#e3ce83; stroke:none;" d="M178 51L179 52L178 51M217 51L218 52L217 51M229 51L230 52L229 51M232 51L233 52L232 51z"/>
<path style="fill:#7c796e; stroke:none;" d="M41.3333 52.6667L41.6667 53.3333L41.3333 52.6667z"/>
<path style="fill:#e3ce83; stroke:none;" d="M93 52L94 53L93 52z"/>
<path style="fill:#7c796e; stroke:none;" d="M104 52L105 53L104 52z"/>
<path style="fill:#e3ce83; stroke:none;" d="M160 52L161 53L160 52M174 52L175 53L174 52M177 52L178 53L177 52M215 52L216 53L215 52M245 52L246 53L245 52z"/>
<path style="fill:#7c796e; stroke:none;" d="M92 53L93 54L92 53z"/>
<path style="fill:#e3ce83; stroke:none;" d="M187 53L188 54L187 53M41 54L42 55L41 54M92 54L93 55L92 54z"/>
<path style="fill:#7c796e; stroke:none;" d="M103 54L104 55L103 54M159 54L160 55L159 54z"/>
<path style="fill:#e3ce83; stroke:none;" d="M173 54L174 55L173 54M186 54L187 55L186 54M189 54L190 55L189 54M218 54L219 55L218 54M231 54L232 55L231 54z"/>
<path style="fill:#7c796e; stroke:none;" d="M246 54L247 55L246 54M42 55L43 56L42 55z"/>
<path style="fill:#e3ce83; stroke:none;" d="M102 55L103 56L102 55M185 55L186 56L185 55M188 55L189 56L188 55M219 55L220 56L219 55M31 56L32 57L31 56z"/>
<path style="fill:#7c796e; stroke:none;" d="M91 56L92 57L91 56M102 56L103 57L102 56M158.333 56.6667L158.667 57.3333L158.333 56.6667z"/>
<path style="fill:#e3ce83; stroke:none;" d="M172 56L173 57L172 56M187 56L188 57L187 56M201.667 56.3333L202.333 56.6667L201.667 56.3333M205.667 56.3333L206.333 56.6667L205.667 56.3333M220 56L221 57L220 56z"/>
<path style="fill:#7c796e; stroke:none;" d="M247.333 56.6667L247.667 57.3333L247.333 56.6667M31 57L32 58L31 57z"/>
<path style="fill:#e3ce83; stroke:none;" d="M43 57L44 58L43 57M91 57L92 58L91 57M174 57L175 58L174 57M186 57L187 58L186 57M209 57L210 58L209 57M44 58L45 59L44 58M101 58L102 59L101 58M171 58L172 59L171 58M183 58L184 59L183 58M201 58L202 59L201 58M205.667 58.3333L206.333 58.6667L205.667 58.3333M211 58L212 59L211 58M233 58L234 59L233 58z"/>
<path style="fill:#7c796e; stroke:none;" d="M32 59L33 60L32 59M46 59L47 60L46 59M90 59L91 60L90 59M101 59L102 60L101 59z"/>
<path style="fill:#e3ce83; stroke:none;" d="M194 59L195 60L194 59M198 59L199 60L198 59M209 59L210 60L209 59M236 59L237 60L236 59M33 60L34 61L33 60M47 60L48 61L47 60M90.3333 60.6667L90.6667 61.3333L90.3333 60.6667z"/>
<path style="fill:#7c796e; stroke:none;" d="M157 60L158 61L157 60z"/>
<path style="fill:#e3ce83; stroke:none;" d="M184 60L185 61L184 60M193 60L194 61L193 60M196 60L197 61L196 60M214 60L215 61L214 60M225 60L226 61L225 60M234 60L235 61L234 60z"/>
<path style="fill:#7c796e; stroke:none;" d="M248.333 60.6667L248.667 61.3333L248.333 60.6667M33 61L34 62L33 61M49 61L50 62L49 61z"/>
<path style="fill:#e3ce83; stroke:none;" d="M100 61L101 62L100 61M157 61L158 62L157 61M170 61L171 62L170 61M192 61L193 62L192 61M212 61L213 62L212 61z"/>
<path style="fill:#7c796e; stroke:none;" d="M34 62L35 63L34 62z"/>
<path style="fill:#e3ce83; stroke:none;" d="M50 62L51 63L50 62z"/>
<path style="fill:#7c796e; stroke:none;" d="M51 62L52 63L51 62M100.333 62.6667L100.667 63.3333L100.333 62.6667z"/>
<path style="fill:#e3ce83; stroke:none;" d="M183 62L184 63L183 62M191 62L192 63L191 62M213 62L214 63L213 62M237 62L238 63L237 62M248 62L249 63L248 62z"/>
<path style="fill:#7c796e; stroke:none;" d="M35 63L36 64L35 63z"/>
<path style="fill:#e3ce83; stroke:none;" d="M52 63L53 64L52 63z"/>
<path style="fill:#7c796e; stroke:none;" d="M53 63L54 64L53 63M89 63L89 66L90 66L89 63z"/>
<path style="fill:#e3ce83; stroke:none;" d="M172 63L173 64L172 63M193 63L194 64L193 63z"/>
<path style="fill:#7c796e; stroke:none;" d="M36 64L37 65L36 64z"/>
<path style="fill:#e3ce83; stroke:none;" d="M54 64L55 65L54 64z"/>
<path style="fill:#7c796e; stroke:none;" d="M55 64L56 65L55 64M156 64L156 69L157 69L156 64z"/>
<path style="fill:#e3ce83; stroke:none;" d="M190 64L191 65L190 64M237 64L238 65L237 64z"/>
<path style="fill:#7c796e; stroke:none;" d="M37 65L38 66L37 65z"/>
<path style="fill:#e3ce83; stroke:none;" d="M56 65L57 66L56 65z"/>
<path style="fill:#7c796e; stroke:none;" d="M57 65L58 66L57 65z"/>
<path style="fill:#e3ce83; stroke:none;" d="M169 65L170 66L169 65M182 65L183 66L182 65M246 65L247 66L246 65z"/>
<path style="fill:#7c796e; stroke:none;" d="M249 65L249 71L250 71L249 65M38 66L39 67L38 66M59 66L60 67L59 66z"/>
<path style="fill:#e3ce83; stroke:none;" d="M89 66L89 78L90 78L89 66M99 66L99 76L100 76L99 66M189 66L190 67L189 66M191 66L192 67L191 66M225 66L226 67L225 66M40 67L41 68L40 67z"/>
<path style="fill:#7c796e; stroke:none;" d="M61 67L62 68L61 67z"/>
<path style="fill:#e3ce83; stroke:none;" d="M217 67L218 68L217 67M247 67L248 68L247 67z"/>
<path style="fill:#7c796e; stroke:none;" d="M41 68L42 69L41 68z"/>
<path style="fill:#e3ce83; stroke:none;" d="M42 68L43 69L42 68z"/>
<path style="fill:#7c796e; stroke:none;" d="M63 68L64 69L63 68z"/>
<path style="fill:#e3ce83; stroke:none;" d="M171 68L171 75L172 75L171 68M246 68L247 69L246 68z"/>
<path style="fill:#7c796e; stroke:none;" d="M43 69L44 70L43 69M65 69L66 70L65 69z"/>
<path style="fill:#e3ce83; stroke:none;" d="M156 69L156 74L157 74L156 69M245 69L246 70L245 69z"/>
<path style="fill:#7c796e; stroke:none;" d="M45 70L46 71L45 70z"/>
<path style="fill:#e3ce83; stroke:none;" d="M66 70L67 71L66 70z"/>
<path style="fill:#7c796e; stroke:none;" d="M67 70L68 71L67 70z"/>
<path style="fill:#e3ce83; stroke:none;" d="M179 70L179 73L180 73L179 70M181 70L181 73L182 73L181 70M244 70L245 71L244 70z"/>
<path style="fill:#7c796e; stroke:none;" d="M47 71L48 72L47 71z"/>
<path style="fill:#e3ce83; stroke:none;" d="M68 71L69 72L68 71M243 71L244 72L243 71M249 71L250 72L249 71z"/>
<path style="fill:#7c796e; stroke:none;" d="M49 72L50 73L49 72M70 72L71 73L70 72z"/>
<path style="fill:#e3ce83; stroke:none;" d="M244 72L245 73L244 72z"/>
<path style="fill:#7c796e; stroke:none;" d="M249 72L249 78L250 78L249 72M51 73L52 74L51 73z"/>
<path style="fill:#e3ce83; stroke:none;" d="M71 73L72 74L71 73M245 73L246 74L245 73z"/>
<path style="fill:#7c796e; stroke:none;" d="M53 74L54 75L53 74z"/>
<path style="fill:#e3ce83; stroke:none;" d="M72 74L73 75L72 74z"/>
<path style="fill:#7c796e; stroke:none;" d="M156 74L156 79L157 79L156 74z"/>
<path style="fill:#e3ce83; stroke:none;" d="M201 74L202 75L201 74M238 74L238 77L239 77L238 74M246 74L247 75L246 74z"/>
<path style="fill:#7c796e; stroke:none;" d="M55 75L56 76L55 75z"/>
<path style="fill:#e3ce83; stroke:none;" d="M56 75L57 76L56 75M216 75L217 76L216 75M218 75L219 76L218 75M247 75L248 76L247 75z"/>
<path style="fill:#7c796e; stroke:none;" d="M57 76L58 77L57 76z"/>
<path style="fill:#e3ce83; stroke:none;" d="M58 76L59 77L58 76M189 76L190 77L189 76M191 76L192 77L191 76M225 76L226 77L225 76M227 76L228 77L227 76z"/>
<path style="fill:#7c796e; stroke:none;" d="M59 77L60 78L59 77z"/>
<path style="fill:#e3ce83; stroke:none;" d="M169 77L170 78L169 77M247 77L248 78L247 77z"/>
<path style="fill:#7c796e; stroke:none;" d="M61 78L62 79L61 78z"/>
<path style="fill:#e3ce83; stroke:none;" d="M76 78L77 79L76 78z"/>
<path style="fill:#7c796e; stroke:none;" d="M89.3333 78.6667L89.6667 79.3333L89.3333 78.6667M100.333 78.6667L100.667 79.3333L100.333 78.6667z"/>
<path style="fill:#e3ce83; stroke:none;" d="M190 78L191 79L190 78M235 78L236 79L235 78M63 79L64 80L63 79z"/>
<path style="fill:#7c796e; stroke:none;" d="M77 79L78 80L77 79z"/>
<path style="fill:#e3ce83; stroke:none;" d="M172 79L173 80L172 79M214 79L215 80L214 79z"/>
<path style="fill:#7c796e; stroke:none;" d="M64 80L65 81L64 80z"/>
<path style="fill:#e3ce83; stroke:none;" d="M100 80L101 81L100 80M183 80L184 81L183 80M191 80L192 81L191 80M213 80L214 81L213 80M237 80L238 81L237 80M248 80L249 81L248 80M267 80L267 85L268 85L267 80z"/>
<path style="fill:#7c796e; stroke:none;" d="M65 81L66 82L65 81z"/>
<path style="fill:#e3ce83; stroke:none;" d="M78 81L79 82L78 81M157 81L158 82L157 81M170 81L171 82L170 81M192 81L193 82L192 81M212 81L213 82L212 81z"/>
<path style="fill:#7c796e; stroke:none;" d="M248.333 81.6667L248.667 82.3333L248.333 81.6667M66 82L67 83L66 82z"/>
<path style="fill:#e3ce83; stroke:none;" d="M90 82L91 83L90 82z"/>
<path style="fill:#7c796e; stroke:none;" d="M101 82L102 83L101 82M157 82L158 83L157 82z"/>
<path style="fill:#e3ce83; stroke:none;" d="M184 82L185 83L184 82M193 82L194 83L193 82M196 82L197 83L196 82M214 82L215 83L214 82M225 82L226 83L225 82M234 82L235 83L234 82z"/>
<path style="fill:#7c796e; stroke:none;" d="M257 82L257 86L258 86L257 82M67 83L68 84L67 83M79 83L80 84L79 83M90 83L91 84L90 83z"/>
<path style="fill:#e3ce83; stroke:none;" d="M101 83L102 84L101 83M194 83L195 84L194 83M209 83L210 84L209 83M236 83L237 84L236 83M308 83L308 86L309 86L308 83z"/>
<path style="fill:#7c796e; stroke:none;" d="M318.333 83.6667L318.667 84.3333L318.333 83.6667z"/>
<path style="fill:#e3ce83; stroke:none;" d="M68 84L69 85L68 84M79 84L80 85L79 84M171 84L172 85L171 84M201 84L202 85L201 84M206 84L207 85L206 84M211 84L212 85L211 84M233 84L234 85L233 84z"/>
<path style="fill:#7c796e; stroke:none;" d="M102 85L103 86L102 85M158.333 85.6667L158.667 86.3333L158.333 85.6667z"/>
<path style="fill:#e3ce83; stroke:none;" d="M174 85L175 86L174 85M186 85L187 86L186 85M209 85L210 86L209 85z"/>
<path style="fill:#7c796e; stroke:none;" d="M247.333 85.6667L247.667 86.3333L247.333 85.6667z"/>
<path style="fill:#e3ce83; stroke:none;" d="M69 86L70 87L69 86z"/>
<path style="fill:#7c796e; stroke:none;" d="M80 86L80 93L81 93L80 86M91 86L92 87L91 86z"/>
<path style="fill:#e3ce83; stroke:none;" d="M172 86L173 87L172 86M187 86L188 87L187 86M201 86L202 87L201 86M205.667 86.3333L206.333 86.6667L205.667 86.3333M220 86L221 87L220 86z"/>
<path style="fill:#7c796e; stroke:none;" d="M268.333 86.6667L268.667 87.3333L268.333 86.6667M69 87L70 88L69 87M103 87L104 88L103 87z"/>
<path style="fill:#e3ce83; stroke:none;" d="M175 87L176 88L175 87M185 87L186 88L185 87M188 87L189 88L188 87M219 87L220 88L219 87z"/>
<path style="fill:#7c796e; stroke:none;" d="M307.333 87.6667L307.667 88.3333L307.333 87.6667z"/>
<path style="fill:#e3ce83; stroke:none;" d="M317.333 87.6667L317.667 88.3333L317.333 87.6667M92 88L93 89L92 88z"/>
<path style="fill:#7c796e; stroke:none;" d="M159 88L160 89L159 88z"/>
<path style="fill:#e3ce83; stroke:none;" d="M173 88L174 89L173 88M186 88L187 89L186 88M189 88L190 89L189 88M231 88L232 89L231 88z"/>
<path style="fill:#7c796e; stroke:none;" d="M246 88L247 89L246 88z"/>
<path style="fill:#e3ce83; stroke:none;" d="M258 88L259 89L258 88M268 88L269 89L268 88z"/>
<path style="fill:#7c796e; stroke:none;" d="M92 89L93 90L92 89z"/>
<path style="fill:#e3ce83; stroke:none;" d="M104 89L105 90L104 89M187 89L188 90L187 89z"/>
<path style="fill:#7c796e; stroke:none;" d="M258.333 89.6667L258.667 90.3333L258.333 89.6667z"/>
<path style="fill:#e3ce83; stroke:none;" d="M307 89L308 90L307 89z"/>
<path style="fill:#7c796e; stroke:none;" d="M317 89L318 90L317 89z"/>
<path style="fill:#e3ce83; stroke:none;" d="M93 90L94 91L93 90z"/>
<path style="fill:#7c796e; stroke:none;" d="M105 90L106 91L105 90z"/>
<path style="fill:#e3ce83; stroke:none;" d="M160 90L161 91L160 90M174 90L175 91L174 90M177 90L178 91L177 90M215 90L216 91L215 90M245 90L246 91L245 90z"/>
<path style="fill:#7c796e; stroke:none;" d="M269 90L270 91L269 90M93 91L94 92L93 91M106 91L107 92L106 91M160 91L161 92L160 91z"/>
<path style="fill:#e3ce83; stroke:none;" d="M217 91L218 92L217 91M229 91L230 92L229 91M232 91L233 92L232 91z"/>
<path style="fill:#7c796e; stroke:none;" d="M245 91L246 92L245 91z"/>
<path style="fill:#e3ce83; stroke:none;" d="M306 91L307 92L306 91z"/>
<path style="fill:#7c796e; stroke:none;" d="M69 92L70 93L69 92z"/>
<path style="fill:#e3ce83; stroke:none;" d="M94 92L95 93L94 92M161 92L162 93L161 92M196 92L197 93L196 92M211 92L212 93L211 92M228 92L229 93L228 92M244 92L245 93L244 92M259 92L260 93L259 92z"/>
<path style="fill:#7c796e; stroke:none;" d="M270 92L271 93L270 92M316.333 92.6667L316.667 93.3333L316.333 92.6667z"/>
<path style="fill:#e3ce83; stroke:none;" d="M69 93L70 94L69 93z"/>
<path style="fill:#7c796e; stroke:none;" d="M161 93L162 94L161 93z"/>
<path style="fill:#e3ce83; stroke:none;" d="M193 93L194 94L193 93M199.667 93.3333L200.333 93.6667L199.667 93.3333M207 93L208 94L207 93M227 93L228 94L227 93z"/>
<path style="fill:#7c796e; stroke:none;" d="M244 93L245 94L244 93M259 93L260 94L259 93z"/>
<path style="fill:#e3ce83; stroke:none;" d="M305 93L306 94L305 93z"/>
<path style="fill:#7c796e; stroke:none;" d="M30 94L31 95L30 94z"/>
<path style="fill:#e3ce83; stroke:none;" d="M79 94L80 95L79 94z"/>
<path style="fill:#7c796e; stroke:none;" d="M95 94L96 95L95 94z"/>
<path style="fill:#e3ce83; stroke:none;" d="M162 94L163 95L162 94M177 94L178 95L177 94M196 94L197 95L196 94M211 94L212 95L211 94M226 94L227 95L226 94M243 94L244 95L243 94M271 94L272 95L271 94z"/>
<path style="fill:#7c796e; stroke:none;" d="M304 94L305 95L304 94z"/>
<path style="fill:#e3ce83; stroke:none;" d="M315 94L316 95L315 94M30 95L30 105L31 105L32 95L30 95z"/>
<path style="fill:#7c796e; stroke:none;" d="M68 95L69 96L68 95M79.3333 95.6667L79.6667 96.3333L79.3333 95.6667z"/>
<path style="fill:#e3ce83; stroke:none;" d="M96 95L97 96L96 95z"/>
<path style="fill:#7c796e; stroke:none;" d="M110 95L111 96L110 95z"/>
<path style="fill:#e3ce83; stroke:none;" d="M178 95L179 96L178 95M199.667 95.3333L200.333 95.6667L199.667 95.3333M207 95L208 96L207 95M225 95L226 96L225 95M260 95L261 96L260 95z"/>
<path style="fill:#7c796e; stroke:none;" d="M272 95L273 96L272 95M315 95L316 96L315 95M33 96L34 97L33 96M67 96L68 97L67 96M111 96L112 97L111 96M150 96L151 97L150 96M163 96L164 97L163 96z"/>
<path style="fill:#e3ce83; stroke:none;" d="M179 96L180 97L179 96M224 96L225 97L224 96z"/>
<path style="fill:#7c796e; stroke:none;" d="M242 96L243 97L242 96M273 96L274 97L273 96z"/>
<path style="fill:#e3ce83; stroke:none;" d="M314 96L315 97L314 96M34 97L35 98L34 97z"/>
<path style="fill:#7c796e; stroke:none;" d="M35 97L36 98L35 97M66 97L67 98L66 97z"/>
<path style="fill:#e3ce83; stroke:none;" d="M78 97L79 98L78 97z"/>
<path style="fill:#7c796e; stroke:none;" d="M97 97L98 98L97 97z"/>
<path style="fill:#e3ce83; stroke:none;" d="M112 97L113 98L112 97z"/>
<path style="fill:#7c796e; stroke:none;" d="M113 97L114 98L113 97z"/>
<path style="fill:#e3ce83; stroke:none;" d="M148 97L149 98L148 97M150 97L150 105L151 105L150 97M180 97L181 98L180 97M184 97L185 98L184 97M241 97L242 98L241 97M261 97L262 98L261 97z"/>
<path style="fill:#7c796e; stroke:none;" d="M274 97L275 98L274 97M301 97L302 98L301 97M314 97L315 98L314 97M37 98L38 99L37 98M65 98L66 99L65 98M78 98L79 99L78 98M98 98L99 99L98 98z"/>
<path style="fill:#e3ce83; stroke:none;" d="M114 98L115 99L114 98z"/>
<path style="fill:#7c796e; stroke:none;" d="M115 98L116 99L115 98M145 98L146 99L145 98z"/>
<path style="fill:#e3ce83; stroke:none;" d="M146 98L147 99L146 98z"/>
<path style="fill:#7c796e; stroke:none;" d="M164 98L165 99L164 98z"/>
<path style="fill:#e3ce83; stroke:none;" d="M275 98L276 99L275 98z"/>
<path style="fill:#7c796e; stroke:none;" d="M276 98L277 99L276 98M300 98L301 99L300 98z"/>
<path style="fill:#e3ce83; stroke:none;" d="M313 98L314 99L313 98M39 99L40 100L39 99z"/>
<path style="fill:#7c796e; stroke:none;" d="M40 99L41 100L40 99M63 99L64 100L63 99z"/>
<path style="fill:#e3ce83; stroke:none;" d="M64 99L65 100L64 99M77 99L78 100L77 99z"/>
<path style="fill:#7c796e; stroke:none;" d="M99 99L100 100L99 99z"/>
<path style="fill:#e3ce83; stroke:none;" d="M116 99L117 100L116 99z"/>
<path style="fill:#7c796e; stroke:none;" d="M117 99L118 100L117 99M142.667 99.3333L143.333 99.6667L142.667 99.3333M165 99L166 100L165 99z"/>
<path style="fill:#e3ce83; stroke:none;" d="M187 99L188 100L187 99M224 99L225 100L224 99z"/>
<path style="fill:#7c796e; stroke:none;" d="M240 99L241 100L240 99M262 99L263 100L262 99z"/>
<path style="fill:#e3ce83; stroke:none;" d="M277 99L278 100L277 99z"/>
<path style="fill:#7c796e; stroke:none;" d="M278 99L279 100L278 99M298 99L299 100L298 99z"/>
<path style="fill:#e3ce83; stroke:none;" d="M299 99L300 100L299 99M43 100L44 101L43 100z"/>
<path style="fill:#7c796e; stroke:none;" d="M44 100L45 101L44 100M60.6667 100.333L61.3333 100.667L60.6667 100.333M100 100L101 101L100 100z"/>
<path style="fill:#e3ce83; stroke:none;" d="M119 100L120 101L119 100z"/>
<path style="fill:#7c796e; stroke:none;" d="M120.667 100.333L121.333 100.667L120.667 100.333M138.667 100.333L139.333 100.667L138.667 100.333z"/>
<path style="fill:#e3ce83; stroke:none;" d="M140 100L141 101L140 100M166 100L167 101L166 100M184 100L185 101L184 100M218 100L219 101L218 100M239 100L240 101L239 100M263 100L264 101L263 100M279 100L280 101L279 100z"/>
<path style="fill:#7c796e; stroke:none;" d="M280.667 100.333L281.333 100.667L280.667 100.333M295.667 100.333L296.333 100.667L295.667 100.333M312 100L313 101L312 100z"/>
<path style="fill:#e3ce83; stroke:none;" d="M47 101L47 102L51 102L47 101z"/>
<path style="fill:#7c796e; stroke:none;" d="M51 101L51 102L55 102L51 101z"/>
<path style="fill:#e3ce83; stroke:none;" d="M55 101L55 102L59 102L55 101z"/>
<path style="fill:#7c796e; stroke:none;" d="M76 101L77 102L76 101M101 101L102 102L101 101z"/>
<path style="fill:#e3ce83; stroke:none;" d="M123 101L123 102L127 102L123 101z"/>
<path style="fill:#7c796e; stroke:none;" d="M127 101L127 102L132 102L127 101z"/>
<path style="fill:#e3ce83; stroke:none;" d="M132 101L132 102L136 102L132 101M191 101L192 102L191 101M216 101L217 102L216 101M221 101L222 102L221 101M264 101L265 102L264 101M283 101L283 102L286 102L283 101z"/>
<path style="fill:#7c796e; stroke:none;" d="M286 101L286 102L291 102L286 101z"/>
<path style="fill:#e3ce83; stroke:none;" d="M291 101L291 102L294 102L291 101z"/>
<path style="fill:#7c796e; stroke:none;" d="M311 101L312 102L311 101M75 102L76 103L75 102z"/>
<path style="fill:#e3ce83; stroke:none;" d="M103 102L104 103L103 102M194 102L195 103L194 102M213 102L214 103L213 102z"/>
<path style="fill:#7c796e; stroke:none;" d="M310 102L311 103L310 102M74 103L75 104L74 103z"/>
<path style="fill:#e3ce83; stroke:none;" d="M104 103L105 104L104 103z"/>
<path style="fill:#7c796e; stroke:none;" d="M168 103L169 104L168 103z"/>
<path style="fill:#e3ce83; stroke:none;" d="M198 103L199 104L198 103M208.667 103.333L209.333 103.667L208.667 103.333M217 103L218 104L217 103M266 103L267 104L266 103z"/>
<path style="fill:#7c796e; stroke:none;" d="M309 103L310 104L309 103z"/>
<path style="fill:#e3ce83; stroke:none;" d="M72 104L73 105L72 104z"/>
<path style="fill:#7c796e; stroke:none;" d="M105 104L106 105L105 104z"/>
<path style="fill:#e3ce83; stroke:none;" d="M106 104L107 105L106 104z"/>
<path style="fill:#7c796e; stroke:none;" d="M169 104L170 105L169 104z"/>
<path style="fill:#e3ce83; stroke:none;" d="M192 104L193 105L192 104M215 104L216 105L215 104z"/>
<path style="fill:#7c796e; stroke:none;" d="M236 104L237 105L236 104z"/>
<path style="fill:#e3ce83; stroke:none;" d="M267 104L268 105L267 104M307 104L308 105L307 104z"/>
<path style="fill:#7c796e; stroke:none;" d="M308 104L309 105L308 104M30 105L31 106L30 105M71 105L72 106L71 105M107 105L108 106L107 105M150 105L151 106L150 105M170 105L171 106L170 105z"/>
<path style="fill:#e3ce83; stroke:none;" d="M195 105L196 106L195 105M211 105L212 106L211 105z"/>
<path style="fill:#7c796e; stroke:none;" d="M235 105L236 106L235 105M268 105L269 106L268 105M306 105L307 106L306 105M31 106L32 107L31 106z"/>
<path style="fill:#e3ce83; stroke:none;" d="M32 106L33 107L32 106M69 106L70 107L69 106z"/>
<path style="fill:#7c796e; stroke:none;" d="M109 106L110 107L109 106z"/>
<path style="fill:#e3ce83; stroke:none;" d="M110 106L111 107L110 106z"/>
<path style="fill:#7c796e; stroke:none;" d="M148 106L149 107L148 106z"/>
<path style="fill:#e3ce83; stroke:none;" d="M202 106L202 107L206 107L202 106z"/>
<path style="fill:#7c796e; stroke:none;" d="M270 106L271 107L270 106z"/>
<path style="fill:#e3ce83; stroke:none;" d="M304 106L305 107L304 106z"/>
<path style="fill:#7c796e; stroke:none;" d="M34 107L35 108L34 107z"/>
<path style="fill:#e3ce83; stroke:none;" d="M35 107L36 108L35 107M66 107L67 108L66 107z"/>
<path style="fill:#7c796e; stroke:none;" d="M67 107L68 108L67 107M111 107L112 108L111 107z"/>
<path style="fill:#e3ce83; stroke:none;" d="M112 107L113 108L112 107M145 107L146 108L145 107z"/>
<path style="fill:#7c796e; stroke:none;" d="M146 107L147 108L146 107z"/>
<path style="fill:#e3ce83; stroke:none;" d="M173 107L174 108L173 107M232 107L233 108L232 107z"/>
<path style="fill:#7c796e; stroke:none;" d="M272 107L273 108L272 107M302 107L303 108L302 107M37 108L38 109L37 108z"/>
<path style="fill:#e3ce83; stroke:none;" d="M38.6667 108.333L39.3333 108.667L38.6667 108.333M63 108L64 109L63 108z"/>
<path style="fill:#7c796e; stroke:none;" d="M64 108L65 109L64 108M114 108L115 109L114 108z"/>
<path style="fill:#e3ce83; stroke:none;" d="M115.667 108.333L116.333 108.667L115.667 108.333M141 108L142 109L141 108z"/>
<path style="fill:#7c796e; stroke:none;" d="M142.667 108.333L143.333 108.667L142.667 108.333M174 108L175 109L174 108M231 108L232 109L231 108M274.667 108.333L275.333 108.667L274.667 108.333z"/>
<path style="fill:#e3ce83; stroke:none;" d="M276 108L277 109L276 108M298.667 108.333L299.333 108.667L298.667 108.333z"/>
<path style="fill:#7c796e; stroke:none;" d="M300 108L301 109L300 108M42.6667 109.333L43.3333 109.667L42.6667 109.333z"/>
<path style="fill:#e3ce83; stroke:none;" d="M44 109L44 110L48 110L44 109M56 109L56 110L59 110L56 109z"/>
<path style="fill:#7c796e; stroke:none;" d="M59.6667 109.333L60.3333 109.667L59.6667 109.333M118.667 109.333L119.333 109.667L118.667 109.333z"/>
<path style="fill:#e3ce83; stroke:none;" d="M120 109L120 110L124 110L120 109M133 109L133 110L137 110L133 109z"/>
<path style="fill:#7c796e; stroke:none;" d="M137.667 109.333L138.333 109.667L137.667 109.333M175 109L176 110L175 109M230 109L231 110L230 109M278.667 109.333L279.333 109.667L278.667 109.333z"/>
<path style="fill:#e3ce83; stroke:none;" d="M280 109L280 110L283 110L280 109M292 109L292 110L295 110L292 109z"/>
<path style="fill:#7c796e; stroke:none;" d="M295.667 109.333L296.333 109.667L295.667 109.333z"/>
<path style="fill:#e3ce83; stroke:none;" d="M177 110L178 111L177 110M228 110L229 111L228 110z"/>
<path style="fill:#7c796e; stroke:none;" d="M178 111L179 112L178 111M227 111L228 112L227 111M180 112L181 113L180 112M225 112L226 113L225 112M182 113L183 114L182 113M223 113L224 114L223 113M184 114L185 115L184 114M221 114L222 115L221 114M186.667 115.333L187.333 115.667L186.667 115.333M218.667 115.333L219.333 115.667L218.667 115.333M189.667 116.333L190.333 116.667L189.667 116.333z"/>
<path style="fill:#e3ce83; stroke:none;" d="M191 116L192 117L191 116M214 116L215 117L214 116z"/>
<path style="fill:#7c796e; stroke:none;" d="M215.667 116.333L216.333 116.667L215.667 116.333M193 117L193 118L196 118L193 117z"/>
<path style="fill:#e3ce83; stroke:none;" d="M196 117L197 118L196 117M209 117L210 118L209 117z"/>
<path style="fill:#7c796e; stroke:none;" d="M210 117L210 118L213 118L210 117M201 118L201 119L205 119L201 118z"/>
</svg>
