<svg xmlns="http://www.w3.org/2000/svg" viewBox="0 0 199.19 52.23"><defs><style>.cls-1,.cls-2{fill:#fff;}.cls-2{fill-rule:evenodd;}</style></defs><g id="Layer_2" data-name="Layer 2"><g id="Layer_1-2" data-name="Layer 1"><circle cx="96.74" cy="26.12" r="26.12" transform="translate(9.87 76.06) rotate(-45)"/><path class="cls-1" d="M97.23,34.43a8.32,8.32,0,1,1,7.83-11.12.34.34,0,0,1-.21.44.33.33,0,0,1-.43-.2,7.64,7.64,0,1,0,.44,2.57.35.35,0,0,1,.34-.35.35.35,0,0,1,.35.35A8.32,8.32,0,0,1,97.23,34.43Z"/><path class="cls-1" d="M97.23,39.52a13.41,13.41,0,1,1,13.08-16.38.35.35,0,0,1-.26.41.34.34,0,0,1-.41-.26,12.75,12.75,0,1,0,.31,2.83.35.35,0,0,1,.35-.35.35.35,0,0,1,.34.35A13.42,13.42,0,0,1,97.23,39.52Z"/><path class="cls-2" d="M97.23,28a1.87,1.87,0,1,0-1.86-1.86A1.87,1.87,0,0,0,97.23,28Z"/><path class="cls-1" d="M97.23,45.5a19.38,19.38,0,1,1,18.9-23.69.48.48,0,0,1-.36.58.49.49,0,0,1-.58-.37,18.42,18.42,0,1,0,.46,4.1.48.48,0,0,1,.48-.48.47.47,0,0,1,.48.48A19.4,19.4,0,0,1,97.23,45.5Z"/><path class="cls-1" d="M118.46,26.6H97.23a.49.49,0,0,1-.48-.48.48.48,0,0,1,.48-.48h21.23a.47.47,0,0,1,.48.48A.48.48,0,0,1,118.46,26.6Z"/><path class="cls-1" d="M118.46,26.6a.49.49,0,0,1-.34-.14.48.48,0,0,1,0-.68l2.9-2.9a.48.48,0,0,1,.68.68l-2.9,2.9A.49.49,0,0,1,118.46,26.6Z"/><path class="cls-1" d="M121.36,29.49a.44.44,0,0,1-.34-.14l-2.9-2.89a.48.48,0,0,1,.68-.68l2.9,2.89a.48.48,0,0,1,0,.68A.47.47,0,0,1,121.36,29.49Z"/><path d="M0,45.19V39.24a12.11,12.11,0,0,0,2.61,1.62,20.75,20.75,0,0,0,3.2,1.22,27,27,0,0,0,3.38.77,20.09,20.09,0,0,0,3.14.27q5,0,7.41-1.73a5.72,5.72,0,0,0,2.45-5,5.58,5.58,0,0,0-.82-3A8.8,8.8,0,0,0,19.11,31a22.26,22.26,0,0,0-3.41-2q-2-1-4.24-2.06T7,24.62A19.46,19.46,0,0,1,3.36,22a11.09,11.09,0,0,1-2.42-3.2,9.47,9.47,0,0,1-.88-4.19A9.36,9.36,0,0,1,1.44,9.53,11.39,11.39,0,0,1,5.06,5.94a16.89,16.89,0,0,1,5.1-2.1A24.9,24.9,0,0,1,16,3.15q6.78,0,9.89,1.53v5.67A18.84,18.84,0,0,0,15.46,7.71a18.27,18.27,0,0,0-3.52.35A10.43,10.43,0,0,0,8.8,9.18a6.89,6.89,0,0,0-2.24,2,5.18,5.18,0,0,0-.86,3,5.94,5.94,0,0,0,.65,2.85,7.2,7.2,0,0,0,1.94,2.19,19.59,19.59,0,0,0,3.12,1.92c1.23.63,2.64,1.31,4.25,2.05s3.2,1.56,4.67,2.4A21.33,21.33,0,0,1,24.2,28.4a12.34,12.34,0,0,1,2.64,3.4,8.92,8.92,0,0,1,1,4.26,10.23,10.23,0,0,1-1.33,5.39A10.51,10.51,0,0,1,22.91,45a16.3,16.3,0,0,1-5.21,2,30.28,30.28,0,0,1-6.21.61,26.94,26.94,0,0,1-2.69-.16c-1.06-.11-2.15-.27-3.26-.48a28.62,28.62,0,0,1-3.16-.78A10.16,10.16,0,0,1,0,45.19Z"/><path d="M67.22,45.13a28.44,28.44,0,0,1-12.68,2.52q-9.8,0-15.68-5.91T33,26.21q0-10.33,6.62-16.7T56.4,3.15A28.53,28.53,0,0,1,67.22,4.92v5.37A23.08,23.08,0,0,0,56.34,7.71q-7.91,0-12.82,5T38.6,25.91q0,7.86,4.6,12.54t12,4.67a23.68,23.68,0,0,0,12-2.89Z"/><path d="M161.58,29.51q0,18.15-17.44,18.14-16.71,0-16.71-17.45V3.87h5.37v26q0,13.25,11.91,13.25,11.5,0,11.5-12.8V3.87h5.37Z"/><path d="M199.19,8.43H185.94v38.5h-5.38V8.43H167.34V3.87h31.85Z"/></g></g></svg>