<svg xmlns="http://www.w3.org/2000/svg" viewBox="0 0 232.95 173.58"><defs><style>.cls-1{fill:#fff;}.cls-2{fill:#acd4f7;}.cls-3{opacity:0.13;}</style></defs><g id="Layer_2" data-name="Layer 2"><g id="Layer_1-2" data-name="Layer 1"><path class="cls-1" d="M78,172c10.69.59,119.4-.2,123.48,0C179.39,134.48,157.68,95.47,135,57.83,113.18,94.22,93.64,132,78,172Z"/><path d="M106.1,173.51c-14.23,0-25.1-.06-28.17-.23a1.29,1.29,0,0,1-1-.58,1.27,1.27,0,0,1-.12-1.15C91.34,134.42,110,97,133.93,57.18a1.28,1.28,0,0,1,1.09-.62h0a1.29,1.29,0,0,1,1.09.62c13.32,22.13,26.5,45.06,39.25,67.23,8.9,15.49,18.11,31.5,27.22,47a1.28,1.28,0,0,1-1.17,1.92c-1.52-.09-18.94,0-39.11.05C143.69,173.43,122.63,173.51,106.1,173.51Zm-26.27-2.7c10.63.28,51.84.12,82.46,0,17.21-.07,31.45-.12,37-.09-8.74-14.88-17.55-30.21-26.08-45C160.76,104.12,148,81.85,135,60.3,112.06,98.74,94,134.92,79.83,170.81Z"/><path class="cls-1" d="M135,57.83C125.87,71.37,117.56,89,112.78,97c4.06.9,7.88-3.85,12-3.19,2.27.36,3.21,4.45,9.1,4.45,7.48,0,7.7-3.45,11.38-4.54,4.49-1.33,8.18,1,12.61,2.53C150,81.69,142.89,69.16,135,57.83Z"/><path d="M133.86,99.54a10.16,10.16,0,0,1-7.74-3.33,4.06,4.06,0,0,0-1.56-1.15c-1.6-.26-3.31.6-5.12,1.51-2.18,1.09-4.43,2.22-6.93,1.67a1.27,1.27,0,0,1-.82-1.89c1.61-2.7,3.63-6.51,6-10.92,4.57-8.61,10.24-19.32,16.31-28.31a1.27,1.27,0,0,1,2.1,0c7.63,11,14.42,22.89,22.9,38.54a1.27,1.27,0,0,1-.15,1.43,1.25,1.25,0,0,1-1.38.37c-1-.33-1.88-.7-2.77-1.06-3.19-1.27-5.94-2.38-9.06-1.45a7.59,7.59,0,0,0-2.67,1.58C141.23,97.86,139.12,99.54,133.86,99.54ZM124,92.47a7.23,7.23,0,0,1,1,.08,5.62,5.62,0,0,1,2.91,1.83,7.65,7.65,0,0,0,6,2.61c4.37,0,5.89-1.19,7.49-2.46a10,10,0,0,1,3.53-2c3.76-1.11,7,.07,10.2,1.32-7.3-13.38-13.4-24-20.05-33.72-5.6,8.54-10.86,18.46-15.13,26.52-1.84,3.47-3.48,6.56-4.89,9.07a17.28,17.28,0,0,0,3.28-1.39A13,13,0,0,1,124,92.47Z"/><path class="cls-2" d="M16.82,172s79.27-.1,90.73-.1c-13.06-26.7-26.56-55-43-81.21C47.41,117.94,33.69,145.26,16.82,172Z"/><path d="M16.82,173.28a1.28,1.28,0,0,1-1.08-1.95c8.38-13.29,16.14-27,23.64-40.24C47,117.64,54.87,103.73,63.51,90a1.29,1.29,0,0,1,1.07-.59h0a1.27,1.27,0,0,1,1.07.6c15.19,24.29,27.81,50.15,40,75.16l3,6.16a1.27,1.27,0,0,1-1.14,1.83c-11.32,0-89.94.1-90.73.1ZM64.58,93.1c-8.19,13.1-15.71,26.38-23,39.24C34.44,145,27.06,158,19.12,170.74l86.39-.1-2.11-4.34C91.5,142,79.22,116.78,64.58,93.1Z"/><path class="cls-1" d="M137,4c-.39,10.27-.78,20.53-1,31.14l49.62-10C170.29,17.73,154.73,10.9,137,4Z"/><path d="M135.93,36.39a1.27,1.27,0,0,1-1.27-1.3c.26-10.68.66-21.09,1-31.16a1.29,1.29,0,0,1,.58-1,1.27,1.27,0,0,1,1.15-.12c17.33,6.75,32.8,13.5,48.68,21.23a1.27,1.27,0,0,1-.31,2.39l-49.62,10A1.07,1.07,0,0,1,135.93,36.39Zm2.24-30.58c-.34,9-.68,18.28-.93,27.75l44.35-8.9C167.46,17.88,153.53,11.84,138.17,5.81Z"/><path d="M231.68,173.58h0L1.27,173a1.27,1.27,0,1,1,0-2.54h0l230.41.55a1.27,1.27,0,0,1,0,2.54Z"/><path d="M135,59.16h0a1.28,1.28,0,0,1-1.23-1.31L135.6,1.23A1.28,1.28,0,0,1,136.92,0a1.26,1.26,0,0,1,1.22,1.31l-1.89,56.62A1.26,1.26,0,0,1,135,59.16Z"/><path class="cls-1" d="M79.36,116.11c-1.79,1.15-5.24,2.56-7.26,1.92-2.42-.77-4-4-6.52-3.67-2,.26-3.13,2.77-5,3.52-3.35,1.29-7-3.29-10.24-1.81A4.92,4.92,0,0,0,48,118.82c5.55-9.19,11.09-18.38,16.86-27.68A255.73,255.73,0,0,1,79.36,116.11Z"/><path d="M48,120.09a1.24,1.24,0,0,1-.56-.13,1.28,1.28,0,0,1-.62-1.62,7.77,7.77,0,0,1,1.27-2.13c5.09-8.43,10.33-17.1,15.69-25.74a1.27,1.27,0,0,1,2.14,0A255.52,255.52,0,0,1,80.5,115.54a1.27,1.27,0,0,1-.45,1.64c-2,1.26-5.82,2.85-8.33,2.06a9.35,9.35,0,0,1-3.21-2.09c-1.17-1-2-1.64-2.77-1.53a4.33,4.33,0,0,0-2.07,1.45,8.23,8.23,0,0,1-2.69,2c-2.15.83-4.23-.13-6.06-1-1.6-.74-3-1.37-4.11-.86a2.33,2.33,0,0,0-.7.51l-1,1.73A1.27,1.27,0,0,1,48,120.09Zm18-7c1.75,0,3.06,1.15,4.23,2.17a7.49,7.49,0,0,0,2.31,1.59c1.14.36,3.38-.28,5.19-1.21a251,251,0,0,0-12.82-22.1c-4.35,7-8.63,14.09-12.8,21A11.79,11.79,0,0,1,56,115.78c1.51.7,2.94,1.36,4.09.91a5.81,5.81,0,0,0,1.81-1.42,6.25,6.25,0,0,1,3.54-2.17A3.15,3.15,0,0,1,66,113.06Z"/><path d="M99.65,142.88a.35.35,0,0,1-.2,0,.42.42,0,0,1-.18-.57c6.74-12.92,13.35-26.16,19.66-39.35a.42.42,0,1,1,.76.36c-6.31,13.2-12.93,26.45-19.67,39.38A.4.4,0,0,1,99.65,142.88Z"/><path d="M106.18,149.67a.39.39,0,0,1-.18,0,.42.42,0,0,1-.21-.56c7.06-15.44,14.62-30.91,22.49-46a.43.43,0,0,1,.57-.18.44.44,0,0,1,.18.57c-7.86,15-15.42,30.49-22.47,45.92A.41.41,0,0,1,106.18,149.67Z"/><path d="M111.64,161.58a.41.41,0,0,1-.19,0,.42.42,0,0,1-.2-.56c9-18.87,17.75-38.17,25.95-57.39a.43.43,0,0,1,.56-.22.42.42,0,0,1,.22.55c-8.21,19.23-16.95,38.55-26,57.42A.44.44,0,0,1,111.64,161.58Z"/><path d="M120.15,166.91a.33.33,0,0,1-.17,0,.41.41,0,0,1-.22-.55l28.55-64.89a.44.44,0,0,1,.56-.22.43.43,0,0,1,.22.56l-28.55,64.89A.44.44,0,0,1,120.15,166.91Z"/><path d="M134.57,164.69a.4.4,0,0,1-.15,0,.41.41,0,0,1-.24-.54c6.8-17.51,13.87-35.18,21-52.51a.42.42,0,0,1,.78.32c-7.14,17.33-14.22,35-21,52.49A.43.43,0,0,1,134.57,164.69Z"/><path d="M145.3,165a.35.35,0,0,1-.14,0,.42.42,0,0,1-.26-.54c5.11-14.75,10.82-29.5,17-43.85a.43.43,0,0,1,.78.34C156.5,135.25,150.8,150,145.7,164.72A.43.43,0,0,1,145.3,165Z"/><path d="M156.6,164.45l-.14,0a.42.42,0,0,1-.26-.54l12-35.07a.41.41,0,0,1,.53-.26.41.41,0,0,1,.27.53l-12,35.07A.43.43,0,0,1,156.6,164.45Z"/><path d="M166.63,164.58l-.13,0a.42.42,0,0,1-.27-.53l7.34-22.7a.43.43,0,0,1,.54-.27.42.42,0,0,1,.27.53L167,164.29A.43.43,0,0,1,166.63,164.58Z"/><path d="M175,165.54h-.12a.43.43,0,0,1-.29-.53c1.44-4.86,3-9.74,4.67-14.51a.42.42,0,0,1,.8.28c-1.66,4.76-3.23,9.63-4.66,14.47A.42.42,0,0,1,175,165.54Z"/><path d="M184.21,165.55l-.15,0a.43.43,0,0,1-.25-.55L186,159a.42.42,0,0,1,.79.29l-2.16,6A.44.44,0,0,1,184.21,165.55Z"/><g class="cls-3"><path d="M140.94,6.49a2.54,2.54,0,0,0-5.07,0c.44,7.86-.7,15.67-.68,23.53a2.53,2.53,0,0,0,4.62,1.85,4.35,4.35,0,0,0,.34-2.34c0-1.9,0-3.8.12-5.69A159.45,159.45,0,0,0,140.94,6.49Z"/></g><g class="cls-3"><path d="M199.64,167.69c-.19-.27-.63-.87-.83-1.1l-.23-.29a95.22,95.22,0,0,1-6.41-10c-6.57-11.44-14.2-22.14-20.4-33.87-2.39-4.62-4.66-9.31-7.14-13.88a4.88,4.88,0,0,0-.65-1.39c-3-5.11-5.5-10.53-8.32-15.77-3.25-6.27-6.89-12.31-10.29-18.48a2,2,0,0,0-2.88-1.26c-1.16-2.31-2.34-4.62-3.52-6.92-.67-1.33-1.33-2.66-2-4-.29-.56-.41-1.27-1-1.63a1.9,1.9,0,0,0-2.79,2.45c1.91,4.46,4.2,8.75,6.3,13.13A105.6,105.6,0,0,0,145.25,86c2.32,4.37,4.62,8.74,7,13.07l.08.16c5.15,8.89,9.13,18.41,14.29,27.29Q175.14,141,184.49,155c1.48,2.23,2.72,4.61,4.16,6.86s3.12,4.53,4.65,6.81c.95,1.12,1.61,2.7,3,3.3a2.82,2.82,0,0,0,3.91-2.58A3.15,3.15,0,0,0,199.64,167.69Z"/></g><g class="cls-3"><path d="M109,164.7c-3.66-7.48-7.28-15-10.74-22.56-.65-1.39-1.31-2.78-2-4.18a3.21,3.21,0,0,0-1.06-1.56,2.65,2.65,0,0,0-4.16,2.79l2.55,6.13-.53-1c-3.47-6.25-7-12.47-10.09-18.9-2.39-4.57-5.17-8.93-7.6-13.47-3.12-6.84-6.8-13-8.74-18.64A2.43,2.43,0,0,0,62,94.56c1.49,4.6,3.77,8.9,5.71,13.33a159.86,159.86,0,0,0,8.13,16.83c3.55,7.22,7,14.51,11.13,21.41,2.31,4,4.12,8.32,6.11,12.51,1.37,2.58,3,5,4.47,7.52.86,1.35,1.86,2.6,2.68,4a5.87,5.87,0,0,0,1.25,1.54,2.68,2.68,0,0,0,3.07.22,2.82,2.82,0,0,0,1.15-1.3c.1.13.19.27.3.41l.09.11a2.13,2.13,0,0,0,.58.58,2.89,2.89,0,0,0,4.64-2.27C111.25,167.62,109.66,166.33,109,164.7Z"/></g></g></g></svg>