<svg xmlns="http://www.w3.org/2000/svg" viewBox="0 0 754.22 516.24"><defs><style>.cls-1{fill:#fff;}.cls-2{fill:#150035;}.cls-3{fill:#f5d242;}</style></defs><g id="Layer_2" data-name="Layer 2"><g id="Layer_1-2" data-name="Layer 1"><path class="cls-1" d="M466.91,285.69,437.39,307a169.11,169.11,0,0,0-52.51,61.82l-32.73,65.72A14.55,14.55,0,0,0,358.69,454l115,57.29a14.57,14.57,0,0,0,19.52-6.54L526,439.05a169.17,169.17,0,0,1,52.5-61.82L608,356a193.52,193.52,0,0,0,60-70.7l28.38-57a14.54,14.54,0,0,0-6.54-19.51l-115-57.29A14.56,14.56,0,0,0,555.34,158L527,215A193.4,193.4,0,0,1,466.91,285.69Z"/><path class="cls-2" d="M480.19,516.24a17.8,17.8,0,0,1-8-1.89l-115-57.29A17.94,17.94,0,0,1,349.11,433l32.73-65.72a173.23,173.23,0,0,1,53.56-63.06l29.52-21.29a190.67,190.67,0,0,0,59-69.45l28.39-57a18,18,0,0,1,24.07-8.07l115,57.29a18,18,0,0,1,8.07,24.06l-28.39,57A197.63,197.63,0,0,1,610,358.7L580.45,380A166.34,166.34,0,0,0,529,440.56l-32.73,65.72a18,18,0,0,1-16.09,10Zm88.19-362.93a11.22,11.22,0,0,0-10,6.19l-28.39,57a197.62,197.62,0,0,1-61.1,71.94l-29.52,21.28a166.45,166.45,0,0,0-51.45,60.57L355.19,436a11.17,11.17,0,0,0,5,15l115,57.29a11.17,11.17,0,0,0,15-5l32.73-65.72a173.12,173.12,0,0,1,53.55-63.06L606,353.19a190.8,190.8,0,0,0,59-69.45l28.38-57a11.17,11.17,0,0,0-5-15l-115-57.29A11.13,11.13,0,0,0,568.38,153.31Z"/><path class="cls-3" d="M568.69,204.83a17.24,17.24,0,0,1-1.92-1.21l-11.85,23.81a193.41,193.41,0,0,1-62.1,72.15l-28.46,20a169.18,169.18,0,0,0-54.29,63.09l-17.9,35.95a18.14,18.14,0,0,1,8.15,24.32l55.22,27.49a18.12,18.12,0,0,1,24.07-8.24l17.84-35.82A169.19,169.19,0,0,1,552,363.07l28.32-19.79a193.5,193.5,0,0,0,62.38-72.35l11.67-23.43a18.13,18.13,0,0,1-8.15-24.32L593,196.68A18.13,18.13,0,0,1,568.69,204.83Z"/><path class="cls-2" d="M457.06,475l-61.3-30.53,1.52-3a14.75,14.75,0,0,0-6.63-19.76l-3-1.52,19.42-39a173.11,173.11,0,0,1,55.38-64.36l28.46-20a190.74,190.74,0,0,0,61-70.88l13.56-27.25,3.68,2.45a10.82,10.82,0,0,0,1.08.67h0A14.76,14.76,0,0,0,590,195.17l1.51-3,59.28,29.52-1.51,3a14.77,14.77,0,0,0,6.62,19.77l3,1.51-13.18,26.47a197.41,197.41,0,0,1-63.48,73.63l-28.31,19.78a166.16,166.16,0,0,0-53.45,62l-19.33,38.82-3-1.45a14.78,14.78,0,0,0-19.56,6.7Zm-52.43-33.7L454.25,466a21.67,21.67,0,0,1,23.7-8.08l16.46-33.06a173.08,173.08,0,0,1,55.64-64.54l28.31-19.78a190.73,190.73,0,0,0,61.29-71.08l10.27-20.64a21.61,21.61,0,0,1-8-24l-47.59-23.7a21.58,21.58,0,0,1-26.09,7.23L558,228.94a197.44,197.44,0,0,1-63.19,73.42l-28.46,20a166.28,166.28,0,0,0-53.2,61.83L396.6,417.29A21.58,21.58,0,0,1,404.63,441.25Z"/><rect class="cls-2" x="440.42" y="375.58" width="6.8" height="97.7" transform="translate(-133.95 632.52) rotate(-63.53)"/><rect class="cls-2" x="448.19" y="359.99" width="6.79" height="97.7" transform="translate(-115.69 630.83) rotate(-63.53)"/><rect class="cls-2" x="497.58" y="298.02" width="6.8" height="97.7" transform="translate(-32.84 640.69) rotate(-63.53)"/><rect class="cls-2" x="598.82" y="193.76" width="6.79" height="97.7" transform="translate(116.58 673.52) rotate(-63.53)"/><rect class="cls-2" x="585.04" y="221.44" width="6.79" height="97.7" transform="translate(84.18 676.53) rotate(-63.53)"/><path class="cls-1" d="M479.46,354.38l13.61,6.78a35.89,35.89,0,0,0,36.94-3l40.44-29a12.27,12.27,0,0,0-1.68-20.94l-13.69-6.81a35.91,35.91,0,0,0-37,3l-40.33,29.07A12.26,12.26,0,0,0,479.46,354.38Z"/><path class="cls-2" d="M509.09,368.34a39.28,39.28,0,0,1-17.53-4.14l-13.62-6.78a15.66,15.66,0,0,1-2.17-26.72l40.34-29.06a39.17,39.17,0,0,1,40.48-3.29l13.69,6.81a15.66,15.66,0,0,1,2.15,26.74l-40.44,29A39.17,39.17,0,0,1,509.09,368.34Zm-28.12-17,13.62,6.78A32.4,32.4,0,0,0,528,355.43l40.44-29.05a8.86,8.86,0,0,0-1.22-15.14l-13.69-6.81a32.39,32.39,0,0,0-33.48,2.72l-40.34,29.06A8.87,8.87,0,0,0,481,351.34Z"/><path class="cls-3" d="M382,429.29a9.26,9.26,0,1,1-12.41,4.16A9.25,9.25,0,0,1,382,429.29Z"/><path class="cls-3" d="M377.9,450.23a12.65,12.65,0,1,1,5.65-24h0a12.66,12.66,0,0,1-1.62,23.32A12.74,12.74,0,0,1,377.9,450.23Zm0-18.51a6,6,0,0,0-1.87.3,5.85,5.85,0,0,0-3.69,7.41,5.85,5.85,0,1,0,8.16-7.1h0A5.8,5.8,0,0,0,377.92,431.72Z"/><path class="cls-3" d="M477.13,476.65a9.25,9.25,0,1,1-12.4,4.16A9.25,9.25,0,0,1,477.13,476.65Z"/><path class="cls-3" d="M473,497.59a12.65,12.65,0,1,1,5.64-24h0a12.66,12.66,0,0,1-5.64,24Zm0-18.52a5.86,5.86,0,1,0,5.55,4,5.84,5.84,0,0,0-2.94-3.38h0A5.82,5.82,0,0,0,473,479.07Z"/><path class="cls-3" d="M579.38,173A9.25,9.25,0,1,1,567,177.15,9.25,9.25,0,0,1,579.38,173Z"/><path class="cls-3" d="M575.24,193.93a12.65,12.65,0,1,1,5.65-24h0a12.66,12.66,0,0,1-5.65,24Zm0-18.51a5.86,5.86,0,1,0,5.23,8.46,5.86,5.86,0,0,0-2.62-7.85A5.94,5.94,0,0,0,575.26,175.42Z"/><path class="cls-3" d="M675.25,220.74a9.25,9.25,0,1,1-12.41,4.15A9.26,9.26,0,0,1,675.25,220.74Z"/><path class="cls-3" d="M671.11,241.67a12.51,12.51,0,0,1-5.62-1.33A12.64,12.64,0,0,1,667.1,217a12.65,12.65,0,1,1,8,24A12.7,12.7,0,0,1,671.11,241.67Zm0-18.51a5.73,5.73,0,0,0-1.87.31,5.87,5.87,0,1,0,4.47.31h0A5.82,5.82,0,0,0,671.13,223.16Z"/><rect class="cls-2" x="538.22" y="290.32" width="6.8" height="57.26" transform="translate(14.68 661.61) rotate(-63.53)"/><rect class="cls-2" x="520.72" y="302.67" width="6.8" height="57.26" transform="translate(-6.1 652.74) rotate(-63.52)"/><path class="cls-1" d="M700.6,272.29l-5.48-4c.28-.38,27.35-38,31.57-96.51l6.78.49C729.1,232.87,701.76,270.71,700.6,272.29Z"/><path class="cls-1" d="M749,207.5l-6.56-1.78c.12-.41,10.94-41.42,0-80.93L749,123C760.46,164.33,749.5,205.75,749,207.5Z"/><path class="cls-3" d="M258.23,301,235.86,435a.07.07,0,0,1-.14,0l-64.79-165.8a0,0,0,0,1,0,0l1.16-58.73a.1.1,0,0,1,0-.07L570.81,4.63a.07.07,0,0,1,.09.1l-159.8,238,0,0-152.8,58.15A.07.07,0,0,0,258.23,301Z"/><path d="M233.21,439l-1-2.8-65-166.38v-.62l1.22-61,2-1.06L571.72,0l3.87,4.47L573.88,6.9,413.63,245.57l-.91.47L261.53,303.6,239,438.48ZM174.62,268.59l59.76,152.89L255,298.26l1.91-.8L408.68,239.7,560,14.37,175.73,212.72Z"/><path class="cls-1" d="M570.56,4.83,171,269.23h-.06L3.74,207.1a.07.07,0,0,1,0-.13L570.49,4.7A.07.07,0,0,1,570.56,4.83Z"/><path d="M171.21,273.48l-2-1L0,209.65V207l0-2.62,2.54-.89L572.37.11l3,5.94L572.6,7.91ZM14.34,207.11l156.11,58L543.68,18.19Z"/><rect x="218.76" y="331.21" width="7.38" height="28.65" transform="translate(-108.4 101.78) rotate(-20.85)"/><rect x="196.88" y="255.22" width="7.38" height="65.7" transform="translate(-89.39 90.24) rotate(-20.85)"/><rect x="224.99" y="235.68" width="7.39" height="53.84" transform="translate(-80.14 101.72) rotate(-21.43)"/><path class="cls-3" d="M236,435.19l189.8-149.53a.07.07,0,0,0,0-.13L258.29,300.9a.06.06,0,0,0-.06.06L235.85,435.12A.07.07,0,0,0,236,435.19Z"/><path d="M236.27,439.67l-4.47-2.62.42-2.59L255,297.75l2.67-.5,170.52-15.66,2,5.33-2.28,1.73Zm25.14-135.35L241,426.5,413.89,290.32Z"/><path class="cls-1" d="M571,4.76,463.21,380.09a.06.06,0,0,1-.09,0L258.34,301a.07.07,0,0,1,0-.12L570.86,4.68A.08.08,0,0,1,571,4.76Z"/><path d="M463.26,384.18l-1.59-.65L255,303.62l-.65-4.21,1.57-1.39L570.34.1l5,2.86L466.3,382.7ZM265,299.57l195.75,75.69,103-358.78Z"/><rect class="cls-2" x="513.27" y="93.05" width="7.38" height="43.97" transform="translate(211.06 547.36) rotate(-67.26)"/><rect class="cls-2" x="517.52" y="131.66" width="7.38" height="20.14" transform="translate(202.19 577.59) rotate(-69.01)"/><rect x="294.45" y="345.9" width="48.23" height="7.38" transform="translate(-80.03 604.18) rotate(-80.23)"/><rect x="288.66" y="335.36" width="20.22" height="7.38" transform="translate(-85.73 576.5) rotate(-80.31)"/><rect x="275.22" y="371.73" width="34.65" height="7.38" transform="translate(-126.75 600.61) rotate(-80.31)"/><path d="M442.77,149.09c-9-11.24-18.84-9-43.71-14.57a139.29,139.29,0,0,0-65,.91c-21.07,5.43-33.92,8.94-42.63,18.83l-11.24,5.83,0,23.33.08.59c.47,15.73,13.32,30.47,38.88,41s53.77,12.08,80.5,5.64c37.76-9.09,56.73-28.07,57.32-47.21l.07-.91V160.09Z"/><path d="M367.91,237.55A131,131,0,0,1,318,227.88c-25.79-10.62-40.28-26.16-40.82-43.78l0-.28-.06-25.62,12.42-6.44c9.58-10.53,24-14.24,43.8-19.34a142.58,142.58,0,0,1,66.41-.93c6.93,1.55,12.61,2.47,17.61,3.29,12.74,2.07,20.49,3.33,27.61,12.06l15.26,11.72-.09,25.14c-.68,22.4-23,41.14-59.69,50A138.81,138.81,0,0,1,367.91,237.55ZM283.34,162l.07,21.63c.48,15.32,13.61,28.89,37,38.52,24.12,10,52,11.89,78.58,5.5,33.29-8,54.34-25,54.93-44.28l.09-1.07V161.63L440.34,151c-5.69-7.13-11.81-8.13-24-10.11-5.09-.83-10.86-1.77-18-3.35a136.23,136.23,0,0,0-63.5.88c-21.53,5.55-33.14,8.86-41.08,17.87l-.9.71Z"/><path class="cls-1" d="M431.2,124c34.54,19.94,34.54,52.27,0,72.21s-90.53,19.94-125.07,0-34.54-52.27,0-72.21S396.66,104.05,431.2,124Z"/><path d="M368.66,214.19c-23.21,0-46.42-5.09-64.09-15.3s-27.46-24-27.46-38.8,9.76-28.58,27.46-38.8c35.34-20.41,92.85-20.41,128.19,0h0c17.7,10.22,27.46,24,27.46,38.8s-9.76,28.58-27.46,38.8S391.88,214.19,368.66,214.19Zm0-102.07c-22.08,0-44.16,4.86-61,14.56-15.7,9.07-24.35,20.93-24.35,33.41s8.65,24.35,24.35,33.41c33.62,19.41,88.33,19.41,122,0,15.7-9.06,24.35-20.93,24.35-33.41s-8.65-24.34-24.35-33.41h0C412.83,117,390.75,112.12,368.66,112.12Z"/><path d="M368.66,194.29c-16.32,0-32.64-3.13-45.07-9.4-12.76-6.43-19.8-15.24-19.8-24.8s7-18.36,19.8-24.8c24.86-12.54,65.3-12.54,90.14,0h0c12.76,6.44,19.8,15.25,19.8,24.8s-7,18.37-19.81,24.8C401.31,191.16,385,194.29,368.66,194.29Zm0-62.26c-15.3,0-30.61,2.94-42.26,8.82C315.83,146.17,310,153,310,160.09s5.82,13.92,16.38,19.24c23.3,11.75,61.23,11.75,84.53,0,10.56-5.32,16.38-12.16,16.38-19.24s-5.82-13.92-16.38-19.24C399.28,135,384,132,368.66,132Z"/><path d="M368.66,194.3c-16.32,0-32.64-3.14-45.07-9.41-9-4.56-15.3-10.43-18.1-17l-.53-1.22.53-1.22c2.8-6.56,9.06-12.43,18.1-17,24.85-12.53,65.29-12.54,90.15,0h0c9,4.56,15.31,10.43,18.11,17l.53,1.22-.53,1.23c-2.8,6.55-9.06,12.43-18.11,17C401.31,191.16,385,194.29,368.66,194.3Zm-56.87-27.62c2.48,4.72,7.5,9.07,14.61,12.65,23.3,11.76,61.22,11.76,84.53,0,7.11-3.58,12.12-7.93,14.61-12.65-2.49-4.71-7.5-9.07-14.61-12.65h0c-23.3-11.75-61.23-11.75-84.53,0C319.29,157.61,314.27,162,311.79,166.68Z"/><rect class="cls-1" x="426.59" y="198.53" width="4.79" height="19.24"/><rect class="cls-1" x="290.81" y="187.97" width="4.79" height="19.24"/><rect class="cls-1" x="374.54" y="129.71" width="4.79" height="12.42"/><path d="M323.14,153.58v10.54l14.58,5.39,6.82-11.08.21-.13L396.13,188a83,83,0,0,0,12.51-4.17l5.55-3.21V170.05L346,141.23Z"/><path d="M395.77,190.53l-50.3-29-6.73,10.95-18-6.65V152.15l25.13-13.57,70.7,29.89V182l-6.74,3.9a84,84,0,0,1-13.13,4.42Zm-51.23-34.87,1.41.57,50.53,29.18a80.2,80.2,0,0,0,11.22-3.81l4.09-2.39v-7.57l-65.66-27.76L325.54,155v7.45l11.17,4.13,6.11-9.93Z"/><path class="cls-1" d="M344.75,147.76l-.21.12L337.72,159l-14.58-5.39,9.75-15.32L346,130.69,414.17,170s0,0,0,0L398.77,179Z"/><path d="M398.77,181.72l-53.3-30.78-6.73,11-19.21-7.11,11.66-18.31L346,127.92l70.56,40.74v2.68l-1.07.72Zm-54.23-36.6,1.41.57,52.82,30.5,10.63-6.14L346,133.45,334.6,140l-7.85,12.32,10,3.68,6.11-9.93Z"/><rect class="cls-1" x="404.9" y="207.4" width="4.79" height="19.24"/></g></g></svg>