<svg xmlns="http://www.w3.org/2000/svg" viewBox="0 0 172.5 168.91"><defs><style>.cls-1{fill:#fff;}.cls-2{fill:#acd4f7;}.cls-3{opacity:0.13;}</style></defs><g id="Layer_2" data-name="Layer 2"><g id="Layer_1-2" data-name="Layer 1"><path class="cls-1" d="M49.12,2.76C89.22,1,129.4.82,169.17,2.47c2.64,44.41,4,89.44-5.06,133-1.41,6.74-3.14,13.6-7,19.24a27.89,27.89,0,0,1-30.71,10.53c-30.88-.51-56-3.54-87.53-5.13C53.82,108.28,48.07,55.9,49.12,2.76Z"/><path d="M134.28,167.64a29.25,29.25,0,0,1-8.11-1.14c-18.67-.31-35-1.53-52.4-2.82-11.1-.82-22.59-1.68-35-2.3a1.31,1.31,0,0,1-1.2-1.68C48.8,120.92,48.34,82.63,47.86,42.1c-.16-12.88-.32-26.19-.06-39.37a1.33,1.33,0,0,1,1.26-1.29C89.59-.38,130-.48,169.23,1.16a1.31,1.31,0,0,1,1.26,1.23c2.55,43,4.26,88.64-5.09,133.3-1.34,6.41-3.11,13.74-7.24,19.72A29,29,0,0,1,134.28,167.64Zm-93.72-8.81c11.81.62,22.78,1.44,33.41,2.23,17.36,1.29,33.75,2.5,52.42,2.81a1.35,1.35,0,0,1,.35.06c10.94,3.22,23-.9,29.26-10,3.84-5.57,5.54-12.6,6.82-18.76,9.2-43.94,7.61-89,5.11-131.41C129.57,2.17,90,2.27,50.41,4c-.22,12.73-.07,25.59.08,38.05C51,80.48,51.42,120.18,40.56,158.83Z"/><path class="cls-1" d="M3.24,131.61c38.75-.69,77.52-.41,115.57.18a46.42,46.42,0,0,0,5.68,29.14c1.58,2.74,4,5.6,7,5.41-36.22-.34-71.65,3-108.24,0-6.82-.91-15.81-3.93-19.53-13.52C1.16,146.29.12,138.67,3.24,131.61Z"/><path d="M57.56,168.91c-11.4,0-22.91-.32-34.45-1.25-10.43-1.4-17.54-6.37-20.65-14.37-2.18-5.63-4-14-.43-22.21a1.33,1.33,0,0,1,1.18-.79c33.25-.59,68.91-.54,115.62.18a1.3,1.3,0,0,1,1,.46,1.32,1.32,0,0,1,.3,1,44.9,44.9,0,0,0,5.52,28.32c1,1.72,2.94,4.51,5.25,4.74h.59a1.32,1.32,0,0,1,.07,2.63,5.47,5.47,0,0,1-.81,0c-13-.1-26.21.26-38.94.62C80.54,168.59,69.1,168.91,57.56,168.91Zm-53.44-36c-2.79,7.1-1.14,14.45.8,19.43,3.45,8.91,12,11.82,18.47,12.7,23,1.87,46.05,1.22,68.32.6,11.16-.31,22.65-.64,34.12-.64a18.58,18.58,0,0,1-2.48-3.41,47.54,47.54,0,0,1-6-28.51C71.76,132.39,36.75,132.34,4.12,132.91Z"/><path class="cls-2" d="M39.2,60.3c-.68,15.64-.83,30.83-.36,46.6,10.88,0,22,1.26,32.92-.3-.52-15.15-1-30.3-1.09-45.79,5.45,0,10.91,0,16.41-.1C76.63,48.54,66.18,36.37,55,24Q38.57,41.43,23.44,60.16C28.72,60.16,34.1,60.3,39.2,60.3Z"/><path d="M59,108.7c-3.5,0-7-.12-10.42-.24-3.22-.12-6.55-.24-9.78-.25a1.31,1.31,0,0,1-1.31-1.27c-.45-14.9-.35-29.74.3-45.33l-6.54-.06c-2.61,0-5.25-.07-7.86-.08a1.32,1.32,0,0,1-1-2.14C32.68,46.67,43.32,34.49,54,23.13a1.2,1.2,0,0,1,1-.42,1.32,1.32,0,0,1,1,.43C67.16,35.48,77.77,47.84,88,59.8a1.37,1.37,0,0,1,.22,1.42,1.3,1.3,0,0,1-1.15.81c-5.07.1-10.17.1-15.11.1.13,13.16.47,26.93,1.08,44.43A1.32,1.32,0,0,1,72,107.91,91.61,91.61,0,0,1,59,108.7Zm-18.92-3.11c2.87,0,5.77.14,8.59.24,7.14.25,14.52.52,21.7-.37-.61-17.54-.93-31.35-1.06-44.63a1.35,1.35,0,0,1,.38-.94,1.33,1.33,0,0,1,.94-.39h0c4.45,0,9,0,13.58-.06C74.83,48.46,65.13,37.2,55,26,45.23,36.34,35.57,47.39,26.19,58.85l5.13.06C34,59,36.63,59,39.2,59a1.32,1.32,0,0,1,.95.41,1.34,1.34,0,0,1,.37,1C39.84,75.94,39.71,90.75,40.12,105.59Z"/><path d="M149,34.58h0c-21.21-.57-42.72-.66-63.92-.26A1.3,1.3,0,0,1,83.75,33,1.32,1.32,0,0,1,85,31.69c21.24-.4,42.79-.31,64,.26a1.32,1.32,0,0,1,0,2.63Z"/><path d="M147.24,58.41h0L99.13,58a1.32,1.32,0,1,1,0-2.63h0l48.1.42a1.32,1.32,0,0,1,0,2.64Z"/><path d="M83.83,82.79a1.32,1.32,0,0,1,0-2.63c20.71-.76,41.73-1.09,62.47-1a1.32,1.32,0,0,1,0,2.64h0c-20.72-.13-41.69.2-62.36,1Z"/><path d="M83.17,105.1a1.32,1.32,0,0,1,0-2.64l63.21-1.07a1.34,1.34,0,0,1,1.33,1.3A1.31,1.31,0,0,1,146.4,104L83.2,105.1Z"/><path d="M9.82,144.85a.48.48,0,0,1-.23-.07.44.44,0,0,1-.14-.61,49.51,49.51,0,0,1,5.94-7.6.43.43,0,0,1,.62,0,.44.44,0,0,1,0,.62,48.44,48.44,0,0,0-5.83,7.46A.44.44,0,0,1,9.82,144.85Z"/><path d="M10.74,156.49a.43.43,0,0,1-.36-.68,140.78,140.78,0,0,1,15.16-19,.44.44,0,1,1,.63.6,140.38,140.38,0,0,0-15.06,18.89A.43.43,0,0,1,10.74,156.49Z"/><path d="M18.17,161.06a.42.42,0,0,1-.24-.07.44.44,0,0,1-.13-.6,208,208,0,0,1,17.5-23.53.44.44,0,0,1,.62,0,.43.43,0,0,1,0,.62,206.12,206.12,0,0,0-17.43,23.42A.45.45,0,0,1,18.17,161.06Z"/><path d="M29.48,162a.46.46,0,0,1-.23-.06.45.45,0,0,1-.15-.61,271.49,271.49,0,0,1,16.77-24.06.44.44,0,1,1,.69.54,271.11,271.11,0,0,0-16.71,24A.43.43,0,0,1,29.48,162Z"/><path d="M39.81,162.94a.43.43,0,0,1-.36-.68l16.84-25.51a.44.44,0,0,1,.73.49l-16.84,25.5A.43.43,0,0,1,39.81,162.94Z"/><path d="M51.44,162.15a.42.42,0,0,1-.24-.07.44.44,0,0,1-.13-.6c5.37-8.22,10.59-16.7,15.52-25.19a.43.43,0,0,1,.6-.16.44.44,0,0,1,.16.6c-4.94,8.51-10.17,17-15.54,25.23A.47.47,0,0,1,51.44,162.15Z"/><path d="M61.49,162.35a.39.39,0,0,1-.25-.08.42.42,0,0,1-.11-.6c5.47-8.12,10.86-16.47,16-24.84a.45.45,0,0,1,.61-.14.44.44,0,0,1,.14.6c-5.16,8.38-10.56,16.74-16,24.87A.44.44,0,0,1,61.49,162.35Z"/><path d="M73.09,162a.41.41,0,0,1-.25-.08.42.42,0,0,1-.11-.6c5.3-7.87,10.38-16,15.09-24.3a.44.44,0,0,1,.77.44c-4.72,8.27-9.82,16.46-15.14,24.35A.44.44,0,0,1,73.09,162Z"/><path d="M84.1,161.26a.54.54,0,0,1-.21,0,.44.44,0,0,1-.17-.6l13.56-23.87a.44.44,0,0,1,.77.43L84.48,161A.43.43,0,0,1,84.1,161.26Z"/><path d="M93.57,162.28a.43.43,0,0,1-.22-.06.44.44,0,0,1-.16-.6c4.91-8.67,10.14-17.3,15.57-25.66a.44.44,0,0,1,.74.47c-5.42,8.35-10.65,17-15.55,25.62A.43.43,0,0,1,93.57,162.28Z"/><path d="M105.13,160.49a.54.54,0,0,1-.21-.05.44.44,0,0,1-.18-.59,111.46,111.46,0,0,1,8.56-13.71.43.43,0,1,1,.7.51,110.46,110.46,0,0,0-8.48,13.61A.45.45,0,0,1,105.13,160.49Z"/><path d="M113.6,162.32a.43.43,0,0,1-.37-.68l2.87-4.28a.45.45,0,0,1,.61-.12.44.44,0,0,1,.12.61L114,162.13A.41.41,0,0,1,113.6,162.32Z"/><g class="cls-3"><path d="M124,158.87h0v0Z"/></g><g class="cls-3"><path d="M124,158.85c-.08-.2-.06-.14,0,0Z"/></g><g class="cls-3"><path d="M128.05,162.22a16.44,16.44,0,0,0-3.4-1.85c-.19-.51-.45-1-.67-1.5,0,0,0,.11.07.17a34,34,0,0,1-1.57-4.28c-.18-.49-.81-3-1-3.31a2.58,2.58,0,0,0-.71-1.79,2.44,2.44,0,0,0-3.4,0,3.75,3.75,0,0,0-.84,1.92l-.09.28c-.12.2-.37.69-.62,1.07-.09.11-.26.33-.42.56-1.33,1.39-.3.52-2.16,1.77a12,12,0,0,1-1.66.88l-.24.09c-1.57.52-2.44.8-3.19,1-3.28,0-7.09.2-10.09.38-6.75,0-13.47.73-20.22.82-6.79.44-13.59.59-20.38.87s-13.41.84-20.12.2c-6.21-.68-11.7-1.28-18.09-2.39a31.54,31.54,0,0,1-5.2-1.51c-1-.52-2.12-1.12-3.31-.74a3.19,3.19,0,0,0-.76,5.78,48.23,48.23,0,0,0,12,4.07c.55.15,3.62.58,4.67.72.37.06.79.11,1,.13a110.13,110.13,0,0,0,16.31,1.59c5.13.08,10.23-.52,15.35-.73,10.15-.47,20.31-.79,30.43-1.74a2.22,2.22,0,0,0,.56,1c1.28,1.15,3.19.57,4.77.74l-.67-.09c3.56.39,7.17-.24,10.74-.37a102.17,102.17,0,0,1,12.25-.33c.72,0,1.44.08,2.15.16a2.76,2.76,0,0,0,1.12.79,2.63,2.63,0,0,0,2.83-.34l1.14.12.33.06C127.73,167.22,130.06,164.45,128.05,162.22Z"/></g><g class="cls-3"><path d="M147,161.92l-.05,0h0Z"/></g><g class="cls-3"><path d="M152.08,158.49a3.16,3.16,0,0,0-.49-1,8,8,0,0,0-1.1-1.29,27.2,27.2,0,0,0-2.33-2.35c-3.85-3.81-8.14-7.14-12.2-10.72-4.71-4-9.2-8.25-14.1-12-3-2.85-6.79,1.32-3.49,3.77l.22.16a3.27,3.27,0,0,0-.42,3.95l.29.46a6.88,6.88,0,0,0-.27.84,13.69,13.69,0,0,0,1,6.85,10.21,10.21,0,0,0,.23,3.35,19,19,0,0,0,3.38,7.57c3.12,4.43,12.29,13.29,17.13,6.87a3.46,3.46,0,0,0,.47-1.41,3.63,3.63,0,0,0,3.77.54,3.53,3.53,0,0,0,2.17-2.66l.6.46a1.53,1.53,0,0,0,.21.14,4.6,4.6,0,0,0,.85.38A3.24,3.24,0,0,0,152.08,158.49Z"/></g><g class="cls-3"><path d="M146.94,161.87l-.62-.47A5.61,5.61,0,0,0,146.94,161.87Z"/></g><g class="cls-3"><path d="M93,59.5a11.24,11.24,0,0,0-2.61-4.37C89,53.52,87.5,51.88,86,50.3,79.68,43.81,73.11,37.59,66.91,31c-2.14-2.38-4.2-4.83-6.43-7.12-.79-.69-1.36-1.7-2.35-2.1a2.46,2.46,0,0,0-3.1,1,2.52,2.52,0,0,0,.06,2.57h0a2,2,0,0,0,.25.33l.42.56.15.18c6.82,8.55,14.83,16,22.25,24,2.77,3.09,7.68,8.27,9.14,9.88l.15.24.07.12a1.85,1.85,0,0,0-.4.12,77.55,77.55,0,0,0-10.79-.14,5.6,5.6,0,0,1-.59.07,2.71,2.71,0,0,0-1.84.09,4.78,4.78,0,0,0-2.51.69,2.62,2.62,0,0,0-1.56,3.22c.6,5.61,1.8,18.17,2,26.5a94.57,94.57,0,0,1,.34,13.36c0,.47,0,.93,0,1.4V106c0,.12,0,.24,0,.36-4.47.64-5.56,1-10.73,1-3.28-.13-6.56-.64-9.84-.24-1.29.1-2.76.35-3.43,1.62a3,3,0,0,0,3.4,4.42l.42-.07a31.45,31.45,0,0,1,5-.07,54.7,54.7,0,0,0,7.57.39,68.33,68.33,0,0,0,6.84-.71,24.39,24.39,0,0,0,2.84-.48,5.66,5.66,0,0,0,5-2.42,1.81,1.81,0,0,0,.59-.61c.55-1.28.13-2.79.21-4.15,0-1.51-.05-3-.24-4.51a3.7,3.7,0,0,0-.42-1.61c0-.27,0-.53,0-.77-.26-10-1.17-20.07-1.54-30.12,0-.53,0-1.06-.06-1.59,1.77,0,3.54,0,5.31,0a3,3,0,0,0,.52,0l1,0a13.55,13.55,0,0,0,3.54-.16,3.06,3.06,0,0,0,.68-.25,6.05,6.05,0,0,0,2.94-1.58,5,5,0,0,0,1.21-2.15A5.66,5.66,0,0,0,93,59.5Z"/></g><g class="cls-3"><path d="M55.79,26.32l0,0-.36-.47Z"/></g></g></g></svg>