<svg xmlns="http://www.w3.org/2000/svg" viewBox="0 0 593.85 67.94"><defs><style>.cls-1{fill:#f5d242;}</style></defs><g id="Layer_2" data-name="Layer 2"><g id="Layer_1-2" data-name="Layer 1"><path class="cls-1" d="M259.24,50.38c-.95,5.57-7.46,8.26-8.62,8.69a.07.07,0,0,0,0,.13c1.16.44,7.67,3.11,8.62,8.68a.07.07,0,0,0,.13,0c.95-5.57,7.52-8.24,8.7-8.68a.07.07,0,0,0,0-.13c-1.18-.43-7.75-3.12-8.7-8.69A.07.07,0,0,0,259.24,50.38Z"/><path class="cls-1" d="M284.3,50.38c-.95,5.57-7.47,8.26-8.63,8.69a.07.07,0,0,0,0,.13c1.16.44,7.68,3.11,8.63,8.68,0,.08.11.08.13,0,.95-5.57,7.52-8.24,8.69-8.68a.07.07,0,0,0,0-.13c-1.17-.43-7.74-3.12-8.69-8.69C284.41,50.3,284.31,50.3,284.3,50.38Z"/><path class="cls-1" d="M309.36,50.38c-.95,5.57-7.47,8.26-8.63,8.69a.07.07,0,0,0,0,.13c1.16.44,7.68,3.11,8.63,8.68a.06.06,0,0,0,.12,0c1-5.57,7.53-8.24,8.7-8.68a.07.07,0,0,0,0-.13c-1.17-.43-7.74-3.12-8.7-8.69A.06.06,0,1,0,309.36,50.38Z"/><path class="cls-1" d="M334.41,50.38c-1,5.57-7.46,8.26-8.62,8.69a.07.07,0,0,0,0,.13c1.16.44,7.67,3.11,8.62,8.68,0,.08.12.08.13,0,.95-5.57,7.52-8.24,8.7-8.68a.07.07,0,0,0,0-.13c-1.17-.43-7.75-3.12-8.7-8.69C334.53,50.3,334.43,50.3,334.41,50.38Z"/><path class="cls-1" d="M359.47,50.38c-1,5.57-7.47,8.26-8.63,8.69a.07.07,0,0,0,0,.13c1.16.44,7.68,3.11,8.63,8.68a.07.07,0,0,0,.13,0c.95-5.57,7.52-8.24,8.69-8.68a.07.07,0,0,0,0-.13c-1.17-.43-7.74-3.12-8.69-8.69A.07.07,0,0,0,359.47,50.38Z"/><path class="cls-1" d="M384.53,50.38c-.95,5.57-7.47,8.26-8.63,8.69a.07.07,0,0,0,0,.13c1.16.44,7.68,3.11,8.63,8.68,0,.08.11.08.13,0,.95-5.57,7.52-8.24,8.69-8.68a.07.07,0,0,0,0-.13c-1.17-.43-7.74-3.12-8.69-8.69C384.64,50.3,384.54,50.3,384.53,50.38Z"/><path class="cls-1" d="M409.58,50.38c-.95,5.57-7.46,8.26-8.62,8.69a.07.07,0,0,0,0,.13c1.16.44,7.67,3.11,8.62,8.68,0,.08.12.08.13,0,1-5.57,7.53-8.24,8.7-8.68a.07.07,0,0,0,0-.13c-1.17-.43-7.75-3.12-8.7-8.69C409.7,50.3,409.6,50.3,409.58,50.38Z"/><path class="cls-1" d="M434.64,50.38c-.95,5.57-7.47,8.26-8.63,8.69a.07.07,0,0,0,0,.13c1.17.44,7.68,3.11,8.63,8.68a.07.07,0,0,0,.13,0c1-5.57,7.52-8.24,8.69-8.68a.07.07,0,0,0,0-.13c-1.17-.43-7.74-3.12-8.69-8.69A.07.07,0,0,0,434.64,50.38Z"/><path class="cls-1" d="M459.7,50.38c-.95,5.57-7.47,8.26-8.63,8.69a.07.07,0,0,0,0,.13c1.16.44,7.68,3.11,8.63,8.68,0,.08.11.08.13,0,.95-5.57,7.52-8.24,8.69-8.68a.07.07,0,0,0,0-.13c-1.17-.43-7.74-3.12-8.69-8.69C459.81,50.3,459.71,50.3,459.7,50.38Z"/><path class="cls-1" d="M484.75,50.38c-.95,5.57-7.46,8.26-8.62,8.69a.07.07,0,0,0,0,.13c1.16.44,7.67,3.11,8.62,8.68,0,.08.12.08.13,0,1-5.57,7.53-8.24,8.7-8.68a.07.07,0,0,0,0-.13c-1.17-.43-7.74-3.12-8.7-8.69C484.87,50.3,484.77,50.3,484.75,50.38Z"/><path class="cls-1" d="M8.67,50.38C7.72,56,1.21,58.64,0,59.07a.07.07,0,0,0,0,.13c1.17.44,7.68,3.11,8.63,8.68a.07.07,0,0,0,.13,0c.95-5.57,7.52-8.24,8.69-8.68a.07.07,0,0,0,0-.13c-1.18-.43-7.75-3.12-8.7-8.69A.07.07,0,0,0,8.67,50.38Z"/><path class="cls-1" d="M33.73,50.38c-.95,5.57-7.47,8.26-8.63,8.69a.07.07,0,0,0,0,.13c1.16.44,7.68,3.11,8.63,8.68,0,.08.11.08.13,0,1-5.57,7.52-8.24,8.69-8.68a.07.07,0,0,0,0-.13c-1.17-.43-7.74-3.12-8.69-8.69C33.84,50.3,33.74,50.3,33.73,50.38Z"/><path class="cls-1" d="M58.78,50.38c-.94,5.57-7.46,8.26-8.62,8.69a.07.07,0,0,0,0,.13c1.16.44,7.68,3.11,8.62,8.68,0,.08.12.08.13,0,1-5.57,7.53-8.24,8.7-8.68a.07.07,0,0,0,0-.13c-1.17-.43-7.74-3.12-8.7-8.69C58.9,50.3,58.8,50.3,58.78,50.38Z"/><path class="cls-1" d="M83.84,50.38c-1,5.57-7.46,8.26-8.62,8.69a.07.07,0,0,0,0,.13c1.16.44,7.67,3.11,8.62,8.68,0,.08.12.08.13,0,1-5.57,7.52-8.24,8.7-8.68a.07.07,0,0,0,0-.13C91.5,58.64,84.92,56,84,50.38,84,50.3,83.86,50.3,83.84,50.38Z"/><path class="cls-1" d="M108.9,50.38c-1,5.57-7.47,8.26-8.63,8.69a.07.07,0,0,0,0,.13c1.16.44,7.68,3.11,8.63,8.68a.07.07,0,0,0,.13,0c1-5.57,7.52-8.24,8.69-8.68a.07.07,0,0,0,0-.13C116.55,58.64,110,56,109,50.38A.07.07,0,0,0,108.9,50.38Z"/><path class="cls-1" d="M134,50.38c-1,5.57-7.47,8.26-8.63,8.69a.07.07,0,0,0,0,.13c1.16.44,7.68,3.11,8.63,8.68,0,.08.11.08.13,0,.95-5.57,7.52-8.24,8.69-8.68a.07.07,0,0,0,0-.13c-1.17-.43-7.74-3.12-8.69-8.69C134.07,50.3,134,50.3,134,50.38Z"/><path class="cls-1" d="M159,50.38c-.95,5.57-7.46,8.26-8.62,8.69a.07.07,0,0,0,0,.13c1.16.44,7.67,3.11,8.62,8.68,0,.08.12.08.13,0,1-5.57,7.53-8.24,8.7-8.68a.07.07,0,0,0,0-.13c-1.17-.43-7.75-3.12-8.7-8.69C159.13,50.3,159,50.3,159,50.38Z"/><path class="cls-1" d="M184.07,50.38c-.95,5.57-7.47,8.26-8.63,8.69a.07.07,0,0,0,0,.13c1.16.44,7.68,3.11,8.63,8.68a.07.07,0,0,0,.13,0c1-5.57,7.52-8.24,8.69-8.68a.07.07,0,0,0,0-.13c-1.17-.43-7.74-3.12-8.69-8.69A.07.07,0,0,0,184.07,50.38Z"/><path class="cls-1" d="M209.13,50.38c-.95,5.57-7.47,8.26-8.63,8.69a.07.07,0,0,0,0,.13c1.16.44,7.68,3.11,8.63,8.68,0,.08.11.08.13,0,1-5.57,7.52-8.24,8.69-8.68a.07.07,0,0,0,0-.13c-1.17-.43-7.74-3.12-8.69-8.69C209.24,50.3,209.14,50.3,209.13,50.38Z"/><path class="cls-1" d="M234.18,50.38c-1,5.57-7.46,8.26-8.62,8.69a.07.07,0,0,0,0,.13c1.16.44,7.67,3.11,8.62,8.68,0,.08.12.08.13,0,1-5.57,7.53-8.24,8.7-8.68a.07.07,0,0,0,0-.13c-1.17-.43-7.74-3.12-8.7-8.69C234.3,50.3,234.2,50.3,234.18,50.38Z"/><path class="cls-1" d="M259.24,25.22c-.95,5.57-7.46,8.26-8.62,8.69a.07.07,0,0,0,0,.13c1.16.43,7.67,3.1,8.62,8.68a.07.07,0,0,0,.13,0c.95-5.58,7.52-8.25,8.7-8.68a.07.07,0,0,0,0-.13c-1.18-.43-7.75-3.12-8.7-8.69A.07.07,0,0,0,259.24,25.22Z"/><path class="cls-1" d="M284.3,25.22c-.95,5.57-7.47,8.26-8.63,8.69a.07.07,0,0,0,0,.13c1.16.43,7.68,3.1,8.63,8.68a.07.07,0,0,0,.13,0c.95-5.58,7.52-8.25,8.69-8.68a.07.07,0,0,0,0-.13c-1.17-.43-7.74-3.12-8.69-8.69C284.41,25.14,284.31,25.14,284.3,25.22Z"/><path class="cls-1" d="M309.36,25.22c-.95,5.57-7.47,8.26-8.63,8.69a.07.07,0,0,0,0,.13c1.16.43,7.68,3.1,8.63,8.68a.06.06,0,0,0,.12,0c1-5.58,7.53-8.25,8.7-8.68a.07.07,0,0,0,0-.13c-1.17-.43-7.74-3.12-8.7-8.69A.06.06,0,0,0,309.36,25.22Z"/><path class="cls-1" d="M334.41,25.22c-1,5.57-7.46,8.26-8.62,8.69a.07.07,0,0,0,0,.13c1.16.43,7.67,3.1,8.62,8.68a.07.07,0,0,0,.13,0c.95-5.58,7.52-8.25,8.7-8.68a.07.07,0,0,0,0-.13c-1.17-.43-7.75-3.12-8.7-8.69C334.53,25.14,334.43,25.14,334.41,25.22Z"/><path class="cls-1" d="M359.47,25.22c-1,5.57-7.47,8.26-8.63,8.69a.07.07,0,0,0,0,.13c1.16.43,7.68,3.1,8.63,8.68a.07.07,0,0,0,.13,0c.95-5.58,7.52-8.25,8.69-8.68a.07.07,0,0,0,0-.13c-1.17-.43-7.74-3.12-8.69-8.69A.07.07,0,0,0,359.47,25.22Z"/><path class="cls-1" d="M384.53,25.22c-.95,5.57-7.47,8.26-8.63,8.69a.07.07,0,0,0,0,.13c1.16.43,7.68,3.1,8.63,8.68a.07.07,0,0,0,.13,0c.95-5.58,7.52-8.25,8.69-8.68a.07.07,0,0,0,0-.13c-1.17-.43-7.74-3.12-8.69-8.69C384.64,25.14,384.54,25.14,384.53,25.22Z"/><path class="cls-1" d="M409.58,25.22c-.95,5.57-7.46,8.26-8.62,8.69a.07.07,0,0,0,0,.13c1.16.43,7.67,3.1,8.62,8.68a.07.07,0,0,0,.13,0c1-5.58,7.53-8.25,8.7-8.68a.07.07,0,0,0,0-.13c-1.17-.43-7.75-3.12-8.7-8.69C409.7,25.14,409.6,25.14,409.58,25.22Z"/><path class="cls-1" d="M434.64,25.22c-.95,5.57-7.47,8.26-8.63,8.69a.07.07,0,0,0,0,.13c1.17.43,7.68,3.1,8.63,8.68a.07.07,0,0,0,.13,0c1-5.58,7.52-8.25,8.69-8.68a.07.07,0,0,0,0-.13c-1.17-.43-7.74-3.12-8.69-8.69A.07.07,0,0,0,434.64,25.22Z"/><path class="cls-1" d="M459.7,25.22c-.95,5.57-7.47,8.26-8.63,8.69a.07.07,0,0,0,0,.13c1.16.43,7.68,3.1,8.63,8.68a.07.07,0,0,0,.13,0c.95-5.58,7.52-8.25,8.69-8.68a.07.07,0,0,0,0-.13c-1.17-.43-7.74-3.12-8.69-8.69C459.81,25.14,459.71,25.14,459.7,25.22Z"/><path class="cls-1" d="M484.75,25.22c-.95,5.57-7.46,8.26-8.62,8.69a.07.07,0,0,0,0,.13c1.16.43,7.67,3.1,8.62,8.68a.07.07,0,0,0,.13,0c1-5.58,7.53-8.25,8.7-8.68a.07.07,0,0,0,0-.13c-1.17-.43-7.74-3.12-8.7-8.69C484.87,25.14,484.77,25.14,484.75,25.22Z"/><path class="cls-1" d="M8.67,25.22c-1,5.57-7.46,8.26-8.63,8.69A.07.07,0,0,0,0,34c1.17.43,7.68,3.1,8.63,8.68a.07.07,0,0,0,.13,0c.95-5.58,7.52-8.25,8.69-8.68a.07.07,0,0,0,0-.13c-1.18-.43-7.75-3.12-8.7-8.69A.07.07,0,0,0,8.67,25.22Z"/><path class="cls-1" d="M33.73,25.22c-.95,5.57-7.47,8.26-8.63,8.69a.07.07,0,0,0,0,.13c1.16.43,7.68,3.1,8.63,8.68a.07.07,0,0,0,.13,0c1-5.58,7.52-8.25,8.69-8.68a.07.07,0,0,0,0-.13c-1.17-.43-7.74-3.12-8.69-8.69C33.84,25.14,33.74,25.14,33.73,25.22Z"/><path class="cls-1" d="M58.78,25.22c-.94,5.57-7.46,8.26-8.62,8.69a.07.07,0,0,0,0,.13c1.16.43,7.68,3.1,8.62,8.68a.07.07,0,0,0,.13,0c1-5.58,7.53-8.25,8.7-8.68a.07.07,0,0,0,0-.13c-1.17-.43-7.74-3.12-8.7-8.69C58.9,25.14,58.8,25.14,58.78,25.22Z"/><path class="cls-1" d="M83.84,25.22c-1,5.57-7.46,8.26-8.62,8.69a.07.07,0,0,0,0,.13c1.16.43,7.67,3.1,8.62,8.68a.07.07,0,0,0,.13,0c1-5.58,7.52-8.25,8.7-8.68a.07.07,0,0,0,0-.13c-1.17-.43-7.75-3.12-8.7-8.69C84,25.14,83.86,25.14,83.84,25.22Z"/><path class="cls-1" d="M108.9,25.22c-1,5.57-7.47,8.26-8.63,8.69a.07.07,0,0,0,0,.13c1.16.43,7.68,3.1,8.63,8.68a.07.07,0,0,0,.13,0c1-5.58,7.52-8.25,8.69-8.68a.07.07,0,0,0,0-.13c-1.17-.43-7.74-3.12-8.69-8.69A.07.07,0,0,0,108.9,25.22Z"/><path class="cls-1" d="M134,25.22c-1,5.57-7.47,8.26-8.63,8.69a.07.07,0,0,0,0,.13c1.16.43,7.68,3.1,8.63,8.68a.07.07,0,0,0,.13,0c.95-5.58,7.52-8.25,8.69-8.68a.07.07,0,0,0,0-.13c-1.17-.43-7.74-3.12-8.69-8.69C134.07,25.14,134,25.14,134,25.22Z"/><path class="cls-1" d="M159,25.22c-.95,5.57-7.46,8.26-8.62,8.69a.07.07,0,0,0,0,.13c1.16.43,7.67,3.1,8.62,8.68a.07.07,0,0,0,.13,0c1-5.58,7.53-8.25,8.7-8.68a.07.07,0,0,0,0-.13c-1.17-.43-7.75-3.12-8.7-8.69C159.13,25.14,159,25.14,159,25.22Z"/><path class="cls-1" d="M184.07,25.22c-.95,5.57-7.47,8.26-8.63,8.69a.07.07,0,0,0,0,.13c1.16.43,7.68,3.1,8.63,8.68a.07.07,0,0,0,.13,0c1-5.58,7.52-8.25,8.69-8.68a.07.07,0,0,0,0-.13c-1.17-.43-7.74-3.12-8.69-8.69A.07.07,0,0,0,184.07,25.22Z"/><path class="cls-1" d="M209.13,25.22c-.95,5.57-7.47,8.26-8.63,8.69a.07.07,0,0,0,0,.13c1.16.43,7.68,3.1,8.63,8.68a.07.07,0,0,0,.13,0c1-5.58,7.52-8.25,8.69-8.68a.07.07,0,0,0,0-.13c-1.17-.43-7.74-3.12-8.69-8.69C209.24,25.14,209.14,25.14,209.13,25.22Z"/><path class="cls-1" d="M234.18,25.22c-1,5.57-7.46,8.26-8.62,8.69a.07.07,0,0,0,0,.13c1.16.43,7.67,3.1,8.62,8.68a.07.07,0,0,0,.13,0c1-5.58,7.53-8.25,8.7-8.68a.07.07,0,0,0,0-.13c-1.17-.43-7.74-3.12-8.7-8.69C234.3,25.14,234.2,25.14,234.18,25.22Z"/><path class="cls-1" d="M259.24.06c-.95,5.57-7.46,8.26-8.62,8.69a.07.07,0,0,0,0,.13c1.16.43,7.67,3.1,8.62,8.67a.07.07,0,0,0,.13,0c.95-5.57,7.52-8.24,8.7-8.67a.07.07,0,0,0,0-.13c-1.18-.44-7.75-3.12-8.7-8.69A.07.07,0,0,0,259.24.06Z"/><path class="cls-1" d="M284.3.06c-.95,5.57-7.47,8.26-8.63,8.69a.07.07,0,0,0,0,.13c1.16.43,7.68,3.1,8.63,8.67,0,.08.11.08.13,0,.95-5.57,7.52-8.24,8.69-8.67a.07.07,0,0,0,0-.13c-1.17-.44-7.74-3.12-8.69-8.69C284.41,0,284.31,0,284.3.06Z"/><path class="cls-1" d="M309.36.06c-.95,5.57-7.47,8.26-8.63,8.69a.07.07,0,0,0,0,.13c1.16.43,7.68,3.1,8.63,8.67a.06.06,0,0,0,.12,0c1-5.57,7.53-8.24,8.7-8.67a.07.07,0,0,0,0-.13c-1.17-.44-7.74-3.12-8.7-8.69A.06.06,0,1,0,309.36.06Z"/><path class="cls-1" d="M334.41.06c-1,5.57-7.46,8.26-8.62,8.69a.07.07,0,0,0,0,.13c1.16.43,7.67,3.1,8.62,8.67,0,.08.12.08.13,0,.95-5.57,7.52-8.24,8.7-8.67a.07.07,0,0,0,0-.13c-1.17-.44-7.75-3.12-8.7-8.69C334.53,0,334.43,0,334.41.06Z"/><path class="cls-1" d="M359.47.06c-1,5.57-7.47,8.26-8.63,8.69a.07.07,0,0,0,0,.13c1.16.43,7.68,3.1,8.63,8.67a.07.07,0,0,0,.13,0c.95-5.57,7.52-8.24,8.69-8.67a.07.07,0,0,0,0-.13c-1.17-.44-7.74-3.12-8.69-8.69A.07.07,0,0,0,359.47.06Z"/><path class="cls-1" d="M384.53.06c-.95,5.57-7.47,8.26-8.63,8.69a.07.07,0,0,0,0,.13c1.16.43,7.68,3.1,8.63,8.67,0,.08.11.08.13,0,.95-5.57,7.52-8.24,8.69-8.67a.07.07,0,0,0,0-.13c-1.17-.44-7.74-3.12-8.69-8.69C384.64,0,384.54,0,384.53.06Z"/><path class="cls-1" d="M409.58.06c-.95,5.57-7.46,8.26-8.62,8.69a.07.07,0,0,0,0,.13c1.16.43,7.67,3.1,8.62,8.67,0,.08.12.08.13,0,1-5.57,7.53-8.24,8.7-8.67a.07.07,0,0,0,0-.13c-1.17-.44-7.75-3.12-8.7-8.69C409.7,0,409.6,0,409.58.06Z"/><path class="cls-1" d="M434.64.06c-.95,5.57-7.47,8.26-8.63,8.69a.07.07,0,0,0,0,.13c1.17.43,7.68,3.1,8.63,8.67a.07.07,0,0,0,.13,0c1-5.57,7.52-8.24,8.69-8.67a.07.07,0,0,0,0-.13c-1.17-.44-7.74-3.12-8.69-8.69A.07.07,0,0,0,434.64.06Z"/><path class="cls-1" d="M459.7.06c-.95,5.57-7.47,8.26-8.63,8.69a.07.07,0,0,0,0,.13c1.16.43,7.68,3.1,8.63,8.67,0,.08.11.08.13,0,.95-5.57,7.52-8.24,8.69-8.67a.07.07,0,0,0,0-.13c-1.17-.44-7.74-3.12-8.69-8.69C459.81,0,459.71,0,459.7.06Z"/><path class="cls-1" d="M484.75.06c-.95,5.57-7.46,8.26-8.62,8.69a.07.07,0,0,0,0,.13c1.16.43,7.67,3.1,8.62,8.67,0,.08.12.08.13,0,1-5.57,7.53-8.24,8.7-8.67a.07.07,0,0,0,0-.13c-1.17-.44-7.74-3.12-8.7-8.69C484.87,0,484.77,0,484.75.06Z"/><path class="cls-1" d="M509.81,50.38c-.95,5.57-7.46,8.26-8.62,8.69a.07.07,0,0,0,0,.13c1.16.44,7.67,3.11,8.62,8.68a.07.07,0,0,0,.13,0c.95-5.57,7.52-8.24,8.7-8.68a.07.07,0,0,0,0-.13c-1.18-.43-7.75-3.12-8.7-8.69A.07.07,0,0,0,509.81,50.38Z"/><path class="cls-1" d="M534.87,50.38c-1,5.57-7.47,8.26-8.63,8.69a.07.07,0,0,0,0,.13c1.16.44,7.68,3.11,8.63,8.68,0,.08.11.08.13,0,1-5.57,7.52-8.24,8.69-8.68a.07.07,0,0,0,0-.13C542.52,58.64,536,56,535,50.38,535,50.3,534.88,50.3,534.87,50.38Z"/><path class="cls-1" d="M559.93,50.38c-.95,5.57-7.47,8.26-8.63,8.69a.07.07,0,0,0,0,.13c1.16.44,7.68,3.11,8.63,8.68a.06.06,0,1,0,.12,0c1-5.57,7.53-8.24,8.7-8.68a.07.07,0,0,0,0-.13c-1.17-.43-7.74-3.12-8.7-8.69A.06.06,0,1,0,559.93,50.38Z"/><path class="cls-1" d="M585,50.38c-1,5.57-7.46,8.26-8.62,8.69a.07.07,0,0,0,0,.13c1.16.44,7.67,3.11,8.62,8.68,0,.08.12.08.13,0,.95-5.57,7.53-8.24,8.7-8.68a.07.07,0,0,0,0-.13c-1.17-.43-7.75-3.12-8.7-8.69C585.1,50.3,585,50.3,585,50.38Z"/><path class="cls-1" d="M509.81,25.22c-.95,5.57-7.46,8.26-8.62,8.69a.07.07,0,0,0,0,.13c1.16.43,7.67,3.1,8.62,8.68a.07.07,0,0,0,.13,0c.95-5.58,7.52-8.25,8.7-8.68a.07.07,0,0,0,0-.13c-1.18-.43-7.75-3.12-8.7-8.69A.07.07,0,0,0,509.81,25.22Z"/><path class="cls-1" d="M534.87,25.22c-1,5.57-7.47,8.26-8.63,8.69a.07.07,0,0,0,0,.13c1.16.43,7.68,3.1,8.63,8.68a.07.07,0,0,0,.13,0c1-5.58,7.52-8.25,8.69-8.68a.07.07,0,0,0,0-.13c-1.17-.43-7.74-3.12-8.69-8.69C535,25.14,534.88,25.14,534.87,25.22Z"/><path class="cls-1" d="M559.93,25.22c-.95,5.57-7.47,8.26-8.63,8.69a.07.07,0,0,0,0,.13c1.16.43,7.68,3.1,8.63,8.68a.06.06,0,0,0,.12,0c1-5.58,7.53-8.25,8.7-8.68a.07.07,0,0,0,0-.13c-1.17-.43-7.74-3.12-8.7-8.69A.06.06,0,0,0,559.93,25.22Z"/><path class="cls-1" d="M585,25.22c-1,5.57-7.46,8.26-8.62,8.69a.07.07,0,0,0,0,.13c1.16.43,7.67,3.1,8.62,8.68a.07.07,0,0,0,.13,0c.95-5.58,7.53-8.25,8.7-8.68a.07.07,0,0,0,0-.13c-1.17-.43-7.75-3.12-8.7-8.69C585.1,25.14,585,25.14,585,25.22Z"/><path class="cls-1" d="M509.81.06c-.95,5.57-7.46,8.26-8.62,8.69a.07.07,0,0,0,0,.13c1.16.43,7.67,3.1,8.62,8.67a.07.07,0,0,0,.13,0c.95-5.57,7.52-8.24,8.7-8.67a.07.07,0,0,0,0-.13c-1.18-.44-7.75-3.12-8.7-8.69A.07.07,0,0,0,509.81.06Z"/><path class="cls-1" d="M534.87.06c-1,5.57-7.47,8.26-8.63,8.69a.07.07,0,0,0,0,.13c1.16.43,7.68,3.1,8.63,8.67,0,.08.11.08.13,0,1-5.57,7.52-8.24,8.69-8.67a.07.07,0,0,0,0-.13C542.52,8.31,536,5.63,535,.06,535,0,534.88,0,534.87.06Z"/><path class="cls-1" d="M8.67.06C7.72,5.63,1.21,8.32,0,8.75a.08.08,0,0,0,0,.13c1.17.43,7.68,3.1,8.63,8.67a.07.07,0,0,0,.13,0c.95-5.57,7.52-8.24,8.69-8.67a.07.07,0,0,0,0-.13C16.32,8.31,9.75,5.63,8.8.06A.07.07,0,0,0,8.67.06Z"/><path class="cls-1" d="M33.73.06c-.95,5.57-7.47,8.26-8.63,8.69a.07.07,0,0,0,0,.13c1.16.43,7.68,3.1,8.63,8.67,0,.08.11.08.13,0,1-5.57,7.52-8.24,8.69-8.67a.07.07,0,0,0,0-.13c-1.17-.44-7.74-3.12-8.69-8.69C33.84,0,33.74,0,33.73.06Z"/><path class="cls-1" d="M58.78.06c-.94,5.57-7.46,8.26-8.62,8.69a.07.07,0,0,0,0,.13c1.16.43,7.68,3.1,8.62,8.67,0,.08.12.08.13,0,1-5.57,7.53-8.24,8.7-8.67a.07.07,0,0,0,0-.13c-1.17-.44-7.74-3.12-8.7-8.69C58.9,0,58.8,0,58.78.06Z"/><path class="cls-1" d="M83.84.06c-1,5.57-7.46,8.26-8.62,8.69a.07.07,0,0,0,0,.13c1.16.43,7.67,3.1,8.62,8.67,0,.08.12.08.13,0,1-5.57,7.52-8.24,8.7-8.67a.07.07,0,0,0,0-.13C91.5,8.31,84.92,5.63,84,.06,84,0,83.86,0,83.84.06Z"/><path class="cls-1" d="M108.9.06c-1,5.57-7.47,8.26-8.63,8.69a.07.07,0,0,0,0,.13c1.16.43,7.68,3.1,8.63,8.67a.07.07,0,0,0,.13,0c1-5.57,7.52-8.24,8.69-8.67a.07.07,0,0,0,0-.13C116.55,8.31,110,5.63,109,.06A.07.07,0,0,0,108.9.06Z"/><path class="cls-1" d="M134,.06c-1,5.57-7.47,8.26-8.63,8.69a.07.07,0,0,0,0,.13c1.16.43,7.68,3.1,8.63,8.67,0,.08.11.08.13,0,.95-5.57,7.52-8.24,8.69-8.67a.07.07,0,0,0,0-.13c-1.17-.44-7.74-3.12-8.69-8.69C134.07,0,134,0,134,.06Z"/><path class="cls-1" d="M159,.06c-.95,5.57-7.46,8.26-8.62,8.69a.07.07,0,0,0,0,.13c1.16.43,7.67,3.1,8.62,8.67,0,.08.12.08.13,0,1-5.57,7.53-8.24,8.7-8.67a.07.07,0,0,0,0-.13c-1.17-.44-7.75-3.12-8.7-8.69C159.13,0,159,0,159,.06Z"/><path class="cls-1" d="M184.07.06c-.95,5.57-7.47,8.26-8.63,8.69a.07.07,0,0,0,0,.13c1.16.43,7.68,3.1,8.63,8.67a.07.07,0,0,0,.13,0c1-5.57,7.52-8.24,8.69-8.67a.07.07,0,0,0,0-.13c-1.17-.44-7.74-3.12-8.69-8.69A.07.07,0,0,0,184.07.06Z"/><path class="cls-1" d="M209.13.06c-.95,5.57-7.47,8.26-8.63,8.69a.07.07,0,0,0,0,.13c1.16.43,7.68,3.1,8.63,8.67,0,.08.11.08.13,0,1-5.57,7.52-8.24,8.69-8.67a.07.07,0,0,0,0-.13c-1.17-.44-7.74-3.12-8.69-8.69C209.24,0,209.14,0,209.13.06Z"/><path class="cls-1" d="M234.18.06c-1,5.57-7.46,8.26-8.62,8.69a.07.07,0,0,0,0,.13c1.16.43,7.67,3.1,8.62,8.67,0,.08.12.08.13,0,1-5.57,7.53-8.24,8.7-8.67a.07.07,0,0,0,0-.13c-1.17-.44-7.74-3.12-8.7-8.69C234.3,0,234.2,0,234.18.06Z"/></g></g></svg>