<svg xmlns="http://www.w3.org/2000/svg" viewBox="0 0 431.66 431.66"><defs><style>.cls-1{fill:#f5d242;}.cls-2{fill:#fff;}.cls-3{fill-rule:evenodd;}</style></defs><g id="Layer_2" data-name="Layer 2"><g id="Layer_1-2" data-name="Layer 1"><circle class="cls-1" cx="215.83" cy="215.83" r="215.83" transform="translate(-89.4 215.83) rotate(-45)"/><circle class="cls-2" cx="221.73" cy="217.58" r="65.5"/><path d="M219.88,284.54a68.71,68.71,0,1,1,64.7-91.88,2.84,2.84,0,0,1-5.34,1.92,63.07,63.07,0,1,0,3.67,21.26,2.84,2.84,0,1,1,5.67,0A68.78,68.78,0,0,1,219.88,284.54Z"/><path d="M219.88,326.63A110.8,110.8,0,1,1,327.94,191.22a2.84,2.84,0,0,1-5.55,1.25A105.18,105.18,0,1,0,325,215.84a2.84,2.84,0,1,1,5.68,0A110.93,110.93,0,0,1,219.88,326.63Z"/><path class="cls-3" d="M219.88,231.22a15.39,15.39,0,1,0-15.39-15.38A15.38,15.38,0,0,0,219.88,231.22Z"/><path d="M219.88,376c-88.31,0-160.15-71.84-160.15-160.14S131.57,55.68,219.88,55.68c75.33,0,139.55,51.22,156.18,124.57a4,4,0,0,1-7.74,1.76c-15.81-69.7-76.85-118.38-148.44-118.38-83.92,0-152.2,68.27-152.2,152.21S136,368,219.88,368s152.2-68.28,152.2-152.2a4,4,0,1,1,7.95,0C380,304.14,308.18,376,219.88,376Z"/><path d="M395.31,219.81H219.88a4,4,0,0,1,0-8H395.31a4,4,0,1,1,0,8Z"/><path d="M395.31,219.81a4,4,0,0,1-2.81-6.8l23.95-23.94a4,4,0,0,1,5.62,5.62l-23.95,23.95A4,4,0,0,1,395.31,219.81Z"/><path d="M419.26,243.75a4,4,0,0,1-2.81-1.16l-23.95-24a4,4,0,0,1,5.62-5.63l23.95,24a4,4,0,0,1-2.81,6.78Z"/></g></g></svg>