<svg xmlns="http://www.w3.org/2000/svg" viewBox="0 0 348.41 91.36"><defs><style>.cls-1{fill:#f5d242;}.cls-2,.cls-3{fill:#fff;}.cls-3{fill-rule:evenodd;}</style></defs><g id="Layer_2" data-name="Layer 2"><g id="Layer_1-2" data-name="Layer 1"><circle class="cls-1" cx="169.21" cy="45.68" r="45.68" transform="translate(17.26 133.03) rotate(-45)"/><path class="cls-2" d="M170.07,60.22a14.54,14.54,0,1,1,13.69-19.44.6.6,0,0,1-1.13.4,13.34,13.34,0,1,0,.78,4.5.6.6,0,0,1,1.2,0A14.55,14.55,0,0,1,170.07,60.22Z"/><path class="cls-2" d="M170.07,69.13a23.45,23.45,0,1,1,22.87-28.66.6.6,0,1,1-1.18.26,22.23,22.23,0,1,0,.56,5,.6.6,0,0,1,1.2,0A23.48,23.48,0,0,1,170.07,69.13Z"/><path class="cls-3" d="M170.07,48.94a3.26,3.26,0,1,0-3.26-3.26A3.26,3.26,0,0,0,170.07,48.94Z"/><path class="cls-2" d="M170.07,79.57a33.9,33.9,0,1,1,33.05-41.42.84.84,0,0,1-.63,1,.86.86,0,0,1-1-.64,32.23,32.23,0,1,0,.8,7.16.84.84,0,0,1,1.68,0A33.92,33.92,0,0,1,170.07,79.57Z"/><path class="cls-2" d="M207.2,46.52H170.07a.84.84,0,1,1,0-1.68H207.2a.84.84,0,1,1,0,1.68Z"/><path class="cls-2" d="M207.2,46.52a.85.85,0,0,1-.6-1.44L211.67,40a.84.84,0,0,1,1.19,1.19l-5.07,5.06A.81.81,0,0,1,207.2,46.52Z"/><path class="cls-2" d="M212.27,51.59a.82.82,0,0,1-.6-.25l-5.07-5.07a.84.84,0,0,1,0-1.19.86.86,0,0,1,1.19,0l5.07,5.07a.84.84,0,0,1,0,1.19A.81.81,0,0,1,212.27,51.59Z"/><path class="cls-2" d="M0,79V68.64a21.78,21.78,0,0,0,4.56,2.84,37.85,37.85,0,0,0,5.6,2.12,45.77,45.77,0,0,0,5.91,1.34,34.58,34.58,0,0,0,5.49.48q8.67,0,13-3a10,10,0,0,0,4.28-8.7,9.7,9.7,0,0,0-1.42-5.3,15.66,15.66,0,0,0-4-4.13,40.27,40.27,0,0,0-6-3.57Q24,49,20.05,47.1c-2.8-1.33-5.42-2.68-7.84-4a33.7,33.7,0,0,1-6.33-4.52A19,19,0,0,1,1.65,33,16.38,16.38,0,0,1,.11,25.62a16.38,16.38,0,0,1,2.41-9,19.75,19.75,0,0,1,6.33-6.27,29.66,29.66,0,0,1,8.93-3.68A43.22,43.22,0,0,1,28,5.5q11.86,0,17.3,2.68v9.93q-7.11-4.62-18.25-4.62a32.07,32.07,0,0,0-6.16.6,18,18,0,0,0-5.49,2,11.78,11.78,0,0,0-3.92,3.52A8.91,8.91,0,0,0,10,24.83a10.3,10.3,0,0,0,1.14,5,12.63,12.63,0,0,0,3.39,3.84A34.91,34.91,0,0,0,20,37q3.22,1.62,7.42,3.57t8.18,4.2a37.09,37.09,0,0,1,6.77,4.89A21.79,21.79,0,0,1,47,55.61a15.81,15.81,0,0,1,1.71,7.46,18.06,18.06,0,0,1-2.32,9.43,18.41,18.41,0,0,1-6.28,6.28A28.46,28.46,0,0,1,31,82.27,52.94,52.94,0,0,1,20.1,83.35c-1.27,0-2.83-.1-4.7-.29s-3.77-.47-5.71-.84a48.4,48.4,0,0,1-5.52-1.37A17.4,17.4,0,0,1,0,79Z"/><path class="cls-2" d="M117.58,78.93q-8.91,4.42-22.18,4.42Q78.27,83.35,68,73T57.66,45.84q0-18.06,11.59-29.2T98.65,5.5q11.43,0,18.93,3.1V18a40.43,40.43,0,0,0-19-4.51q-13.83,0-22.43,8.66T67.52,45.32q0,13.76,8,21.93t21.09,8.17q12.09,0,20.94-5Z"/><path class="cls-2" d="M282.63,51.62q0,31.73-30.52,31.73-29.24,0-29.23-30.52V6.76h9.41V52.25q0,23.16,20.83,23.17,20.1,0,20.1-22.38V6.76h9.41Z"/><path class="cls-2" d="M348.41,14.75H325.22V82.09h-9.4V14.75H292.69v-8h55.72Z"/></g></g></svg>